<svg xmlns="http://www.w3.org/2000/svg" width="1919.73" height="259" viewBox="0 0 1919.73 259">
  <path id="bottom.wave" d="M1115.275,228.515c-48.439,21.555-99.761,34.865-151.926,29.165-64.078-7.008-121.128-41.739-179.187-69.736-52.813-25.455-112.8-46.03-169.371-34.633a152.8,152.8,0,0,0-16.759,4.376c-61.72,19.932-114.464,80.636-178.13,68.252-46.667-9.087-77.247-55.1-121.43-72.662-42.5-16.893-90.507-5.076-134.212,8.4S97.128,181.488,11.033,166.5s-181.961-58.477-191.153-64.784V0H1738.546V158.483c0,16.322,2.668,35.5-.44,51.39-7.689-4.641-14.384-11.356-22.266-15.806-191.78-108.315-437.5-41.784-437.5-41.784-60.189,12.394-109.514,46.375-163.006,76.623" transform="translate(180.119 0)" fill="#f9f9f9"/>
</svg>
