<?xml version="1.0" encoding="utf-8"?>
<!-- Generator: Adobe Illustrator 23.0.3, SVG Export Plug-In . SVG Version: 6.00 Build 0)  -->
<svg version="1.1" id="Layer_1" xmlns="http://www.w3.org/2000/svg" xmlns:xlink="http://www.w3.org/1999/xlink" x="0px" y="0px"
	 viewBox="0 0 1946 372.7" style="enable-background:new 0 0 1946 372.7;" xml:space="preserve">
<style type="text/css">
	.st0{fill:#F9F9F9;}
</style>
<path id="Subtraction_1" class="st0" d="M1946,372.7H0L0.3,0l0,0l0,0c4.7,2.6,31.3,13.1,67.6,24.4c31.8,9.9,79.6,23.2,126.1,29.9
	c17.7,2.5,32.7,4.4,46,5.5c12.9,1.2,24.2,1.7,34.5,1.7c12.9,0.1,25.8-1,38.5-3.1c11.6-2,22.8-4.7,36.2-8.2c28.6-7.3,59.1-14,88.8-14
	c8,0,16,0.5,24,1.6c13,1.8,25.7,5.5,37.6,11c4.4,2,8.8,4.3,13.6,7c8.9,5,17.5,10.6,25.9,16.1c10.5,6.9,21.5,14,32.8,19.7
	c5.7,2.9,11.5,5.5,17.5,7.6c6.2,2.2,12.5,3.8,18.9,4.9c5.8,0.9,11.6,1.4,17.4,1.4c8.4,0,16.8-0.9,25-2.7c8.3-1.7,16.4-4.1,24.3-7
	c16-5.8,32.1-13.8,47.7-21.4c10.6-5.2,21.6-10.6,32.5-15.4c10.9-4.8,22.1-8.9,33.6-12c5.5-1.5,11.2-2.7,17-3.7
	c11.1-1.8,22.4-2.7,33.7-2.7c11.8,0,23.6,0.9,35.3,2.5c11.8,1.7,23.5,4,35.1,6.9c20.7,5.2,42.8,12.5,67.5,22.3
	c11.1,4.4,22.3,9.1,33.1,13.6h0c23.5,9.8,47.8,20,72.3,28.1c13.2,4.4,25.5,7.8,37.4,10.5c6.5,1.5,12.9,2.7,19.2,3.7
	c6.6,1.1,13.1,1.9,19.6,2.5c8.1,0.7,16.5,1.1,24.8,1.1c11,0,22.1-0.6,33.1-1.8c10.6-1.2,21.6-2.9,32.6-5.2
	c10.4-2.2,21.2-4.9,32.1-8.1c10.2-3,20.8-6.5,31.4-10.4l0.1,0.3c9.8-4.6,19.6-9.3,29.1-13.9l0,0l0,0c21.3-10.3,43.3-21,65.6-29.8
	c12-4.8,23.2-8.7,34.2-11.9c11.9-3.5,24-6.4,36.2-8.5c0.2,0,19.3-4.3,50.4-8.5c18.3-2.5,37.1-4.4,55.8-5.8c23.5-1.8,47-2.6,69.9-2.6
	c21.7,0,43.3,0.8,64,2.4c23.2,1.8,45.9,4.6,67.6,8.3c11.6,2,23.2,4.3,34.3,6.9c11.7,2.7,23.2,5.7,34.3,9c11.6,3.4,23,7.3,33.9,11.4
	c11.4,4.3,22.5,9,33.2,13.9c4.1,2,8.1,4.4,12,7h0c3.4,2.3,7,4.4,10.6,6.3c1.1-5.1,1.6-10.3,1.5-15.5V372.7z"/>
</svg>
