<svg xmlns="http://www.w3.org/2000/svg" xmlns:xlink="http://www.w3.org/1999/xlink" width="375.963" height="191.173" viewBox="0 0 375.963 191.173">
  <defs>
    <clipPath id="clip-path">
      <rect id="Rectangle_1771" data-name="Rectangle 1771" width="375.963" height="191.173" fill="#f2f2f2"/>
    </clipPath>
  </defs>
  <g id="leaf" transform="translate(0 0)">
    <g id="Group_1341" data-name="Group 1341" transform="translate(0 0)" clip-path="url(#clip-path)">
      <path id="Path_21055" data-name="Path 21055" d="M9.958,5.988c-.342.625-.814,1.274-1.121,1.97.26.071.625-.5,1.121-1.97" transform="translate(95.428 64.668)" fill="#f2f2f2"/>
      <path id="Path_21056" data-name="Path 21056" d="M13.307,7.79,13.6,7.6,13.5,7.035Z" transform="translate(143.697 75.974)" fill="#f2f2f2"/>
      <path id="Path_21057" data-name="Path 21057" d="M13.391,9.475l.673-2.666a2.961,2.961,0,0,0-.673,2.666" transform="translate(143.802 73.534)" fill="#f2f2f2"/>
      <path id="Path_21058" data-name="Path 21058" d="M10.224,7.386a9.334,9.334,0,0,0-2.242,2.8Z" transform="translate(86.195 79.765)" fill="#f2f2f2"/>
      <path id="Path_21059" data-name="Path 21059" d="M8.437,8.436A4.8,4.8,0,0,0,8.5,9.864a6.059,6.059,0,0,0-.059-1.428" transform="translate(90.813 91.103)" fill="#f2f2f2"/>
      <path id="Path_21060" data-name="Path 21060" d="M5.6,4.9l.637-.814A3.611,3.611,0,0,0,5.6,4.9" transform="translate(60.483 44.172)" fill="#f2f2f2"/>
      <path id="Path_21061" data-name="Path 21061" d="M6.118,4.719a.7.7,0,0,0-.625-.4L5.15,4.8c-.271.72.555.177.967-.083" transform="translate(55.035 46.634)" fill="#f2f2f2"/>
      <path id="Path_21062" data-name="Path 21062" d="M5.812,4.733l-.743-.071a.66.66,0,0,0,.743.071" transform="translate(54.738 50.349)" fill="#f2f2f2"/>
      <path id="Path_21063" data-name="Path 21063" d="M3.559,5.648,1.636,7.618a20.327,20.327,0,0,0,1.923-1.97" transform="translate(17.667 60.997)" fill="#f2f2f2"/>
      <path id="Path_21064" data-name="Path 21064" d="M7.225,3.933A21.872,21.872,0,0,0,5.656,5.785c.614-.543,1.109-.543,1.569-1.852" transform="translate(61.077 42.477)" fill="#f2f2f2"/>
      <path id="Path_21065" data-name="Path 21065" d="M9.321,5.887,8.932,7.079a2.577,2.577,0,0,0,.389-1.192" transform="translate(96.453 63.577)" fill="#f2f2f2"/>
      <path id="Path_21066" data-name="Path 21066" d="M7.882,7.32l.059.083c.366-.106.248-.189-.059-.083" transform="translate(85.115 78.521)" fill="#f2f2f2"/>
      <path id="Path_21067" data-name="Path 21067" d="M15.049,8.32a6.809,6.809,0,0,0,1.593-.932c-1.168-.873-1.546-.283-1.593.932" transform="translate(162.509 75.291)" fill="#f2f2f2"/>
      <path id="Path_21068" data-name="Path 21068" d="M14.177,10.017C11.4,17.8,12.4,9.6,9.364,16.884c1.593-1.2,2.749-2.136,1.5,1.994-2.513,3.811-1.687-1.215-4.79,4.837l2.442-1.793c-.437,3.528-3.8,7.917-2.725,7.8,4.79-8.094,2.784,5.18,4.767,4.5l-.814.614.637,4.908-.165.472c.212-.484.425-.967.7-1.569-.732,4.613-.106,8.294,2.171,7.905,2.431-4.743,6.56.33,8.755-3.681-1.168,1-1.876.9-2.419-.791l2.1-6.006c1.664.661-1.675,5.675,1.109,2.56,2.3-8.365-2.336-.779-3.256-2.124a11.73,11.73,0,0,1,3.186-3.787c-2.265-1.1-3.445-4.613-7.988,2.985a10.752,10.752,0,0,1,2.289-5.935c-3.422,4.177.472-5.05-2.56-1.2,3.28-7.351,4.873-2.784,7.763-6.678.024,6.737,4.684,1.935,7.256,1.51-1.581,5.711-4.743,9.982-4.778,13.557,1.286,4.566,3.315-2.23,5.569-5.121,1.156,2.442-2.5,9.569.224,10.583l-2.7,3.28c-.555,8.519,2.466-2.808,3.245-.861.153-2.195.708-4.271-.755-4.4.673-3,2.053-3.941,2.643-4.165l-.26-.319c1.628-3.8,2.914-8,4.082-5.569-2.3,4.531.425,3.964.295,6.289l-.7.908c1.664-1.3,2.8-.271,3.811-.979l-.342,1.168c1.416-1.723,3.138-7.634,4.177-5.982-.661,2.383-3.811,8.554-2.029,7.87-1.026,3.551-2.855,3.481-3.941,1.793,1.074,1.687.448,7.787-1.428,7.716-.59,4.731,2.147-1.557,2.584.8.142-1.439.814-2.95,1.062-4.389-1.357,6.218,3.351,1.345,4.283-2.985L41.9,45.637c.991-5.038,3.764-7.8,3.693-10.8-.873,8.153,5.2-3.079,4.731,3.776l.189-4.177c2.973,3.044,7.457-5.593,11.079-6.926-1.546,2.3-3.115,11-4.731,7.622,2.95,2.289-.519,8.814-.224,13.285,2.1,3.693,2.69-7.846,3.917-10.418l-2.029,1.251c3.87-9.628,6.253,3.386,10.737-2.549-.094,2.678-.92,1.416-1.546,2.36.885,5.439,1.7-.885,2.914-2.773,1.522,1.062,3.221,3.61,1.4,9.875,1.64,1.829.283-3.894,1.5-5.781l.165,1.487L76.462,34.9c1.31,2.265,2.808,6.041,2.891,12.188,3.858-.8,2.784-14.347,5.663-16.494,1.156,3.445-.755,4.885-1.144,7.327l2.431-.448c-1.51,7.079-3.115,3.374-3.776,11.681,2.832-8.259,2.961-2.147,6.147-7.48l-.094-.743c1.664-5.616,4.047-1.416,5.7-2.372-.9,3.422-2.655,3.646-3.905,4.849,1.522,2.95,6.23.59,8.2-6.749.9,1.274,2.879,4.365,1.215,7.362,3.5,1.4,2.147-10.572,5.05-8.176l-.437,5.64c2.961,8.283,6.973-6.973,9.8.555l.472-6.855c.566,2.926,1.923,4.365,2.088,7.056l-1.723,2.254c1.156,5.852,1.817-5.416,3.351-1.321.059-2.088-1.168-6.808-1.074-9.132-6.938,3.587-13.073-6.489-20.258-.047a6.9,6.9,0,0,1,.165,3.15c-.625-1.723-2.124-.035-1.64-3.7l.283-.484c-1.9,1.439-2.82-7.162-3.858-7.15-1.074,4.613-3.422-2.265-3.351,5.829l-.7-5.156c-.661,2.926-.826,6.843-1.687,8.294-1.156-.743-.873-3.917.26-5.864-4.33-3.374-9.639-3.363-14.654-1.369l1.734-3.587c-.861-2.006-4.944,6.112-2.678-3.327-2.8,3.551-5.663-3.492-7.339,6.359.035-9.864-4.613-5.168-8-4.295-1.038,8.507-2.985,1.9-4.59,5.663.861-6.56,3.905-6.23,4.767-10.572-5.262,9.651-6.961-8.92-11.952,7.3a2.839,2.839,0,0,1,.2-2.029c-.59-.189-.708-3.221-1.121-4.094-1.05,2.8-.071,4.448-1.77,5.156-.991-.92.791-5.321.85-7.551-3.044,3.209-6.914,3.953-9.132,10.418-.165-1.947.2-5.84,1.274-6.926-4.908,4.212-2.926-1.982-7.315.189,1.262.189,2.761-6.713,3.587-3.433,1.6-9.663-5.593-.024-6.607-5.687l-3.138,5.451c-2.029.484-.035-5.1,1.829-6.808C21.1,5.381,18.6,8.189,16.62,7.4c.177-.755.732-1.852.932-1.416L14.9,4.59a29.908,29.908,0,0,0-4.566,7.386c1.817-3.068,3.245-4.79,3.846-1.959" transform="translate(60.237 49.572)" fill="#f2f2f2"/>
      <path id="Path_21069" data-name="Path 21069" d="M6.337,5.216l-.389.649.13.035c.094-.26.177-.46.26-.684" transform="translate(64.23 56.332)" fill="#f2f2f2"/>
      <path id="Path_21070" data-name="Path 21070" d="M7.96,10.739A8.287,8.287,0,0,0,7.759,8a7.257,7.257,0,0,0,.2,2.737" transform="translate(83.361 86.417)" fill="#f2f2f2"/>
      <path id="Path_21071" data-name="Path 21071" d="M38.665,43.768c-5.5,7.669,2.6.071,2.195,2.95-1.982.295-5.026,4.849-6.525,7.174,8.743-8.613.354,3.339,4.684,3.481-2.171,3.327-3.917,2.8-6.631,6.241,3.374-1.156,6.831-.861,10.9-6.442,2.8,1.5,3.54,4.731,5.781,4.767-3.41,1.18-3.752,5.687-8.283,9.793,6.371-5.545,15.444-11,22.476-18.477-2.938,6.867-3.115,7.634-6.489,13.557,1.4,6.041,4.012-5.781,6.336-2.348l-.956-1.852c2.478-1.369,5.463-7.752,7.917-12.07l-3.917-.566c2.277-4.625,4.035-3.02,5.2-3.929,3.516-5.18.071-4.767,2.478-8.979-2.183,3.469-2.879,1.723-4.472,2.95L70.438,37.5c-.189-3.174-3.964,2.407-5.227,1.581a8.851,8.851,0,0,1,.767-1.675c-1.9,2.478-4.189,5.522-5.545,6.017l.779.071c-4.248,5.121-9.521,6.879-11.079,14.217l-2.56-3.894C51.808,47.968,58.25,38.977,60.41,39.3l1.746-2.513c.838-4.2-6.631,2.631-9.05,8.33C42.157,59,47.643,42.458,41.308,46.528c2.666-3.905,5.038-4.436,7.445-6.713.967.059,1.475.33-.708,3.634,4.33-.059,7.7-12.6,9.993-9.3.33,2.961-6.135,5.191-4.035,7.174l8.625-10.111c-1.522-.519-4.035.673-5.947,1.192-10.69,2.5-10.666-6.536-10.442-6.395C38.122,19.722,29.827,12.82,24.282,3.334,21.155.986,21.155-.218,8.484,3.216c-2.1,1.723.071,3.54-4.424,4.531,4.637-1.475,7.669-1.192,8.129.838C8.035,10.8,9.31,7.805,8.531,8.773L8.4,9.28c-2.265.814-3.929,1.156-4.33.578-5.475,5.18-1.817,9.309,6.749,6.418-3.374,4.177-7,2.348-10.808,3.044-.094,8.743,4.531,12.471,8.436,19.373,6.6-5.085,4.59-2.619,9.592-5.392l-1.947,2.4c.967-1.18,6.017-4.141,6.454-6.23-2.195,7.091,11.6-3.905,15.716-4.849l-3.3,2.9c1.911.9,2.407,1.251,5.156.8-3.457,8.176-2.8-1.05-9.663,7.032l1.911-.531c-3.221,2.5-8.814,7.138-11.81,8.294,7.492-2.313,1.723,6.088,8.46,4.7-3.587,3.5-8.8,3.551-9.923,3.115.732,1.4,4.814.743,2.018,4.047l4.224-4.342c2.466.944-3.941,4.012-5.829,7.4,5.4,3.138,13.38-14.3,19.161-14.265" transform="translate(0.117 11.657)" fill="#f2f2f2"/>
      <path id="Path_21072" data-name="Path 21072" d="M8.74,7.482c-.46-.72-1.062-.625-1.723-.224a2.311,2.311,0,0,0,1.723.224" transform="translate(75.774 75.032)" fill="#f2f2f2"/>
      <path id="Path_21073" data-name="Path 21073" d="M6.856,7.609c-.378.767-.7,1.428-.967,1.982a5.158,5.158,0,0,0,.967-1.982" transform="translate(63.593 82.173)" fill="#f2f2f2"/>
      <path id="Path_21074" data-name="Path 21074" d="M5.637,13.288c.7-2.631,1.416-2.466,3.056-5.51-1.369,1.6-3.2.92-3.056,5.51" transform="translate(60.789 83.998)" fill="#f2f2f2"/>
      <path id="Path_21075" data-name="Path 21075" d="M21.264,14.285c.319-1.746,1.711-3.575,1.369-5.014L20.58,11.383Z" transform="translate(222.236 100.12)" fill="#f2f2f2"/>
      <path id="Path_21076" data-name="Path 21076" d="M23.345,11.264,21.339,8.94l-1.333,8.176c2.147-.13,1.192-5.711,3.339-5.852" transform="translate(216.037 96.546)" fill="#f2f2f2"/>
      <path id="Path_21077" data-name="Path 21077" d="M19.825,10.556l.448-1.97a3.524,3.524,0,0,0-.448,1.97" transform="translate(213.906 92.723)" fill="#f2f2f2"/>
      <path id="Path_21078" data-name="Path 21078" d="M20.636,12.21l-.767,5.947L22.476,13.8l-1-1.156c-.024-2.088-.673-2.891-.767-3.894l-.979,4.259c.248-.507.732-1.534.909-.8" transform="translate(213.025 94.526)" fill="#f2f2f2"/>
      <path id="Path_21079" data-name="Path 21079" d="M19.614,9.073c.059.614.118,1.144.189,1.782a6.488,6.488,0,0,0-.189-1.782" transform="translate(211.804 97.982)" fill="#f2f2f2"/>
      <path id="Path_21080" data-name="Path 21080" d="M19.8,8.132c.519,2.183-.531,5.451-.673,7.893,2.029,2.324,2.1-6.513,3.87-3.693-2.7,4.7,1,3.5,1.9,6.9-.543-5.545-1.557-9.321-3.6-10.961l-.212,3.693C20,12.037,20.564,9.8,19.8,8.132" transform="translate(206.524 87.82)" fill="#f2f2f2"/>
      <path id="Path_21081" data-name="Path 21081" d="M18.992,19.516l1.628-5.5c.271,2.666,2.843,2.749,2.726,8.4.908-.8,1.062-3.28,1.793-4.79.7,2.891,1.215,5.073,2.1,1.074-3.87-3.894-2.714-5.2-6.053-6.949.071-1.227.5-1.015.908-.791L19.912,7.918c-.2,6.879-3.032,7.327-.92,11.6" transform="translate(196.676 85.509)" fill="#f2f2f2"/>
      <path id="Path_21082" data-name="Path 21082" d="M19.7,16.968c1.746-.354,2.714-5.569,1.852-9.2l-3.7,4.413c1.074-.059,2.407-.649,1.852,4.79" transform="translate(192.766 83.857)" fill="#f2f2f2"/>
      <path id="Path_21083" data-name="Path 21083" d="M20.543,13.867c-.684-2.914-1.782-9.227-3.009-3.5,1.994-.861,1.015,7.551,3.009,3.5" transform="translate(189.343 86.875)" fill="#f2f2f2"/>
      <path id="Path_21084" data-name="Path 21084" d="M16.725,12.783l3.386,3.728c.566,7.327-1.675,2.3-2.773,5.569,2.926,1.522,2.018-.873,4.283-5.416.826.46,2.159-3.315,3.162-5.357-4.507,5.923-4.519-11.976-8.058,1.475" transform="translate(180.607 82.556)" fill="#f2f2f2"/>
      <path id="Path_21085" data-name="Path 21085" d="M18.446,11.445l.425-2.985L17.2,10.772Z" transform="translate(185.686 91.358)" fill="#f2f2f2"/>
      <path id="Path_21086" data-name="Path 21086" d="M25.987,10.126c-1.829-8.743-4.035,4.826-6.277,1,.26-.5.106-1.227.625-2.23l-1.994.826-.024-1.959c-.047,5.144-2.159,7.2-3.186,11.162,1.864,5.557,1.251-6.43,2.843-.378-.507,2.36-.932,5.911-1.416,7.811,1.31-2.572,1.711-5.64,2.348-8.578,1.345-.543.861,2.419.9,4.377,1.569-3.02,1.793-10.607,3.988-8.755,1.333,4.59-1.026,7.15,1.487,5.333-1.038-8.294,2.466,1.369,3.528-3.835,1.805,1.64,2.926,6.749,2.49,9.722.047-6.383,1.758-11.881,3.162-13.675l-3.174,5.321L30.352,8.71c-1.758,3.5-3,2.832-4.625,1.923Z" transform="translate(163.405 77.013)" fill="#f2f2f2"/>
      <path id="Path_21087" data-name="Path 21087" d="M15.923,8.761a10.521,10.521,0,0,1-.732,1.345c.271.142.507-.437.732-1.345" transform="translate(164.042 94.613)" fill="#f2f2f2"/>
      <path id="Path_21088" data-name="Path 21088" d="M17.245,8.8l-.767,1.51.484,2.171Z" transform="translate(177.945 95.019)" fill="#f2f2f2"/>
      <path id="Path_21089" data-name="Path 21089" d="M15.59,11.468c.413.224.649-2.242.236-2.466l-.767,3.481Z" transform="translate(162.617 97.215)" fill="#f2f2f2"/>
      <path id="Path_21090" data-name="Path 21090" d="M16.47,12.829l-.873-4.4-.779,3.457Z" transform="translate(160.017 91.018)" fill="#f2f2f2"/>
      <path id="Path_21091" data-name="Path 21091" d="M11.37,13.855c1.05,2.773,1.522-2.348,2.171-6.017-1.935-1.333-.566,4.4-2.171,6.017" transform="translate(122.78 82.487)" fill="#f2f2f2"/>
      <path id="Path_21092" data-name="Path 21092" d="M9.008,10.462c.9,3.563,3.268-1.109,4.743-.684-.885-2.808-3-1.569-4.743.684" transform="translate(97.274 88.074)" fill="#f2f2f2"/>
      <path id="Path_21093" data-name="Path 21093" d="M7.683,20.794c.8-1.487,1.557-2.195.85-3.068l3.717-8.542c-1.534-3.492-3.693,7.764-4.566,11.61" transform="translate(82.966 92.019)" fill="#f2f2f2"/>
      <path id="Path_21094" data-name="Path 21094" d="M6.473,19.1l3.268-2.607-1.085-.6a66.551,66.551,0,0,1,4.177-7.457C10.709,9.781,8.1,12.672,6.473,19.1" transform="translate(69.9 91.103)" fill="#f2f2f2"/>
      <path id="Path_21095" data-name="Path 21095" d="M8.125,8.352a6.323,6.323,0,0,0-.932.26c-.071,1.121-.295,2.478.932-.26" transform="translate(77.002 90.196)" fill="#f2f2f2"/>
      <path id="Path_21096" data-name="Path 21096" d="M7.59,9.094c-.224.342-.389.6-.578.909a7.134,7.134,0,0,1,1.463-.743c.059-.861.024-1.581-.885-.165" transform="translate(75.72 89.548)" fill="#f2f2f2"/>
      <path id="Path_21097" data-name="Path 21097" d="M10.245,9.231,6.092,8.9,7,11.06c2.065-5.227.8,3.717,3.245-1.829" transform="translate(65.785 96.125)" fill="#f2f2f2"/>
      <path id="Path_21098" data-name="Path 21098" d="M12.843,13.765l1.829-5.18c-1.7-2.077-9.781,7.4-7.315-1.215-.46,3.516-4.719,4.719-2.584,7.374,3.339-3.917,6.914-2.938,8.07-.979" transform="translate(45.112 79.592)" fill="#f2f2f2"/>
      <path id="Path_21099" data-name="Path 21099" d="M5.944,10.98c1.1-1.3,1.05-2.537,1.487-4.094-.437-1-2.419.767-3.079,3.056C8.292,3.854,3.089,14.52,5.944,10.98" transform="translate(46.985 71.262)" fill="#f2f2f2"/>
      <path id="Path_21100" data-name="Path 21100" d="M9.224,7.909c.684.271,1.829.307,1.664-1.439-2.018-.8-4.826,4.814-7.787,7.386-.047,3.811,5.8-2.714,6.123-5.947" transform="translate(33.476 69.024)" fill="#f2f2f2"/>
      <path id="Path_21101" data-name="Path 21101" d="M6.092,3C3.26,6.76,4.676,7.031,5.9,5.9c-.85.437-.566-1.133.189-2.9" transform="translate(47.97 32.359)" fill="#f2f2f2"/>
      <path id="Path_21102" data-name="Path 21102" d="M2.648,9.218l-.2,1.227L7.533,5.23Z" transform="translate(26.433 56.483)" fill="#f2f2f2"/>
      <path id="Path_21103" data-name="Path 21103" d="M5.575,5.048,1.021,6.971l2.407,1.4Z" transform="translate(11.02 54.515)" fill="#f2f2f2"/>
      <path id="Path_21104" data-name="Path 21104" d="M3.757,6.113,1.952,4.7,1.126,6.526C.843,8.3,3.167,5.641,3.757,6.113" transform="translate(11.9 50.727)" fill="#f2f2f2"/>
      <path id="Path_21105" data-name="Path 21105" d="M1.234,4.457c.543-.071.071.543-.4,1.168l3.74-.5Z" transform="translate(8.995 48.076)" fill="#f2f2f2"/>
      <path id="Path_21106" data-name="Path 21106" d="M3.3,3.141C7.937,1.7,4.444,1.465,5.246.663,4.067.982-1.219,4.12,3.3,3.141" transform="translate(16.227 7.165)" fill="#f2f2f2"/>
      <path id="Path_21107" data-name="Path 21107" d="M33.079,7.2a14.888,14.888,0,0,0-3.174-.743c.555.8,1.616,1.085,3.174.743" transform="translate(322.933 69.743)" fill="#f2f2f2"/>
      <path id="Path_21108" data-name="Path 21108" d="M24.9,12.85a6.549,6.549,0,0,1,.472.555l.472.142Z" transform="translate(268.929 138.768)" fill="#f2f2f2"/>
      <path id="Path_21109" data-name="Path 21109" d="M24.984,12.91l1.64,1.227,1.569,1.144L27.58,14.7a7.206,7.206,0,0,0-2.6-1.793" transform="translate(269.793 139.416)" fill="#f2f2f2"/>
      <path id="Path_21110" data-name="Path 21110" d="M32.776,6.818a8.64,8.64,0,0,0-5.05.024c1.616-.059,3.363-.13,5.05-.024" transform="translate(299.403 69.702)" fill="#f2f2f2"/>
      <path id="Path_21111" data-name="Path 21111" d="M28.833,7.96a3.2,3.2,0,0,0-.779,1.392,4.251,4.251,0,0,0,.779-1.392" transform="translate(302.945 85.963)" fill="#f2f2f2"/>
      <path id="Path_21112" data-name="Path 21112" d="M22.982,1.155c.33-.342.637-.661.956-.967a1.741,1.741,0,0,0-.956.967" transform="translate(248.174 2.036)" fill="#f2f2f2"/>
      <path id="Path_21113" data-name="Path 21113" d="M24.69.7a11.052,11.052,0,0,0-3.115.484l-.083.614c.649.649,2.324-.519,3.2-1.1" transform="translate(232.095 7.554)" fill="#f2f2f2"/>
      <path id="Path_21114" data-name="Path 21114" d="M24.7.949l-2.678.566A8.079,8.079,0,0,0,24.7.949" transform="translate(237.84 10.254)" fill="#f2f2f2"/>
      <path id="Path_21115" data-name="Path 21115" d="M18.9,6.079l2.36,1.439A11.47,11.47,0,0,0,18.9,6.079" transform="translate(204.094 65.651)" fill="#f2f2f2"/>
      <path id="Path_21116" data-name="Path 21116" d="M25.954,0a11.7,11.7,0,0,0-2.891,2.206c1.463-.72,3.905-.732,2.891-2.206" transform="translate(249.049 0.006)" fill="#f2f2f2"/>
      <path id="Path_21117" data-name="Path 21117" d="M31.447,6.5a7.28,7.28,0,0,1-1.274.307c.625.165,1.109.165,1.274-.307" transform="translate(325.827 70.143)" fill="#f2f2f2"/>
      <path id="Path_21118" data-name="Path 21118" d="M27.523,5.955l.13.165c.85.295.59.071-.13-.165" transform="translate(297.211 64.312)" fill="#f2f2f2"/>
      <path id="Path_21119" data-name="Path 21119" d="M25.641,16.068c-1.6.448-3.162.885-4.861,1.357,3.858.661,4.991-.189,4.861-1.357" transform="translate(224.396 173.518)" fill="#f2f2f2"/>
      <path id="Path_21120" data-name="Path 21120" d="M85.878,6.649c-9.51,4.708.968-1.758-7.469,1.31.838.944,1.6,1.144-1.664,3.056-.543.307-1.18.673-1.947,1.109a4,4,0,0,1-.779.153c-2.006,0,3-3.516-3.127-2.218l1,2.254a24.39,24.39,0,0,1-3.54,2.124c-1.911.814-3.8,1.616-5.475,2.324-7.811,3.28-12.495,5.109-13.722,6.666,2.124-.826,4-1.557,5.687-2.206,8.672-3.5,9.887-3.551,8.224-2.23-1.192,1.038-5.581,3.8-9.415,6.442C45,30.789,36.9,36.382,37.634,36.016l-1.841.9L28.1,41.738l-3.6,2.3L22.779,45.16a2.016,2.016,0,0,0-.33.625c-.5.307-.838.519-1.274.779,1.557-.873,3.068-1.711,4.967-2.773-8.684,6.525-7.752,9.592,6.171,5.876,13.486-8.2,36.328-8.011,42.994-12.424-3.964,1.215-7.929,2.136-10.819.826l7.185-7.315c5.876.083-4.8,6.43,4.637,2.1,2.407-4.4.9-4.59-2.324-3.563-3.068.909-8.542,3.516-10.265,3.174,4.424-2.608,8.46-4.967,11.433-5.722a31.623,31.623,0,0,0-8.943-.625c-3,.4-8.53,2.82-21.391,9.781,1.557-2.1,12.306-8.412,14.276-9.168-1.723.814-2.9,1.369-3.776,1.782a4.048,4.048,0,0,1-1.569.507c-.271-.106,1.05-1.1,1.4-1.475,1.156-1.038,2.784-2.218-2.9.389C66.493,19.946,67.3,22.212,75.92,17.94c-1.6,2.584,1.557,2.619,4.92,1.947,3.481-.578,7.091-1.888,9.415-1.947-1.841,5.616-9.061,9.132-8.271,13.144,2.844,2.265,5.994,2.136,7.3.92,1.7-1.251,3.457-3.469,6.006-4.413,3.693,4.094-3.127,9.25,2.643,12.672a29.676,29.676,0,0,0-5.144,1.652c-.732,8.778,4.424-1.345,6.135,1.581.413-2.277,1.557-4.141-1.534-5.746,1.133-2.985,4.13-2.525,5.534-2.088l-.625-.684c3.374-2.537,6.737-6.159,9.675-.944-5.675,1.864.956,5.345-.012,8.035l-1.593-.153c3.587,1.333,5.675,4.5,7.622,5.829l-1.085.59c3.15.85,9.085-1.711,10.052,2.8-2.442.732-10.418.437-7.374,3.492-3.374,1.251-6.041-1.959-7.185-5.652,1.156,3.858-3,8.46-5.522,5.7-3.233,3.752,3.882,1.5,3.091,4.649,1.026-1.1,2.737-1.369,3.894-2.277-5.05,3.787,2.867,5.982,7.233,5.321a29.536,29.536,0,0,0-4.873-2.053c4.436-2.95,9.911,1.227,11.9-1.369-3.351,2.5-.967,4.7,1.121,7.834,2.218,2.973,4.672,6.7,1.274,7.457,1.321-.366,2.631-.8,3.941-1.31-.224,6.477,4.8,13.533,8.448,22.653a27.411,27.411,0,0,1-8.743,7.5c2.537-3.669-5.923-9.8,3.622-10.218-6.029,1.369-8.684.047-11.043-1.782-2.431-1.947-4.79-4.259-8.023-5.545-7.893-.956,4.873,7.551,4.778,10.218,1.321-.956,2.537-1.982,3.693-2.926,1.5,4.79-4.8,6.548-10.985,7.174-6.265.743-12.7.555-17,4.483-1.18-2.537,1.829-1.805,2.973-3.1-5.345-4.389-4.106,1.77-6.619,4.248-5.073-.189-10.347-2.147-8.542-8.79-5.817-1.274,1.192,3.882-1.156,6.041l-1.2-1.38a23.268,23.268,0,0,0-2.041,7.28c-1.982-.956-4.542-2.49-7.634-4.4a71.152,71.152,0,0,1-11.35-8.967c-2.82-.118-3.186,1-1.888,3.162a27.269,27.269,0,0,0,4.165,5.392c3.563,3.823,7.516,7.822,7.056,8.7-6.466-4.094-5.64-5.144-7.964-7.646a38.726,38.726,0,0,1-4.106-.566c-4.094-3.74-3.528-4.2-3.374-4.967.555-.448-.59-2.383-8.46-9.486,4.212,6.289,4.46,7.162,2.82,6.949-.838-.118-1.876-.413-2.572-.472-.342-.024-.614.035-.708.236.212.378-.885.071,1.534,1.758l.849.614c5.687,4.283,7.893,5.864,9.345,7.162,1.4,1.274,2.195,2.254,3.929,4.023-5.191-4.318-9.073-7.551-12.837-10.69-.425-.106,7.362,7.008,13.439,13.58a66.555,66.555,0,0,0,6.277,5.817c-.212.9-3.54,5.321-6.407.814a9.3,9.3,0,0,0,2.69,8.707c1.675,1.888,3.457,4.92-1.675,8.967l-3.811-4.248c-6.548,1-9.061,4.33-12.943,8.176-3.669,3.61-8.2,7.079-13.509,4.295l.708,6.879c-2.666-2.466-7.008-3.186-8.058-5.829,1.487-.885,2.9-1.959,4.295-2.938-4.5-5.168-3.846,6.135-9.109,2.454.094,2.159,4.6,6.43,4.92,8.731,10.347-3.15,20.742-3.858,32.269-9.5,5.522-2.879,12.153-7.87,15.173-16.907a22.831,22.831,0,0,0,.8-2.938l-.012-1.026a6.152,6.152,0,0,0-.507-2.077,18.34,18.34,0,0,0-3.28-4.743l-.189-.212-.295-.071a6.1,6.1,0,0,1-2.678-1.227.29.29,0,0,0,.224-.224c.224-.72-2.171-3.032,1.805-.283l.8.708c-1.746-1.817-.791-1.475,1.038-.425,1.7,1.062,4.165,2.761,3.74,2.4-2.1-1.581-3.02-2.277-4.33-3.268-.224-.236.7.024-6.265-4.967l9.038,6.336c-3.835-3.186-9.687-7.681-10.489-8.991a26.272,26.272,0,0,1,8.33,6.572c4.991,2.513,8.011,3.433,10.76,3.433a13.527,13.527,0,0,0,4.082-.72,27.243,27.243,0,0,1,2.631-.9c1.876-.507,3.74-1.015,5.581-1.51l-3.563,4.2c4.071,1.569,12.035-8.519,10.619,1.522,2.313-2.265,11.268-3.6,16.966-5.274,5.935-1.935,10.135-4.189,6.914-8.483,8.306,3.953,18.264-.012,26.5-4.59-1.1-5.321-3.2-11.126-4.33-15.881-8.755-.578-4.248-11.279-9.439-15.008,6.678-1.841,9.368,11.445,14.017,13.085-6.536-8.8-6.6-17.745-9.345-27.326-1.357-4.554-2.855-9.38-5.486-11.657-2.289-2.088-5.132-2.985-9.415-1.534-.26-1.475.283-1.9,1.121-1.888-1.3-1.793-.743-6.017-1.723-8.33-3.15.967-.885,5.392-5.368,2.206-2.442-3.516,2.607-5.038,2.843-7.929-8.92-3.87-21.485-9.238-25.579-3.15-1.168-2.6-2.124-7.256.885-7.339-3.54-.26-6.029-.13-7.94-.6a7.442,7.442,0,0,1-1.7-.472l-.767-.437c-1.215-.708-1.758-1.723-5.817-.389,2.277.035,5.8-6.418,6.147-3.492,1.628-4.566.932-4.177-1.3-3.374-2.018.838-6.076,2.431-4,.342l-9.958,5.888c-4.436,1.593,5.569-4.177,9.852-6.43a12.024,12.024,0,0,1,2.171-1.652c.578-.366.649-.4.543-.413-.2.035-.92.271-.307-.354.979-.531,2.4-1.227,1.852-.885a7.355,7.355,0,0,0,.673-.684,6.23,6.23,0,0,0,.673-.908c-1.522.566-4.33.378-8.306,1.5,3.363-.212,5.569-.661,1.97,1.947" transform="translate(221.794 34.605)" fill="#f2f2f2"/>
      <path id="Path_21121" data-name="Path 21121" d="M26.58,3.331l-.72.059-.012.189.732-.248" transform="translate(279.123 35.976)" fill="#f2f2f2"/>
      <path id="Path_21122" data-name="Path 21122" d="M27.394,9.77a5.258,5.258,0,0,0-.059-3.15,6.5,6.5,0,0,0,.059,3.15" transform="translate(293.399 71.493)" fill="#f2f2f2"/>
      <path id="Path_21123" data-name="Path 21123" d="M100.559,45.972c7.87,5.18,2.737-5.545,7.952-6.831-2.065,3.87,2.655,7.044,4.814,8.731-4.719-12.105,5.64-2.124,10.666-8.2,2.112,3.292-.684,5.77,1.593,9.651,1.286-4.778,6.218-9.073,4.649-15.645,7.386-3.174,13.356-1.793,17.7-3.374-4.979,3.374-.26,6.879-2.619,13.12,2.8-8.342,13.273-20.412,29.237-23.1-2.277,7.233-2.891,7.834-7.032,13.273.826,1.97.991,2.466,1.522,2.513a7.14,7.14,0,0,0,2.348-.861,4.82,4.82,0,0,1,3.02-.6c.566.4,2.584,1.062.212,4.094a7.042,7.042,0,0,0,1.534-2.56c-.012-.684.024-1.428-.047-2.206,3.717,3.7,9.828,3.209,14.784,2.619-.094-.92.177-2.029-1.876-7.221a24.873,24.873,0,0,0-7.492-9.356c1.628-1.829,5.4-.578,8.79,3.717a22.593,22.593,0,0,1,3.953,7.41c.283.85.555,1.64.8,2.348a2.989,2.989,0,0,0,.448.8c3.115.873,4.118-.684,4.944-2.36a75.955,75.955,0,0,0-1.286-8.8c-.46-2.218-.472-3.74,1.144-3.386C194.075,15.449,185.6,7.025,179.6,6.518l.212-2.95c-9.309-7.044-15.515-.543-22.24-1.3a2.109,2.109,0,0,1-.507-1.864c-2.714,2.914-4.955,6.761-8.613,8.023.92-.2,1.9-.295,2.855-.437-5.545,6.548-14.772,12.707-6.855,18.536a61.985,61.985,0,0,0-11.574.732c-1.168-7.1-1.923-18.831,6.7-21.308l.507-3.174c-3.7-1.51-8.235,1.026-10.548,4.531-2.36,3.551-2.572,7.8.236,10.111.012,9.1-3.728,10.819-8.79,12.223-4.849,1.451-11.2,2.938-12.188,8.707-3.61-3.068-.944-7.988-.732-11.987,2.136-2.242,3.988-3.516,6.265-.224,4.649-4.33,2.6-7.233.6-9.864-1.935-2.549-3.551-4.92,4.271-7.622,7.988-.72-5.475,10.524,4.967,6.867A94.475,94.475,0,0,1,127.7.441c-7.433,2.49-12.872,7.5-17.32,11.7A325.946,325.946,0,0,0,83.6,41.607c-5.97,7.221-9.828,11.881-9.828,11.881l-1.805,4.236,42.711,8.542A51.957,51.957,0,0,0,111.249,49.7c-1.487-4.094-3-7.469-4.365-10.536-1.357-3.02-2.572-5.746-3.422-7.94l-.956-2.666-.224-.661c-.283-.13.46-.059-.531.012a29.985,29.985,0,0,1-3.717.059L77.481,7.745A97.5,97.5,0,0,0,14.642,54.9c-5.4,13.014-6.749,18.665,4.236,26.535,3.15-1.746,4.283-8.707,7.752-4.932-4.118-2.666-4.967-8.094-1.5-13.486,4.33,1.734-.531,6.076,1.144,5.191l.814-.873C28.942,69,29.98,70.6,29.308,72.2c8.884-2.938,13.214-11.362,10.159-21.1,7.1-.413,2.832,7.657,4.483,11.74a151.009,151.009,0,0,1,17.71-12.2c5.722-3.28,11.74-6.359,19.362-8.082-1.711-7.646.035-5.758,1.31-10.642L77.5,27.967c.283.142.6.307.944.5a30.789,30.789,0,0,0-2.938,2.206c1.475-.908,7.3.861,8.837-2.584-2.973,5.2,1.133,8.247,5.687,9.168,4.7,1.18,10.395,1.18,13.474,4.035l-4.271,1.121A118.793,118.793,0,0,0,107.32,55.93c-2.49,8-3.457,4.507-4.955.873-1.616-3.646-4.012-7.244-8.46-4.082l2.643,2.3c-4.436-.472-11.822.307-15.68-1.416,6.831,4.177,4.979,9.451,4.5,12.66l-4.6,30.37L99.037,69c1.156-1.758,1.711-3.976,1.723-7.221,2.112,1.982,3.056,6.182,3.351,9.333l.861,8.979L79.865,66.266a6.338,6.338,0,0,1-2.277-2.018,3.058,3.058,0,0,0,.92,2.018L101.031,89.71l4.33-18.076c.484-2.018,1.168-3.717,3.54-2.678l-5.156-3.245c1.852-4.967,4.566,3.186,8.8,3.481,2.206-4.755-1.439-7.775-5.652-10.878-4.094-3.068-9.085-6.147-6.336-12.341" transform="translate(114.093 2.774)" fill="#f2f2f2"/>
      <path id="Path_21124" data-name="Path 21124" d="M30.171,5.6a7.451,7.451,0,0,0-5-.012,17.693,17.693,0,0,0,5,.012" transform="translate(271.78 55.761)" fill="#f2f2f2"/>
      <path id="Path_21125" data-name="Path 21125" d="M26.76,6.879c-2.6,1.392-4.826,2.6-6.737,3.622A48.391,48.391,0,0,0,26.76,6.879" transform="translate(216.221 74.29)" fill="#f2f2f2"/>
      <path id="Path_21126" data-name="Path 21126" d="M18.542,16.873c7.716-4.578,7.646-4.33,17.462-9.687-2.171,1.038-4.436,2.112-6.312,3.009a120.093,120.093,0,0,0-11.15,6.678" transform="translate(200.228 77.605)" fill="#f2f2f2"/>
      <path id="Path_21127" data-name="Path 21127" d="M17.3,9.871c-1.982-.071-5.38-2.843-6.23-1.31l4.448,4.306Z" transform="translate(119.562 87.473)" fill="#f2f2f2"/>
      <path id="Path_21128" data-name="Path 21128" d="M11.514,9.365l.271,5.947,8.943-.283c-2.643-5.168-6.548-.413-9.215-5.663" transform="translate(124.335 101.135)" fill="#f2f2f2"/>
      <path id="Path_21129" data-name="Path 21129" d="M13.853,10.921l-2.313-.236c1.274.649,1.911.6,2.313.236" transform="translate(124.616 115.389)" fill="#f2f2f2"/>
      <path id="Path_21130" data-name="Path 21130" d="M14.922,15.3l6.253-.779-7.008-4.365.142,2.938c-1.852.967-1.805,2.879-2.572,3.551l4.991.472c-.743-.354-2.254-1.074-1.805-1.817" transform="translate(126.733 109.666)" fill="#f2f2f2"/>
      <path id="Path_21131" data-name="Path 21131" d="M12.261,12.169c.472-.413.85-.849,1.369-1.239a2.584,2.584,0,0,0-1.369,1.239" transform="translate(132.402 118.035)" fill="#f2f2f2"/>
      <path id="Path_21132" data-name="Path 21132" d="M14.041,28.355c1.192-2.289,5.463-1.428,7.763-2.336-.625-5.746-8.471-1.734-8.283-7.3,7.61,4.248,1.817-3.988,3.787-7.681-4.283,3.787-6.418,7.976-5.156,13.663l3.516-1.262c1.487,2.537-1.2,2.277-1.628,4.92" transform="translate(127.353 119.169)" fill="#f2f2f2"/>
      <path id="Path_21133" data-name="Path 21133" d="M25.811,28.838a65.423,65.423,0,0,1-6.784.661c1.522-2.242-2.442-7.575,2.407-10.619-1.959-1.369-4.189-.307-6.536-1.05,1.428-3.127,2.584-5.321-2.029-5.2,2.183,10.631-.6,8.9,3.457,17.132-1.074.614-1.652-.413-2.171-1.439.46,2.171.873,4.424,1.546,6.631,5.593-3.882,10.69.437,10.111-6.112" transform="translate(138.957 136.313)" fill="#f2f2f2"/>
      <path id="Path_21134" data-name="Path 21134" d="M23.043,15.405c-3.422-1.911-9.014-.33-9.651,4.118a32.309,32.309,0,0,0,11.563,2.313c-2.9-1.038-6.171-2.773-1.911-6.43" transform="translate(144.615 157.746)" fill="#f2f2f2"/>
      <path id="Path_21135" data-name="Path 21135" d="M14.636,15.635c.26,1.487.92,4.106,2.431,5.321,1.428,1.333,3.717,1.038,4.342-2.136-2.454,1.121-3.41-.814-3.905-2.313-.625-1.428-.578-2.49-2.867-.873" transform="translate(158.049 160.065)" fill="#f2f2f2"/>
      <path id="Path_21136" data-name="Path 21136" d="M28.047,28.582l-.979-1.593c-.578-1.321-.85-.307-1.286-.342l-1.239.614-2.832,1.534c-4.047-7.846,1.935-7.858,2.631-16.188-5.616,7.067-3.528,8.578-5.286,19.869-1.923,1.911-2.029,8.342-3.4,11.279,3.268-5.852,6.159-6.348,8.165-6.017.979.071,1.876.307,2.372-.7a8.149,8.149,0,0,0,.673-2.513c.071-.649.165-1.392.271-2.265A5.788,5.788,0,0,1,27.527,30c.153-.425.33-.9.519-1.416" transform="translate(169.085 136.144)" fill="#f2f2f2"/>
      <path id="Path_21137" data-name="Path 21137" d="M15.448,16.95l.9,3.587c.673-1.959,1.5-3.953,2.183-6.359-.92,1-2.053,1.805-3.079,2.773" transform="translate(166.817 153.098)" fill="#f2f2f2"/>
      <path id="Path_21138" data-name="Path 21138" d="M32.323,36.071c1.852,5.121,5.5,4.79,8.92,3.481,3.5-1.2,6.82-3.28,10.159-1.133-.791.448-.307,1.215-1.9,2.112l6.1-.507.224,1.959c-.153-5.144,5.911-7.174,8.047-11.362-5.663-5.274-2.749,6.6-7.74.566,1.262-2.36,2.112-5.911,3.127-7.811-3.068,2.584-4.023,5.663-5.675,8.483-3.728.342-2.372-2.549-2.478-4.507C47,29.924,45.715,37.581,39.45,34.525c-3.02-5.439,3.905-6.407-3.209-6.253,1.05,9.014-6.654-3.433-9.769.555a19.8,19.8,0,0,1-4.141-7.15c-.991-3.1-1.593-6.43-1.026-8.058a21.166,21.166,0,0,1-1.97,9.522c-1.015,1.959-1.841,3.091-2.572,3.28a12.152,12.152,0,0,1,4.7-1.935,79.161,79.161,0,0,1,1.321,9.309,4.85,4.85,0,0,1,4.649-.684,50.3,50.3,0,0,1,5.77,2.714Z" transform="translate(180.996 147.062)" fill="#f2f2f2"/>
      <path id="Path_21139" data-name="Path 21139" d="M20.363,15.729a19.414,19.414,0,0,1,1.675-1.392c-.673-.106-1.18.5-1.675,1.392" transform="translate(219.893 154.696)" fill="#f2f2f2"/>
      <path id="Path_21140" data-name="Path 21140" d="M17.023,17.479l2.23-.236-1.628-4.377Z" transform="translate(183.824 138.937)" fill="#f2f2f2"/>
      <path id="Path_21141" data-name="Path 21141" d="M21.469,14.952c-.979-.177-1.239,2.313-.224,2.49l1.31-3.551Z" transform="translate(222.432 149.999)" fill="#f2f2f2"/>
      <path id="Path_21142" data-name="Path 21142" d="M21.088,14.353c1.015,1.38,2.065,2.678,3.162,3.976l1.085-3.693c-1.439-.106-2.832-.094-4.248-.283" transform="translate(227.722 154.999)" fill="#f2f2f2"/>
      <path id="Path_21143" data-name="Path 21143" d="M28.666,11.857c-5.416-2.867-2.737,2.714-1.628,6.3,5.781,1.015-1.829-4.424,1.628-6.3" transform="translate(274.181 119.503)" fill="#f2f2f2"/>
      <path id="Path_21144" data-name="Path 21144" d="M29.388,8.771c-2.725,2.277,3.162,4.955,3.787,8.082,2.419-1.675-.307-6.3-3.787-8.082" transform="translate(309.622 94.721)" fill="#f2f2f2"/>
      <path id="Path_21145" data-name="Path 21145" d="M26.673,15.676c1.5-.79,2.7-.79,2.324-2.171a71.973,71.973,0,0,1,8.495-4.4c-.932-5.309-8.058,3.728-10.819,6.572" transform="translate(288.032 80.607)" fill="#f2f2f2"/>
      <path id="Path_21146" data-name="Path 21146" d="M24.079,18.364l14.442-3.811-6.159-.094c5-3.481,7.587-5.675,12.7-7.764-8.023.956-18.111,5.109-20.978,11.669" transform="translate(260.02 72.303)" fill="#f2f2f2"/>
      <path id="Path_21147" data-name="Path 21147" d="M27.77,6.667c-.5.012-1.038.035-1.64.047.106,1.168-.142,2.513,1.64-.047" transform="translate(282.168 72)" fill="#f2f2f2"/>
      <path id="Path_21148" data-name="Path 21148" d="M27.473,7.256a9.239,9.239,0,0,1-1.616.673A6.157,6.157,0,0,0,27.9,7.811l1.168-.165c-.047-.885-.307-1.675-1.593-.389" transform="translate(279.22 71.069)" fill="#f2f2f2"/>
      <path id="Path_21149" data-name="Path 21149" d="M49.366,7.464,21,13.965l8.306.083c9.415-7.28,9.864,1.085,20.058-6.584" transform="translate(226.793 80.607)" fill="#f2f2f2"/>
      <path id="Path_21150" data-name="Path 21150" d="M19.215,32.1l22.5-10.017c1.935-1.428,3.8-2.808,5.734-4.236,1.77-1.369,2.737-2.289,4.059-3.457,2.643-2.124,4.094-4.778,8.483-6.218,1.935-.85,3.929-1.723,5.947-2.619l1.569-.673L67.9,4.71,68,4.663l.047-.024h.024L74.22,3.483h-.012l-.035.012-.118.035-.743.354a14.2,14.2,0,0,0-3.469,3.256,12.875,12.875,0,0,0-1.7,2.3A8.063,8.063,0,0,0,69.17,7.259c-.5,1.616-1.628,2.843-2.23,4.023-.307.625-.543,1.1-.8,1.616-.566.861,1.2-2.053,2.431-4.141,1.557-2.348,4.719-5.274,5.427-5.2l.212-.071h.012c1.994-.378-17.391,3.245-9.191,1.723l-.035.012-.071.024-.248.094-.507.189-1,.378-2.018.755-4.011,1.51c-2.678,1.015-5.345,2.006-7.964,3-2.254,1.168-3.764,2.666-5.675,3.953-1.829,1.345-3.634,2.655-5.392,3.941q-3.1,2.195-6.053,4.283c-4.59,3.127-8.884,6.053-12.837,8.755" transform="translate(207.496 37.322)" fill="#f2f2f2"/>
      <path id="Path_21151" data-name="Path 21151" d="M26.312,7.655c1.121-1.321.649-2.737.413-4.389-1.628-1.1-3.988,1.026-3.469,3.481,2.843-6.749.637,4.814,3.056.908" transform="translate(250.343 32.066)" fill="#f2f2f2"/>
      <path id="Path_21152" data-name="Path 21152" d="M23.077,5.6c1.4-.448,3.386-1.51.9-2.36-4.483,1.416-1.487,7.315-2.195,11.35,3.8,2.159,4.613-6.713,1.3-8.991" transform="translate(231.585 35.037)" fill="#f2f2f2"/>
      <path id="Path_21153" data-name="Path 21153" d="M16.393,7.41c4.295,2.218,7.528-2.714,7.362-4.873-.732,2.029-4.106,3.894-7.362,4.873" transform="translate(177.022 27.402)" fill="#f2f2f2"/>
      <path id="Path_21154" data-name="Path 21154" d="M21.631,10.695c.519-.142,1.085-.248,1.652-.342C21.726,8.465,20.2,6.518,18.729,4.536c.908,2.136,1.805,4.13,2.9,6.159" transform="translate(202.248 48.988)" fill="#f2f2f2"/>
      <path id="Path_21155" data-name="Path 21155" d="M21.319,6.9,15.585,4.906l2.737,5Z" transform="translate(168.296 52.981)" fill="#f2f2f2"/>
      <path id="Path_21156" data-name="Path 21156" d="M19.107,9.426,16.7,4.105l-.991,2.643c-.307,3.174,2.608.967,3.4,2.678" transform="translate(169.388 44.334)" fill="#f2f2f2"/>
      <path id="Path_21157" data-name="Path 21157" d="M16.069,2.958c.59,1-.059,1.734-.72,2.5a36.428,36.428,0,0,0,4.578,5.7,39.42,39.42,0,0,1-3.858-8.2" transform="translate(165.748 31.948)" fill="#f2f2f2"/>
      <path id="Path_21158" data-name="Path 21158" d="M14.072,7.506c-4.354-2.666-2.714,4.212-4.141,5.876,1.133.448,7.94-2.136,4.141-5.876" transform="translate(107.241 74.501)" fill="#f2f2f2"/>
    </g>
  </g>
</svg>
