<svg id="Layer_1" data-name="Layer 1" xmlns="http://www.w3.org/2000/svg" xmlns:xlink="http://www.w3.org/1999/xlink" width="286" height="232" viewBox="0 0 286 232">
  <defs>
    <style>
      .cls-1 {
        fill: none;
      }

      .cls-2 {
        fill: #f90000;
      }

      .cls-3 {
        fill: #6fb1fc;
      }

      .cls-4 {
        clip-path: url(#clip-path);
      }

      .cls-5 {
        fill: #df2e2d;
      }

      .cls-5, .cls-6 {
        fill-rule: evenodd;
      }

      .cls-6 {
        fill: #fff;
      }

      .cls-7 {
        fill: #fdbd10;
      }
    </style>
    <clipPath id="clip-path">
      <rect id="SVGID" class="cls-1" x="1" y="40" width="217.49" height="44.59"/>
    </clipPath>
  </defs>
  <title>sprite</title>
  <g id="call">
    <path id="Path_59242" data-name="Path 59242" class="cls-2" d="M3.31,4.41l.58-.26a.84.84,0,0,0,.44-1.1s0,0,0,0a.85.85,0,0,0-.17-.25L3,1.67a.84.84,0,0,0-1.19,0h0a1.33,1.33,0,0,0-.14.19l-.16.29a4.26,4.26,0,0,0,.18,4.42A9.05,9.05,0,0,0,2.93,8.09,10,10,0,0,0,4.51,9.32a4.32,4.32,0,0,0,4.3.18l.32-.17A.83.83,0,0,0,9.49,8.2h0A.9.9,0,0,0,9.34,8L8.23,6.88A.84.84,0,0,0,7,6.84l0,0a.78.78,0,0,0-.16.24l-.26.56a.57.57,0,0,1-.69.3A4.3,4.3,0,0,1,3,5.1a.56.56,0,0,1,.3-.7Z"/>
    <path id="Path_59243" data-name="Path 59243" class="cls-2" d="M5.41,3.88A2,2,0,0,1,7.12,5.59a.42.42,0,0,0,.41.35h.06a.41.41,0,0,0,.35-.46h0A2.84,2.84,0,0,0,5.53,3.06a.41.41,0,0,0-.15.81h0Z"/>
    <path id="Path_59244" data-name="Path 59244" class="cls-2" d="M7.92,3.07A4.5,4.5,0,0,1,9.18,5.59a.42.42,0,0,0,.41.35.4.4,0,0,0,.33-.17.4.4,0,0,0,.07-.3A5.25,5.25,0,0,0,5.53,1a.42.42,0,0,0-.48.33.41.41,0,0,0,.33.48h0A4.5,4.5,0,0,1,7.92,3.08Z"/>
  </g>
  <path id="Path_144" data-name="Path 144" class="cls-3" d="M10,13.08a8.91,8.91,0,0,0-1.5,17.7V23.86H6.31V21.37H8.46V19.53a3,3,0,0,1,2.69-3.28,2.9,2.9,0,0,1,.51,0,17.64,17.64,0,0,1,1.92.1v2.23H12.26c-1,0-1.23.5-1.23,1.21v1.59H13.5l-.33,2.49H11v7a8.92,8.92,0,0,0-1-17.78Z"/>
  <g id="youtube">
    <path id="Path_152-2" data-name="Path 152-2" class="cls-3" d="M31.91,23.76l2.77-1.68L31.91,20.4Z"/>
    <path id="Path_153-2" data-name="Path 153-2" class="cls-3" d="M33,13.08a8.77,8.77,0,0,0-8.51,9,8.75,8.75,0,0,0,8.49,9h0a8.76,8.76,0,0,0,8.5-9h0A8.76,8.76,0,0,0,33,13.08Zm5.31,9a16.3,16.3,0,0,1-.22,2.7,1.37,1.37,0,0,1-1,1A31.05,31.05,0,0,1,33,26a28.94,28.94,0,0,1-4.16-.24,1.37,1.37,0,0,1-.95-1,16.93,16.93,0,0,1,0-5.41,1.39,1.39,0,0,1,.95-1A32.11,32.11,0,0,1,33,18.14a30.45,30.45,0,0,1,4.16.23,1.4,1.4,0,0,1,1,1,15.45,15.45,0,0,1,.13,2.72Z"/>
  </g>
  <g>
    <path id="Path_145-2" data-name="Path 145-2" class="cls-3" d="M57.42,17.65H52.33a1.52,1.52,0,0,0-1.48,1.56h0V24.6a1.52,1.52,0,0,0,1.48,1.56h5.09a1.52,1.52,0,0,0,1.47-1.56h0V19.21A1.52,1.52,0,0,0,57.42,17.65Zm-2.55,7a2.8,2.8,0,1,1,2.65-2.95v.15a2.72,2.72,0,0,1-2.64,2.8Zm2.73-5a.67.67,0,1,1,.63-.71v0h0A.64.64,0,0,1,57.6,19.65Z"/>
    <path id="Path_146-2" data-name="Path 146-2" class="cls-3" d="M54.87,20.28A1.63,1.63,0,1,0,56.4,22v-.1h0a1.58,1.58,0,0,0-1.52-1.62h0Z"/>
    <path id="Path_147-2" data-name="Path 147-2" class="cls-3" d="M54.87,12.88a8.76,8.76,0,0,0-8.5,9,8.51,8.51,0,0,0,17,.82c0-.27,0-.55,0-.82h0a8.76,8.76,0,0,0-8.49-9h0ZM60,24.58a2.67,2.67,0,0,1-2.59,2.74H52.34a2.67,2.67,0,0,1-2.58-2.74V19.22a2.68,2.68,0,0,1,2.58-2.73H57.4A2.67,2.67,0,0,1,60,19.22h0Z"/>
  </g>
  <g class="cls-4">
    <g id="Group_1064" data-name="Group 1064">
      <path id="Path_907" data-name="Path 907" class="cls-5" d="M16.63,40.13,1,84.59H45.27s3.56-9.45,3.66-10h-7c.38-.25,3.71-1.18,5.89-3.89,4-4.91.05-10.36.05-10.36s6.93-3.1,9-7.71.46-9.6-5.38-11.54c-4.83-1.59-34.91-.95-34.91-.95"/>
      <path id="Path_908" data-name="Path 908" class="cls-5" d="M29.43,68.82c3.23.17,5.88-.72,7.7-3.33s-.4-7.6-.4-7.6,7-1.45,7.68-5.15c.77-4.23-6.17-3.21-8.2-3.18Z"/>
      <path id="favicon" class="cls-6" d="M39.34,58.56s3.42,4.63-.44,9C36.51,70.3,31.69,69.86,27,69.86l7.14-20.3H26L17.12,74.67s14.85.39,23.07-1.88c3.46-1,5.58-2.65,6.45-4.67,1.77-4.09-1.48-8.75-1.48-8.75s14.06-5.94,9.69-13.5c-2.4-4.16-13.12-3.82-18-3.82H18c-4.74,13.58-9.41,27-14.26,40.56H44l2.1-6H14.36c3.29-9.74,6.72-19.35,10.13-29l11,0c2.95.07,9.25-.68,10.3,2.42,2.14,6.35-6.42,8.53-6.42,8.53"/>
      <path id="Path_910" data-name="Path 910" class="cls-7" d="M84,43.35c-.89,3.32,3.11,1.46,1.87,6.07,3.68.19,3.42,2.95,2.77,5.37l-2,7.37c-1.37,5.14-2.43,6-7.5,6H77c-4.36,0-5.8-.6-4.34-6l2-7.45c1.12-4.17,3.09-5.4,7.44-5.4,1-3.57-3.32-1.64-2.21-5.77l.22-.82a1.12,1.12,0,0,1,1.08-.86h2.31c.67,0,.76.38.63.86ZM76.71,62.24C76.2,64.55,76.43,65,78.48,65h.78c2.23,0,2.71-.38,3.39-2.91l1.8-6.74c.57-2.12.53-2.68-1.93-2.68h-.63c-2.34,0-2.75.52-3.25,2.42Z"/>
      <path id="Path_911" data-name="Path 911" class="cls-7" d="M92,67.08l5.27-19.67c1.09-4.06,2.71-5.81,7.11-5.81h2.45c5,0,4.86,2.61,3.94,6l-5.21,19.44a1,1,0,0,1-1.09.86h-2.2c-.56,0-.76-.38-.63-.86l5.27-19.67c.52-1.93.34-2.64-1.56-2.64h-1.19c-1.94,0-2.44.63-3,2.87L95.86,67.08a1,1,0,0,1-1.09.86h-2.2c-.56,0-.75-.38-.62-.86"/>
      <path id="Path_912" data-name="Path 912" class="cls-7" d="M125.13,67.08a1,1,0,0,1-1.08.86h-6.18c-5.37,0-5.58-1.72-4.43-6l3.82-14.27c1.37-5.1,3.23-6.07,7.36-6.07h2.54c4,0,5.53.74,4.06,6.26l-3,11a1.11,1.11,0,0,1-1.08.86H124.9c-.67,0-.75-.37-.62-.86l3-11.32c.52-1.94.46-2.68-1.44-2.68h-1.64c-1.94,0-2.41.78-3,2.9l-3.76,14c-.56,2.08-.57,2.83,1.55,2.83h5.88c.49,0,.78.3.63.86Z"/>
      <path id="Path_913" data-name="Path 913" class="cls-7" d="M132.73,67.08,138,47.41c1.09-4.06,2.71-5.81,7.11-5.81h2.46c5,0,4.85,2.61,3.93,6l-5.21,19.44a1,1,0,0,1-1.08.86H143c-.56,0-.76-.38-.63-.86l5.27-19.67c.52-1.93.34-2.64-1.56-2.64H144.9c-1.94,0-2.44.63-3,2.87l-5.21,19.44a1,1,0,0,1-1.09.86h-2.2c-.56,0-.76-.38-.63-.86"/>
      <path id="Path_914" data-name="Path 914" class="cls-7" d="M163.29,60.49c-.56,0-.76-.38-.63-.86l3.2-12c.56-2.08.36-2.72-.94-2.72s-2.2.26-2.75,2.35l-5.31,19.78a1,1,0,0,1-1.08.86h-2.24c-.55,0-.75-.38-.62-.86l5.34-19.93c1.3-4.84,4.28-5.55,7.26-5.55,2.2,0,2.95.78,3.39,1.94h.19a6,6,0,0,1,4.13-1.94c3.16,0,6.16.08,4.63,5.78l-5.28,19.7a1,1,0,0,1-1.08.85h-2.28c-.55,0-.75-.37-.62-.85l.1-.38,5.07-18.81c.76-2.83.23-2.94-1.4-2.94-1.46,0-1.94,1-2.39,2.65l-3.22,12a1,1,0,0,1-1.09.85Z"/>
      <path id="Path_915" data-name="Path 915" class="cls-7" d="M196.76,45h-6c-1.45,0-1.81.79-2.33,2.72L187.78,50a6,6,0,0,1,2.94-.67H192c5,0,4.91,2,3.93,5.63l-2,7.41c-1.25,4.66-2.65,5.85-7.3,5.85h-1.9c-4.66,0-5.38-1.34-4.22-5.67L184.66,47c1.09-4.06,2.88-5.18,6.9-5.18h6c.48,0,.8.19.62.86l-.37,1.38a1.09,1.09,0,0,1-1.08.85m-12.3,17.4c-.59,2.2-.39,2.68,1.7,2.68h.63c2,0,2.57-.26,3.2-2.64l2-7.49c.51-1.9.16-2.42-1.62-2.42h-1c-2.28,0-2.5.82-2.94,2.5Z"/>
      <path id="Path_916" data-name="Path 916" class="cls-7" d="M199.22,67.08l5.26-19.67c1.09-4.06,2.72-5.81,7.11-5.81h2.46c5,0,4.85,2.61,3.93,6l-5.21,19.44a1,1,0,0,1-1.08.86h-2.2c-.56,0-.76-.38-.63-.86l5.27-19.67c.52-1.93.33-2.64-1.57-2.64h-1.19c-1.93,0-2.44.63-3,2.87l-5.21,19.44a1,1,0,0,1-1.08.86h-2.2c-.56,0-.76-.38-.63-.86"/>
      <path id="Path_917" data-name="Path 917" class="cls-7" d="M91.5,81.59,93,73.1a.42.42,0,0,1,.43-.38h1a.3.3,0,0,1,.31.25.28.28,0,0,1,0,.13l-1.49,8.45c-.16.93-.12,1.27.7,1.27h.54c.8,0,1-.33,1.11-1.18l.9-5.12a.4.4,0,0,1,.43-.37h1a.28.28,0,0,1,.32.25.25.25,0,0,1,0,.12l-.88,5c-.42,2.42-1.2,2.74-2.9,2.74h-.92c-1.75,0-2.35-.42-2-2.66"/>
      <path id="Path_918" data-name="Path 918" class="cls-7" d="M101.11,73.1a.43.43,0,0,1,.43-.38h.69a1.38,1.38,0,0,1,1.38.85h.06a2.27,2.27,0,0,1,1.84-1c1.26,0,2.39.31,2,2.43l-1.19,6.72c-.35,2-1.23,2.49-2.79,2.49h-1.2c-2,0-2.51-.29-2.1-2.61l.3-1.7a.42.42,0,0,1,.43-.37h1c.28,0,.33.16.3.37L102,81.52c-.18,1-.09,1.29.65,1.29h1c.68,0,.88-.32,1-1.19l1.15-6.52c.16-.91-.13-1-.67-1s-.76.28-.92,1.19l-.35,2a.42.42,0,0,1-.42.37h-1c-.28,0-.33-.16-.3-.37l.33-1.9c.13-.73.11-1.15-.5-1.15h-.67c-.21,0-.35-.08-.3-.38Z"/>
      <path id="Path_919" data-name="Path 919" class="cls-7" d="M113.81,73.31c-.22,1.26,2.36,1.57,2.09,3.08l-.11.62a1.92,1.92,0,0,1-1.11,1.54v.08a1.54,1.54,0,0,1,.72,1.55l-.28,1.58c-.35,2-1.23,2.49-2.79,2.49h-1.2c-2,0-2.5-.29-2.11-2.61l.29-1.7a.42.42,0,0,1,.43-.37h1c.28,0,.33.16.3.37l-.27,1.59c-.18,1-.32,1.28.66,1.28h1c.67,0,.87-.32,1-1.19l.21-1.17c.17-1,0-1.19-.78-1.19h-.25a.2.2,0,0,1-.23-.17.14.14,0,0,1,0-.09l.17-1a.27.27,0,0,1,.31-.22c1,0,1.12-.21,1.23-.8l.1-.53c.22-1.24-2.42-.92-2-3.18l0-.22a.43.43,0,0,1,.43-.37h.93c.28,0,.35.16.31.37Z"/>
      <path id="Path_920" data-name="Path 920" class="cls-7" d="M119.48,81.53c-.18,1-.08,1.28.66,1.28H121c.68,0,.87-.32,1-1.18l1.14-6.5c.15-.83,0-1.06-.9-1.06h-.42c-.67,0-1,.31-1.12,1.08l-.09.47a.4.4,0,0,1-.42.38h-.95a.29.29,0,0,1-.3-.38l.06-.37c.4-2.24,1.3-2.64,3-2.64h.57c2.3,0,2.61.63,2.29,2.46l-1.18,6.68c-.35,2-1.23,2.5-2.78,2.5h-1.08c-2,0-2.51-.3-2.1-2.61l.28-1.7a.43.43,0,0,1,.43-.38h1c.29,0,.34.17.3.38Z"/>
      <path id="Path_921" data-name="Path 921" class="cls-7" d="M135.34,73.74a.42.42,0,0,1-.42.37h-4a1.49,1.49,0,0,0-1.56,1.41v0l-.14.83A2,2,0,0,1,130.3,76c.8,0,1.14.31,1.31.78h.08a2,2,0,0,1,1.6-.78c1.34,0,2.61,0,2.17,2.52l-.93,5.25a.39.39,0,0,1-.42.37h-1a.28.28,0,0,1-.32-.25.25.25,0,0,1,0-.12l0-.16.88-4.86c.22-1.24,0-1.29-.7-1.29s-.79.42-.91,1.16l-.48,2.7a.41.41,0,0,1-.43.38h-1a.29.29,0,0,1-.3-.38l.47-2.67c.16-.91.05-1.19-.5-1.19s-.92.11-1.08,1l-.92,5.28a.39.39,0,0,1-.42.37h-1a.28.28,0,0,1-.31-.25.49.49,0,0,1,0-.12l1.47-8.33A3.09,3.09,0,0,1,131,72.72h4.14c.2,0,.35.08.3.37Z"/>
      <path id="Path_922" data-name="Path 922" class="cls-7" d="M138.85,74.85c.25-1.52,1.05-2.24,2.82-2.24h1.06c2,0,2.23,1.08,1.92,2.85l-1.12,6.33c-.35,2-1.05,2.46-2.94,2.46h-.9c-1.72,0-2.46-.24-2-2.61l.58-3.31c.33-1.89,1.06-2.34,3.12-2.34h.47a1.55,1.55,0,0,1,1,.32l.2-1.14c.16-.91-.11-1.09-.69-1.09h-.74a1,1,0,0,0-1.07.76.4.4,0,0,1-.42.38h-.93a.29.29,0,0,1-.32-.25.3.3,0,0,1,0-.13m.51,6.72c-.22,1.24.1,1.26.9,1.26h.29c.88,0,1.13-.17,1.34-1.36l.51-2.93c.15-.85,0-1.09-.87-1.09h-.37c-1,0-1.13.32-1.27,1.12Z"/>
      <path id="Path_923" data-name="Path 923" class="cls-7" d="M150.7,73.46c-.32,1.78,2.08,3.2,1.62,5.8l-.45,2.43c-.34,1.88-.76,2.56-3,2.56h-.65c-1.65,0-2.45-.29-2.13-2.12l.39-2.19a.42.42,0,0,1,.43-.37h.92c.29,0,.34.16.3.37l-.3,1.73c-.16.92-.15,1.19.67,1.19h.57c.68,0,.93-.2,1.09-1.09l.46-2.51c.42-2.49-2-3.42-1.63-5.79l.07-.37a.42.42,0,0,1,.43-.38h.92c.29,0,.34.17.3.38Z"/>
      <path id="Path_924" data-name="Path 924" class="cls-7" d="M163.47,73.74a.43.43,0,0,1-.43.37h-4a1.49,1.49,0,0,0-1.56,1.41v0l-.15.83a2.07,2.07,0,0,1,1.12-.39c.8,0,1.15.31,1.31.78h.08a2.05,2.05,0,0,1,1.6-.78c1.34,0,2.61,0,2.17,2.52l-.92,5.25a.4.4,0,0,1-.43.37h-1a.27.27,0,0,1-.31-.25.25.25,0,0,1,0-.12l0-.16.87-4.86c.22-1.24,0-1.29-.7-1.29s-.78.42-.91,1.16l-.48,2.7a.4.4,0,0,1-.42.38h-1a.29.29,0,0,1-.32-.25.27.27,0,0,1,0-.13l.47-2.67c.16-.91,0-1.19-.5-1.19s-.92.11-1.08,1L156,83.76a.39.39,0,0,1-.42.37h-1a.28.28,0,0,1-.32-.25.25.25,0,0,1,0-.12l1.47-8.33a3.08,3.08,0,0,1,3.32-2.71h4.15c.2,0,.34.08.3.37Z"/>
      <path id="Path_925" data-name="Path 925" class="cls-7" d="M172.81,72.73c.28,0,.33.16.3.37l-.31,1.78a3.11,3.11,0,0,1-1.23,1.78v.08a1.16,1.16,0,0,1,.68,1.3l-.62,3.52c-.39,2.17-1,2.69-3,2.69h-1c-1.91,0-2.4-.51-2-2.64l.3-1.67a.42.42,0,0,1,.42-.37h1c.28,0,.33.16.3.37l-.28,1.58c-.18,1-.07,1.29.8,1.29h.41c.82,0,1.15-.08,1.34-1.19l.57-3.2c.15-.86.08-1-.91-1h-.71c-.2,0-.35-.08-.3-.37l.12-.7a.43.43,0,0,1,.43-.38h.69c1,0,1.15-.28,1.31-1.19l.3-1.7a.43.43,0,0,1,.43-.37Z"/>
      <path id="Path_926" data-name="Path 926" class="cls-7" d="M176,81.53c-.18,1-.08,1.28.66,1.28h.88c.68,0,.87-.32,1-1.18l1.14-6.5c.15-.83.05-1.06-.9-1.06h-.42c-.67,0-1,.31-1.12,1.08l-.09.47a.4.4,0,0,1-.42.38h-1a.28.28,0,0,1-.31-.25.29.29,0,0,1,0-.13l.07-.37c.39-2.24,1.3-2.64,3-2.64h.56c2.3,0,2.61.63,2.29,2.46l-1.18,6.68c-.34,2-1.22,2.5-2.78,2.5h-1.07c-2,0-2.52-.3-2.11-2.61l.28-1.7a.43.43,0,0,1,.43-.38h1c.28,0,.33.17.3.38Z"/>
      <path id="Path_927" data-name="Path 927" class="cls-7" d="M189.29,72.84h.25c1.83,0,2.65,1,2.34,2.71l-1,6a3.08,3.08,0,0,1-3.33,2.7h-1.94c-1.82,0-2.68-1-2.37-2.7l1.06-6a3.08,3.08,0,0,1,3.32-2.71h.3l0-.15a.37.37,0,0,1,.42-.31H189c.28,0,.35.1.31.31Zm-4.43,8.59c-.18,1.06.29,1.44,1.06,1.44h1.71a1.49,1.49,0,0,0,1.56-1.41v0l1-5.77c.19-1.06-.2-1.43-1-1.43l-.28,0a10.46,10.46,0,0,1-.14,1.24l-.56,3.44a.41.41,0,0,1-.43.4h-.76a.31.31,0,0,1-.29-.4l.65-3.43c.08-.42.17-.84.29-1.25l-.28,0a1.47,1.47,0,0,0-1.56,1.4v0Z"/>
      <path id="Path_928" data-name="Path 928" class="cls-7" d="M193.25,83.76l1.52-8.61c.32-1.77.94-2.54,2.8-2.54h1c2.13,0,2.14,1.14,1.88,2.64L199,83.76a.4.4,0,0,1-.42.38h-.94a.28.28,0,0,1-.31-.25.29.29,0,0,1,0-.13l1.52-8.61c.15-.84.05-1.15-.76-1.15h-.5c-.82,0-1,.27-1.18,1.25l-1.5,8.51a.4.4,0,0,1-.42.38h-.94a.28.28,0,0,1-.31-.25.29.29,0,0,1,0-.13"/>
    </g>
  </g>
</svg>
