<svg xmlns="http://www.w3.org/2000/svg" width="56.35" height="53.689" viewBox="0 0 56.35 53.689">
  <g id="about-follow" transform="translate(-132.806 -73.068)">
    <path id="Path_59128" data-name="Path 59128" d="M184.126,103.207H170.637a5.036,5.036,0,0,0-5.031,5.031v13.489a5.036,5.036,0,0,0,5.031,5.031h13.49a5.036,5.036,0,0,0,5.029-5.031V108.237a5.037,5.037,0,0,0-5.03-5.03Zm-1.694,13.322h-3.5v3.5a1.548,1.548,0,1,1-3.1,0v-3.5h-3.5a1.548,1.548,0,0,1,0-3.1h3.5v-3.5a1.548,1.548,0,1,1,3.1,0v3.5h3.5a1.548,1.548,0,0,1,0,3.1Zm-19.921-8.292v13.489a8.082,8.082,0,0,0,1.752,5.024c-.061,0-.122.007-.184.007H145.1a12.3,12.3,0,0,1-12.29-12.29V110a16.855,16.855,0,0,1,13.679-16.466,13.138,13.138,0,0,0,16.2,0,16.819,16.819,0,0,1,10.421,6.571h-2.468a8.136,8.136,0,0,0-8.126,8.125ZM144.5,83.151a10.084,10.084,0,1,1,10.084,10.084A10.095,10.095,0,0,1,144.5,83.151Z" transform="translate(0 0)" fill="#fdbd10" fill-rule="evenodd"/>
  </g>
</svg>
