<svg xmlns="http://www.w3.org/2000/svg" width="52.868" height="47.391" viewBox="0 0 52.868 47.391">
  <g id="about-like" transform="translate(-82.259 -40.003)">
    <path id="Path_59163" data-name="Path 59163" d="M135.105,61.024c.329-3.723-3.142-4.81-4.519-4.81q-8.008,0-16.018,0c.769-1.673,1.706-6.107.525-12.217-.466-2.415-1.891-4.022-3.707-3.99a3.085,3.085,0,0,0-3.007,2.56,46.8,46.8,0,0,1-.9,5.255c-1.15,4.815-7.3,11.171-11.19,13.389V84.727a16.312,16.312,0,0,0,8.556,1.955c4.828-.092,18.618-.012,21.117-.028a4.539,4.539,0,0,0,4.38-2.99c1.159-2.914-1.828-4.372-1.828-4.372s3.27.162,4.018-2.772c.767-3.011-2.242-4.2-2.242-4.2,2.035-.222,3.337-.752,3.83-2.586.579-2.16-.811-3.782-3.01-4.721a4.506,4.506,0,0,0,3.995-3.984ZM92.9,57.469H83.918a1.659,1.659,0,0,0-1.659,1.659V85.735a1.659,1.659,0,0,0,1.659,1.659H92.9a1.659,1.659,0,0,0,1.659-1.659V59.128A1.658,1.658,0,0,0,92.9,57.469Z" transform="translate(0 0)" fill="#fdbd10" fill-rule="evenodd"/>
  </g>
</svg>
