<svg xmlns="http://www.w3.org/2000/svg" width="52.98" height="58.798" viewBox="0 0 52.98 58.798">
  <g id="about-staff" transform="translate(-110.319 -13.999)">
    <path id="Path_59232" data-name="Path 59232" d="M136.623,230.839h2.785a6.956,6.956,0,0,1,5.013-5.447,15.76,15.76,0,0,0-7.86-6.994,14.257,14.257,0,0,1-8.17,2.6,13.816,13.816,0,0,1-8.17-2.6,15.745,15.745,0,0,0-9.9,14.607v6.437a2.747,2.747,0,0,0,2.723,2.723h18.073a3.632,3.632,0,0,1-.247-1.423v-4.085a5.8,5.8,0,0,1,5.756-5.818Z" transform="translate(0 -181.808)" fill="#fdbd10"/>
    <path id="Path_59233" data-name="Path 59233" d="M186.671,35.6A10.8,10.8,0,1,0,175.84,24.83,10.8,10.8,0,0,0,186.671,35.6Z" transform="translate(-58.279)" fill="#fdbd10"/>
    <path id="Path_59234" data-name="Path 59234" d="M355.463,454.761h-2.228a3.212,3.212,0,0,1-3.219-3.095,67.736,67.736,0,0,1-8.417-.866v7.86a2.629,2.629,0,0,0,2.6,2.661h20.239a2.641,2.641,0,0,0,2.661-2.661v-7.8a67.035,67.035,0,0,1-8.417.8A3.171,3.171,0,0,1,355.463,454.761Z" transform="translate(-205.718 -388.525)" fill="#fdbd10"/>
    <path id="Path_59235" data-name="Path 59235" d="M351.412,313.695h-5.818v-1.919A3.791,3.791,0,0,0,341.819,308h-4.828a3.791,3.791,0,0,0-3.775,3.775v1.919H327.4a2.576,2.576,0,0,0-2.6,2.6v4.085a.735.735,0,0,0,.619.743,67.222,67.222,0,0,0,9.717,1.114,3.2,3.2,0,0,1,3.219-3.219h2.228a3.2,3.2,0,0,1,3.219,3.219,65.245,65.245,0,0,0,9.655-1.114.735.735,0,0,0,.619-.743v-4.085a2.63,2.63,0,0,0-2.662-2.6Zm-9.036-.247h-5.942v-1.671a.554.554,0,0,1,.557-.557h4.828a.554.554,0,0,1,.557.557Z" transform="translate(-190.774 -261.508)" fill="#fdbd10"/>
    <path id="Path_59236" data-name="Path 59236" d="M442.135,433.481a.846.846,0,0,0,.866-.866v-2.228a.846.846,0,0,0-.866-.866h-2.228a.846.846,0,0,0-.867.866v2.228a.846.846,0,0,0,.867.866Z" transform="translate(-292.39 -369.597)" fill="#fdbd10"/>
  </g>
</svg>
