<svg xmlns="http://www.w3.org/2000/svg" width="60.76" height="56.126" viewBox="0 0 60.76 56.126">
  <g id="about.cart" transform="translate(0 0)">
    <path id="Path_22258" data-name="Path 22258" d="M132.878,76.262h9.771l4.509,11.975h39.065l.5-1.209a2.365,2.365,0,0,1,4.364,1.821L180.6,113.943h-28.8L139.376,80.992h-6.5a2.365,2.365,0,1,1,0-4.729ZM180.9,100.981l.445-1.07H180.9Zm0-2.493h1.038l1.552-3.707H180.9Zm0-5.122h3.182l1.552-3.713H180.9Zm-5.512,15.846h2.071l1.745-4.18h-3.816Zm0-5.6h4.092v-3.7h-4.092Zm0-5.124h4.092V94.78h-4.092Zm0-5.122h4.092V89.653h-4.092Zm-5.516,15.846h4.094v-4.18h-4.094Zm0-5.6h4.094v-3.7h-4.094Zm0-5.124h4.094V94.78h-4.094Zm0-5.122h4.094V89.652h-4.094Zm-5.513,15.846h4.094v-4.18h-4.094Zm0-5.6h4.094v-3.7h-4.094Zm0-5.124h4.094V94.779h-4.094Zm0-5.122h4.094V89.652h-4.094Zm-5.516,15.846h4.1v-4.18h-4.1Zm0-5.6h4.1v-3.7h-4.1Zm0-5.124h4.1V94.779h-4.1Zm0-5.122h4.1V89.651h-4.1Zm-3.777,15.846h2.362v-4.18h-3.935Zm-1.735-5.6h4.1v-3.7h-4.1Zm0-5.124h4.1V94.778h-4.1Zm0-5.122h4.1V89.651h-4.1Zm-1.419,7.476v-.931h-.35Zm-.886-2.354h.886V94.778h-2.283Zm-1.936-5.122h2.821V89.651h-4.212Z" transform="translate(-130.513 -76.262)" fill="#fdbd10"/>
    <path id="Path_22259" data-name="Path 22259" d="M183.846,380.05a6.937,6.937,0,1,1-6.934,6.932A6.934,6.934,0,0,1,183.846,380.05Z" transform="translate(-136.47 -337.799)" fill="#fdbd10"/>
    <path id="Path_22260" data-name="Path 22260" d="M344.7,380.05a6.937,6.937,0,1,1-6.928,6.932A6.935,6.935,0,0,1,344.7,380.05Z" transform="translate(-319.7 -337.799)" fill="#fdbd10"/>
  </g>
</svg>
