<svg xmlns="http://www.w3.org/2000/svg" width="45.66" height="45.56" viewBox="0 0 45.66 45.56">
  <g id="about-products" transform="translate(-81.67 -12.838)">
    <path id="Path_59237" data-name="Path 59237" d="M189.481,26.7h4.556a8.652,8.652,0,0,0,.5-6.735,4.577,4.577,0,0,0-2.179-2.674,5.213,5.213,0,0,1,.991-1.387l.2.2a12.157,12.157,0,0,1,3.169,5.745A15.912,15.912,0,0,1,197.3,26.7h1.09a19.879,19.879,0,0,0,.4-2.377,9.316,9.316,0,0,0-.1-2.872c-.1-.595-.3-1.189-.4-1.783-.1-.2-.1-.4-.2-.594v-.5a.5.5,0,0,1,.99,0V26.7h8.221l1.783-1.882V16.4l-.891-2.575h.1a.5.5,0,0,0,0-.99h-9.9a.5.5,0,1,0,0,.99h.2L197.4,16.4v1.288a4.854,4.854,0,0,0-1.189-1.288,4.087,4.087,0,0,0-1.288-.991,1.674,1.674,0,0,0-.991-.3,10.4,10.4,0,0,1,1.089-.792c.2-.1.2-.3.1-.5a.362.362,0,0,0-.5-.2A8.371,8.371,0,0,0,191.56,16.9a5.134,5.134,0,0,0-6.735,2.575c-.2.594-.3,1.189-.5,1.684Z" transform="translate(-93.945 0)" fill="#fdbd10"/>
    <path id="Path_59238" data-name="Path 59238" d="M113.93,108.021c.991.991,2.377,1.189,3.169.3a2.613,2.613,0,0,0-.3-3.466l-7.329-8.023c-.991-.991-2.377-1.189-3.169-.3a2.614,2.614,0,0,0,.3,3.466Z" transform="translate(-22.059 -76.067)" fill="#fdbd10"/>
    <path id="Path_59239" data-name="Path 59239" d="M458.313,108.021,465.742,100a2.609,2.609,0,0,0,.3-3.466c-.792-.891-2.179-.693-3.169.3l-7.428,8.023a2.609,2.609,0,0,0-.3,3.466A2.242,2.242,0,0,0,458.313,108.021Z" transform="translate(-341.284 -76.067)" fill="#fdbd10"/>
    <path id="Path_59240" data-name="Path 59240" d="M124.556,199.5h-1.981l-4.16,4.556a4.382,4.382,0,0,1-3.268,1.486,3.6,3.6,0,0,1-2.773-1.189,4.332,4.332,0,0,1-.594-4.853H97.121a4.332,4.332,0,0,1-.594,4.853,3.6,3.6,0,0,1-2.773,1.189,4.771,4.771,0,0,1-3.268-1.486l-4.16-4.556H84.344a2.674,2.674,0,1,0,0,5.348h1.287l4.16,22.483a2.118,2.118,0,0,0,1.981,1.882h25.454a2.117,2.117,0,0,0,1.981-1.882l4.061-22.582h1.387a2.663,2.663,0,0,0,2.674-2.674,2.8,2.8,0,0,0-2.773-2.575ZM96.031,223.863H93.555V209.8H96.13v14.065Zm6.438,0H99.894V209.8h2.575Zm6.438,0h-2.476V209.8h2.575v14.065Zm6.438,0H112.77V209.8h2.575Z" transform="translate(0 -170.813)" fill="#fdbd10"/>
  </g>
</svg>
