<svg xmlns="http://www.w3.org/2000/svg" width="8.999" height="8.991" viewBox="0 0 8.999 8.991">
  <g id="call" transform="translate(-96.619 -23.336)">
    <path id="Path_59242" data-name="Path 59242" d="M98.926,50.346l.583-.263a.841.841,0,0,0,.249-1.361L98.641,47.6a.841.841,0,0,0-1.333.193l-.158.291a4.285,4.285,0,0,0,.177,4.423,9.93,9.93,0,0,0,1.22,1.521,10.072,10.072,0,0,0,1.58,1.222,4.3,4.3,0,0,0,4.3.179l.326-.17a.841.841,0,0,0,.207-1.341l-1.107-1.107a.841.841,0,0,0-1.359.245l-.256.561a.561.561,0,0,1-.689.3,4.325,4.325,0,0,1-2.921-2.879.56.56,0,0,1,.3-.7Z" transform="translate(0 -23.598)" fill="#fff"/>
    <path id="Path_59243" data-name="Path 59243" d="M326.979,140.819a2.014,2.014,0,0,1,1.709,1.709.412.412,0,0,0,.407.354.406.406,0,0,0,.059,0,.411.411,0,0,0,.349-.466A2.838,2.838,0,0,0,327.1,140a.412.412,0,1,0-.117.815Z" transform="translate(-225.948 -114.605)" fill="#fff"/>
    <path id="Path_59244" data-name="Path 59244" d="M329.494,25.411a4.475,4.475,0,0,1,1.256,2.511.412.412,0,0,0,.407.354.413.413,0,0,0,.33-.165.412.412,0,0,0,.078-.305A5.263,5.263,0,0,0,327.1,23.34a.412.412,0,1,0-.117.815,4.474,4.474,0,0,1,2.512,1.256Z" transform="translate(-225.951 0)" fill="#fff"/>
  </g>
</svg>
