<svg xmlns="http://www.w3.org/2000/svg" width="27.205" height="25.13" viewBox="0 0 27.205 25.13">
  <g id="cart-icon" transform="translate(0 0)">
    <path id="Path_22258" data-name="Path 22258" d="M131.572,76.262h4.375l2.019,5.362h17.491l.226-.541a1.059,1.059,0,0,1,1.954.815l-4.7,11.236h-12.9l-5.56-14.754h-2.91a1.059,1.059,0,1,1,0-2.118Zm21.5,11.068.2-.479h-.2Zm0-1.116h.465l.695-1.66h-1.159Zm0-2.293H154.5l.695-1.663h-2.119ZM150.6,91.015h.927l.781-1.871H150.6Zm0-2.508h1.832V86.851H150.6Zm0-2.294h1.832v-1.66H150.6Zm0-2.293h1.832V82.258H150.6Zm-2.47,7.095h1.833V89.144h-1.833Zm0-2.508h1.833V86.85h-1.833Zm0-2.294h1.833v-1.66h-1.833Zm0-2.293h1.833V82.257h-1.833Zm-2.468,7.095H147.5V89.144h-1.833Zm0-2.508H147.5V86.85h-1.833Zm0-2.294H147.5v-1.66h-1.833Zm0-2.293H147.5V82.257h-1.833Zm-2.47,7.095h1.835V89.143H143.2Zm0-2.508h1.835V86.85H143.2Zm0-2.294h1.835v-1.66H143.2Zm0-2.293h1.835V82.257H143.2ZM141.5,91.014h1.057V89.143H140.8Zm-.777-2.508h1.835V86.85h-1.835Zm0-2.294h1.835v-1.66h-1.835Zm0-2.293h1.835V82.257h-1.835Zm-.635,3.347V86.85h-.157Zm-.4-1.054h.4v-1.66H139.07Zm-.867-2.293h1.263V82.257h-1.886Z" transform="translate(-130.513 -76.262)" fill="#fdbd10"/>
    <path id="Path_22259" data-name="Path 22259" d="M180.017,380.05a3.106,3.106,0,1,1-3.1,3.1A3.1,3.1,0,0,1,180.017,380.05Z" transform="translate(-158.804 -361.132)" fill="#fdbd10"/>
    <path id="Path_22260" data-name="Path 22260" d="M340.876,380.05a3.106,3.106,0,1,1-3.1,3.1A3.1,3.1,0,0,1,340.876,380.05Z" transform="translate(-329.681 -361.132)" fill="#fdbd10"/>
  </g>
</svg>
