<svg xmlns="http://www.w3.org/2000/svg" width="15.201" height="26.589" viewBox="0 0 15.201 26.589">
  <path id="eat-icon" d="M216.6,68.14a3.017,3.017,0,0,0-2.441,1.523,6.749,6.749,0,0,0-1.011,3.676,7.133,7.133,0,0,0,.644,3.023,4.005,4.005,0,0,0,1.692,1.9l-.392,14.961a1.51,1.51,0,1,0,3.02,0l-.392-14.961h0a4,4,0,0,0,1.692-1.9,7.129,7.129,0,0,0,.644-3.023,6.75,6.75,0,0,0-1.011-3.676A3.016,3.016,0,0,0,216.6,68.14h0Zm4.816.045V76.83c0,.64,1.583,1.884,2.325,2.315l-.368,14.075a1.51,1.51,0,1,0,3.02,0l-.368-14.075c.742-.431,2.325-1.675,2.325-2.315V68.185h-1.411V74.78a.618.618,0,0,1-.619.619h-.069a.618.618,0,0,1-.619-.619V68.185h-1.5V74.78a.618.618,0,0,1-.619.619h-.069a.618.618,0,0,1-.619-.619V68.185Z" transform="translate(-213.151 -68.14)" fill="#fdbd10" fill-rule="evenodd"/>
</svg>
