<svg xmlns="http://www.w3.org/2000/svg" xmlns:xlink="http://www.w3.org/1999/xlink" width="217.491" height="44.586" viewBox="0 0 217.491 44.586">
  <defs>
    <clipPath id="clip-path">
      <rect id="Rectangle_1293" data-name="Rectangle 1293" width="217.491" height="44.586" fill="#fdbd10"/>
    </clipPath>
  </defs>
  <g id="Group_1064" data-name="Group 1064" clip-path="url(#clip-path)">
    <path id="Path_907" data-name="Path 907" d="M15.63.127,0,44.586H44.27s3.558-9.444,3.664-10.008H40.945c.372-.251,3.7-1.176,5.882-3.883,3.969-4.915.055-10.36.055-10.36s6.929-3.1,9.036-7.719c2.129-4.67.46-9.6-5.38-11.533C45.708-.513,15.63.127,15.63.127" transform="translate(0 0)" fill="#df2e2d" fill-rule="evenodd"/>
    <path id="Path_908" data-name="Path 908" d="M45.144,34.369c3.232.167,5.884-.721,7.7-3.331,1.844-2.654-.4-7.606-.4-7.606s7.006-1.444,7.677-5.142c.769-4.233-6.171-3.214-8.2-3.181Z" transform="translate(-16.715 -5.546)" fill="#df2e2d" fill-rule="evenodd"/>
    <path id="favicon" d="M39.97,19.761s3.422,4.629-.435,9.022c-2.388,2.719-7.213,2.285-11.915,2.281l7.135-20.3H26.584L17.756,35.878s14.849.389,23.071-1.885c3.459-.957,5.576-2.645,6.449-4.67,1.764-4.09-1.482-8.75-1.482-8.75s14.057-5.937,9.691-13.5c-2.4-4.158-13.12-3.82-17.963-3.819H18.673C13.934,16.838,9.261,30.276,4.415,43.816H44.621l2.105-5.986-31.733,0c3.289-9.735,6.723-19.345,10.13-29.041L36.1,8.81c2.942.069,9.246-.681,10.293,2.422,2.142,6.35-6.42,8.529-6.42,8.529" transform="translate(-1.635 -1.204)" fill="#fff" fill-rule="evenodd"/>
    <path id="Path_910" data-name="Path 910" d="M124.781,4.448c-.888,3.315,3.113,1.452,1.875,6.071,3.674.186,3.42,2.942,2.77,5.364l-1.976,7.375c-1.377,5.14-2.436,6.034-7.5,6.034h-2.124c-4.356,0-5.8-.6-4.341-6.034l2-7.45c1.117-4.171,3.086-5.4,7.443-5.4.958-3.576-3.322-1.639-2.214-5.774l.219-.819a1.109,1.109,0,0,1,1.087-.856h2.309c.669,0,.756.372.627.856Zm-7.256,18.884c-.509,2.309-.283,2.719,1.766,2.719h.783c2.234,0,2.707-.372,3.386-2.905l1.806-6.741c.569-2.124.532-2.683-1.926-2.683h-.633c-2.346,0-2.747.521-3.255,2.421Z" transform="translate(-41.815 -1.095)" fill="#fdbd10"/>
    <path id="Path_911" data-name="Path 911" d="M144.4,28.022l5.269-19.667c1.089-4.06,2.712-5.811,7.107-5.811h2.459c5.028,0,4.851,2.608,3.933,6.034l-5.211,19.443a1.022,1.022,0,0,1-1.086.856h-2.2c-.559,0-.756-.372-.627-.856l5.27-19.667c.519-1.936.336-2.644-1.564-2.644h-1.191c-1.938,0-2.442.634-3.041,2.868l-5.21,19.443a1.022,1.022,0,0,1-1.086.856h-2.2c-.559,0-.756-.372-.627-.856" transform="translate(-53.45 -0.942)" fill="#fdbd10"/>
    <path id="Path_912" data-name="Path 912" d="M189.911,28.022a1.021,1.021,0,0,1-1.087.856h-6.182c-5.364,0-5.575-1.713-4.427-6l3.823-14.266c1.367-5.1,3.229-6.072,7.362-6.072h2.533c4.023,0,5.537.745,4.059,6.258l-2.954,11.025a1.109,1.109,0,0,1-1.086.857H189.68c-.671,0-.757-.373-.627-.857L192.087,8.5c.519-1.936.458-2.681-1.442-2.681h-1.639c-1.937,0-2.408.782-2.976,2.905L182.267,22.77c-.559,2.086-.572,2.83,1.55,2.83H189.7c.483,0,.776.3.627.857Z" transform="translate(-65.776 -0.942)" fill="#fdbd10"/>
    <path id="Path_913" data-name="Path 913" d="M209.162,28.022l5.269-19.667c1.088-4.06,2.712-5.811,7.107-5.811H224c5.029,0,4.851,2.608,3.933,6.034l-5.21,19.443a1.023,1.023,0,0,1-1.086.856h-2.2c-.559,0-.756-.372-.627-.856l5.27-19.667c.519-1.936.336-2.644-1.564-2.644h-1.191c-1.936,0-2.441.634-3.04,2.868l-5.209,19.443a1.025,1.025,0,0,1-1.088.856h-2.2c-.559,0-.756-.372-.627-.856" transform="translate(-77.429 -0.942)" fill="#fdbd10"/>
    <path id="Path_914" data-name="Path 914" d="M251.589,21.428c-.559,0-.757-.373-.627-.856l3.2-11.956c.559-2.086.356-2.72-.948-2.72-1.266,0-2.193.261-2.751,2.347l-5.3,19.778a1.023,1.023,0,0,1-1.086.857h-2.235c-.558,0-.756-.373-.626-.857l5.34-19.927c1.3-4.843,4.28-5.55,7.26-5.55,2.2,0,2.955.782,3.392,1.936h.186a6,6,0,0,1,4.131-1.936c3.166,0,6.163.074,4.636,5.774l-5.28,19.7a1.023,1.023,0,0,1-1.086.857h-2.272c-.559,0-.756-.373-.627-.857l.1-.372,5.077-18.81c.759-2.831.23-2.943-1.408-2.943-1.453,0-1.936.969-2.385,2.645l-3.223,12.031a1.024,1.024,0,0,1-1.087.856Z" transform="translate(-89.298 -0.942)" fill="#fdbd10"/>
    <path id="Path_915" data-name="Path 915" d="M301.019,6.049h-6.034c-1.452,0-1.811.783-2.329,2.72l-.618,2.309a5.894,5.894,0,0,1,2.935-.671h1.266c5.028,0,4.909,1.974,3.93,5.624l-1.986,7.413c-1.248,4.656-2.647,5.848-7.3,5.848h-1.9c-4.655,0-5.376-1.341-4.218-5.662l4.152-15.495c1.088-4.06,2.876-5.177,6.9-5.177h6.033c.484,0,.807.186.627.856l-.369,1.379a1.107,1.107,0,0,1-1.086.856m-12.3,17.4c-.589,2.2-.384,2.681,1.7,2.681h.634c1.974,0,2.565-.261,3.2-2.644l2.006-7.487c.509-1.9.165-2.421-1.622-2.421H293.64c-2.272,0-2.491.82-2.94,2.5Z" transform="translate(-105.255 -1.095)" fill="#fdbd10"/>
    <path id="Path_916" data-name="Path 916" d="M314.734,28.022,320,8.355c1.088-4.06,2.712-5.811,7.107-5.811h2.458c5.028,0,4.851,2.608,3.933,6.034l-5.21,19.443a1.023,1.023,0,0,1-1.086.856h-2.2c-.559,0-.756-.372-.627-.856l5.27-19.667c.519-1.936.336-2.644-1.564-2.644h-1.191c-1.936,0-2.441.634-3.04,2.868l-5.209,19.443a1.024,1.024,0,0,1-1.087.856h-2.2c-.559,0-.756-.372-.627-.856" transform="translate(-116.517 -0.942)" fill="#fdbd10"/>
    <path id="Path_917" data-name="Path 917" d="M143.645,60.835l1.5-8.495a.4.4,0,0,1,.429-.375h.976a.284.284,0,0,1,.3.375l-1.489,8.446c-.164.93-.115,1.272.7,1.272h.536c.8,0,.971-.326,1.12-1.174l.9-5.12a.4.4,0,0,1,.428-.375h.961a.285.285,0,0,1,.3.375l-.88,4.99c-.426,2.413-1.207,2.739-2.908,2.739H145.6c-1.748,0-2.351-.424-1.957-2.658" transform="translate(-53.142 -19.241)" fill="#fdbd10"/>
    <path id="Path_918" data-name="Path 918" d="M158.388,52.273a.425.425,0,0,1,.429-.375h.693a1.371,1.371,0,0,1,1.379.848h.063a2.262,2.262,0,0,1,1.839-.962c1.26,0,2.387.31,2.013,2.43l-1.185,6.717c-.348,1.973-1.228,2.494-2.787,2.494h-1.2c-1.984,0-2.516-.293-2.107-2.608l.3-1.7a.427.427,0,0,1,.428-.375h.96c.284,0,.335.163.3.375l-.279,1.581c-.181,1.028-.086,1.288.655,1.288H160.9c.678,0,.876-.326,1.028-1.19l1.15-6.522c.161-.913-.133-1.028-.669-1.028-.551,0-.758.278-.918,1.19l-.348,1.973a.427.427,0,0,1-.428.375H159.7c-.283,0-.333-.163-.3-.375l.333-1.891c.13-.734.11-1.157-.5-1.157h-.678c-.205,0-.348-.082-.3-.375Z" transform="translate(-58.278 -19.173)" fill="#fdbd10"/>
    <path id="Path_919" data-name="Path 919" d="M176.249,52.553c-.222,1.256,2.355,1.565,2.086,3.082l-.109.619a1.919,1.919,0,0,1-1.105,1.533l-.014.081a1.555,1.555,0,0,1,.719,1.549L177.547,61c-.348,1.973-1.228,2.494-2.787,2.494h-1.2c-2,0-2.5-.293-2.108-2.608l.283-1.7a.427.427,0,0,1,.429-.375h.96c.283,0,.334.163.3.375l-.265,1.581c-.181,1.028-.321,1.288.656,1.288h1.008c.676,0,.877-.326,1.028-1.19l.207-1.174c.173-.979.053-1.191-.782-1.191h-.253a.2.2,0,0,1-.222-.26l.17-.963c.026-.146.132-.212.305-.212.96,0,1.123-.212,1.227-.8l.1-.538c.219-1.239-2.421-.913-2.022-3.18l.037-.212a.427.427,0,0,1,.429-.375h.929c.285,0,.35.163.313.375Z" transform="translate(-63.437 -19.241)" fill="#fdbd10"/>
    <path id="Path_920" data-name="Path 920" d="M187.063,60.7c-.181,1.028-.086,1.288.654,1.288h.882c.678,0,.877-.326,1.029-1.19l1.144-6.49c.146-.831.046-1.06-.9-1.06h-.425c-.662,0-.953.31-1.119,1.076l-.083.473a.4.4,0,0,1-.429.375h-.945a.285.285,0,0,1-.3-.375l.065-.375c.394-2.234,1.3-2.642,3-2.642h.566c2.3,0,2.612.636,2.291,2.462l-1.179,6.685c-.348,1.973-1.228,2.494-2.787,2.494h-1.071c-1.984,0-2.515-.293-2.108-2.608l.283-1.7a.427.427,0,0,1,.429-.375h.976c.283,0,.334.162.3.375Z" transform="translate(-68.582 -19.173)" fill="#fdbd10"/>
    <path id="Path_921" data-name="Path 921" d="M207.96,52.977a.425.425,0,0,1-.428.375H203.5a1.485,1.485,0,0,0-1.561,1.435l-.146.831a2.1,2.1,0,0,1,1.123-.391c.8,0,1.143.31,1.311.782h.079a2.046,2.046,0,0,1,1.6-.782c1.339,0,2.609.033,2.168,2.527L207.152,63a.4.4,0,0,1-.429.375h-.96a.285.285,0,0,1-.3-.375l.029-.162.873-4.859c.218-1.239-.009-1.288-.7-1.288-.614,0-.784.424-.913,1.157l-.477,2.707a.4.4,0,0,1-.428.375h-1.009a.285.285,0,0,1-.3-.375l.472-2.675c.161-.912.052-1.19-.5-1.19-.535,0-.918.114-1.078,1.027L200.506,63a.4.4,0,0,1-.429.375h-.945a.284.284,0,0,1-.3-.375l1.469-8.332a3.085,3.085,0,0,1,3.328-2.707h4.142c.2,0,.348.081.3.375Z" transform="translate(-73.617 -19.241)" fill="#fdbd10"/>
    <path id="Path_922" data-name="Path 922" d="M218.121,54.019c.251-1.516,1.055-2.234,2.819-2.234H222c1.969,0,2.236,1.076,1.922,2.853L222.8,60.964c-.346,1.957-1.049,2.462-2.938,2.462h-.9c-1.716,0-2.46-.244-2.043-2.608l.584-3.31c.333-1.892,1.06-2.348,3.122-2.348h.473a1.527,1.527,0,0,1,.965.327l.2-1.142c.161-.914-.106-1.093-.69-1.093h-.741a.946.946,0,0,0-1.064.766.4.4,0,0,1-.429.375h-.929a.284.284,0,0,1-.3-.375m.516,6.717c-.219,1.239.094,1.256.9,1.256h.283c.882,0,1.131-.163,1.341-1.353l.517-2.935c.15-.848.02-1.093-.877-1.093h-.363c-1.039,0-1.129.326-1.27,1.125Z" transform="translate(-80.274 -19.174)" fill="#fdbd10"/>
    <path id="Path_923" data-name="Path 923" d="M234.991,52.7c-.313,1.778,2.083,3.2,1.623,5.8l-.445,2.43c-.346,1.875-.766,2.559-2.955,2.559h-.646c-1.654,0-2.452-.293-2.13-2.119l.385-2.185a.426.426,0,0,1,.428-.375h.928c.283,0,.334.163.3.375l-.305,1.729c-.161.913-.146,1.19.673,1.19h.567c.677,0,.932-.2,1.09-1.092l.458-2.511c.424-2.494-2.042-3.423-1.625-5.788l.066-.375a.426.426,0,0,1,.428-.375h.929c.283,0,.333.163.3.375Z" transform="translate(-85.295 -19.24)" fill="#fdbd10"/>
    <path id="Path_924" data-name="Path 924" d="M252.619,52.977a.425.425,0,0,1-.429.375h-4.032a1.485,1.485,0,0,0-1.56,1.435l-.146.831a2.1,2.1,0,0,1,1.123-.391c.8,0,1.143.31,1.31.782h.08a2.044,2.044,0,0,1,1.6-.782c1.339,0,2.608.033,2.168,2.527L251.811,63a.4.4,0,0,1-.429.375h-.96a.285.285,0,0,1-.3-.375l.028-.162.873-4.859c.218-1.239-.009-1.288-.7-1.288-.614,0-.783.424-.913,1.157l-.477,2.707a.4.4,0,0,1-.428.375H247.5a.285.285,0,0,1-.3-.375l.472-2.675c.161-.912.052-1.19-.5-1.19-.535,0-.918.114-1.078,1.027L245.165,63a.4.4,0,0,1-.429.375h-.945a.284.284,0,0,1-.3-.375l1.469-8.332a3.085,3.085,0,0,1,3.328-2.707h4.142c.2,0,.348.081.3.375Z" transform="translate(-90.153 -19.241)" fill="#fdbd10"/>
    <path id="Path_925" data-name="Path 925" d="M268.527,51.966c.283,0,.333.163.3.375l-.313,1.777a3.039,3.039,0,0,1-1.227,1.778l-.014.081a1.161,1.161,0,0,1,.683,1.3l-.621,3.522c-.383,2.169-1.025,2.69-2.979,2.69h-.992c-1.906,0-2.4-.506-2.023-2.642l.293-1.663a.426.426,0,0,1,.428-.375h.976c.283,0,.334.163.3.375l-.279,1.581c-.184,1.045-.07,1.288.8,1.288h.41c.818,0,1.148-.081,1.343-1.19l.564-3.2c.152-.865.081-1-.911-1h-.709c-.2,0-.348-.081-.3-.375l.123-.7a.427.427,0,0,1,.429-.375h.693c1.008,0,1.151-.278,1.312-1.19l.3-1.7a.427.427,0,0,1,.429-.375Z" transform="translate(-96.718 -19.241)" fill="#fdbd10"/>
    <path id="Path_926" data-name="Path 926" d="M276.829,60.7c-.181,1.028-.086,1.288.655,1.288h.882c.678,0,.876-.326,1.028-1.19l1.145-6.49c.146-.831.045-1.06-.9-1.06h-.425c-.662,0-.953.31-1.119,1.076l-.083.473a.4.4,0,0,1-.429.375h-.945a.284.284,0,0,1-.3-.375l.065-.375c.394-2.234,1.3-2.642,3-2.642h.566c2.3,0,2.612.636,2.291,2.462l-1.179,6.685c-.348,1.973-1.228,2.494-2.787,2.494h-1.071c-1.985,0-2.516-.293-2.108-2.608l.283-1.7a.426.426,0,0,1,.428-.375h.977c.283,0,.334.162.3.375Z" transform="translate(-101.818 -19.173)" fill="#fdbd10"/>
    <path id="Path_927" data-name="Path 927" d="M295.371,51.879h.253c1.827,0,2.649.962,2.341,2.707l-1.057,6a3.087,3.087,0,0,1-3.328,2.707h-1.937c-1.827,0-2.681-.962-2.374-2.707l1.057-6a3.087,3.087,0,0,1,3.329-2.707h.3l.026-.146a.366.366,0,0,1,.417-.31h.693c.283,0,.345.1.307.31Zm-4.429,8.593c-.186,1.06.283,1.435,1.055,1.435h1.716a1.485,1.485,0,0,0,1.561-1.435l1.018-5.772c.187-1.06-.2-1.435-.975-1.435l-.275-.049a11.067,11.067,0,0,1-.14,1.239l-.56,3.44a.425.425,0,0,1-.434.407h-.756c-.236,0-.328-.2-.29-.407l.651-3.424a12.123,12.123,0,0,1,.284-1.255l-.276.049A1.485,1.485,0,0,0,291.96,54.7Z" transform="translate(-107.08 -19.039)" fill="#fdbd10"/>
    <path id="Path_928" data-name="Path 928" d="M305.282,62.937l1.518-8.609c.314-1.777.937-2.544,2.8-2.544h1.039c2.126,0,2.145,1.142,1.88,2.642l-1.5,8.511a.4.4,0,0,1-.429.375h-.93a.284.284,0,0,1-.3-.375l1.518-8.609c.149-.848.047-1.157-.756-1.157h-.5c-.819,0-1.009.277-1.182,1.256l-1.5,8.511a.4.4,0,0,1-.429.375h-.929a.284.284,0,0,1-.3-.375" transform="translate(-113.029 -19.173)" fill="#fdbd10"/>
  </g>
</svg>
