<svg xmlns="http://www.w3.org/2000/svg" width="57.627" height="64.156" viewBox="0 0 57.627 64.156">
  <g id="icon3" transform="translate(-153.752 -61.348)">
    <path id="Path_1760" data-name="Path 1760" d="M193.021,61.6a.843.843,0,0,0-.663.816c0,3.708,0,7.39,0,11.094-1.341,1.493-3.075,3.148-4.539,4.922-1.532,1.855-2.805,3.857-2.805,6.018v38.357a2.455,2.455,0,0,0,2.448,2.448H208.68a2.455,2.455,0,0,0,2.448-2.448V84.449c0-2.161-1.273-4.163-2.805-6.018-1.465-1.774-3.2-3.429-4.539-4.922,0-3.708,0-7.382,0-11.094a.848.848,0,0,0-.816-.816h-9.946Zm-30.2,1.632a.843.843,0,0,0-.663.816v4.9h-.969a.82.82,0,0,0,.153,1.632h.816v3.264a.816.816,0,1,0,1.633,0V70.575h6.529v3.264c0,3.521,2.193,6.355,4.234,9.054,1.84,2.434,3.557,4.766,3.877,7.268H155.686a11.963,11.963,0,0,1,2.193-5.075c1.3-1.93,2.948-3.837,4.182-5.942a.829.829,0,0,0-1.428-.842c-1.131,1.929-2.734,3.854-4.106,5.891A12.338,12.338,0,0,0,154,90.876c0,2.337,0,4.743,0,6.758a11.828,11.828,0,0,0,.867,3.851,11.4,11.4,0,0,1,.765,4.182,12.378,12.378,0,0,1-.791,3.877,16.518,16.518,0,0,0,.638,12.038,25.406,25.406,0,0,0,1.887,3.264.834.834,0,0,0,.714.408h17.954a.833.833,0,0,0,.714-.408,25.328,25.328,0,0,0,1.887-3.264,16.511,16.511,0,0,0,.639-12.038,12.377,12.377,0,0,1-.791-3.877,11.4,11.4,0,0,1,.765-4.182,15.8,15.8,0,0,0,.685-2.36,9.55,9.55,0,0,0,.182-1.44c0-2.217,0-4.477,0-6.708,0-3.521-2.193-6.38-4.234-9.079s-3.927-5.238-3.927-8.059V70.576h.816a.816.816,0,1,0,0-1.633h-.816v-4.9a.848.848,0,0,0-.816-.816h-8.314Zm31.165,0h8.161v4.08H193.99Zm-30.2,1.632h6.529v4.08h-6.529Zm30.2,4.08h8.161c0,1.622,0,3.267,0,4.9a.827.827,0,0,0,.2.536c1.439,1.63,3.277,3.356,4.718,5.1s2.423,3.49,2.423,4.973v38.357a.911.911,0,0,1-.816.816H187.462a.911.911,0,0,1-.816-.816V84.449c0-1.483.982-3.228,2.423-4.973s3.28-3.47,4.718-5.1a.818.818,0,0,0,.2-.535v-4.9ZM155.634,91.794h22.851v4.9H155.634Zm35.806,2.423a.845.845,0,0,0-.714.841v22.851a.816.816,0,1,0,1.633,0V95.058a.852.852,0,0,0-.918-.841Zm-35.729,4.106h22.7a12.357,12.357,0,0,1-.714,2.627,13.356,13.356,0,0,0-.842,4.718,13.925,13.925,0,0,0,.841,4.361,14.356,14.356,0,0,1,.791,4.616,14.639,14.639,0,0,1-1.326,6.248,18.791,18.791,0,0,1-1.606,2.729H158.567a18.769,18.769,0,0,1-1.606-2.729,14.638,14.638,0,0,1-1.326-6.248,14.356,14.356,0,0,1,.791-4.616,13.91,13.91,0,0,0,.841-4.361,13.371,13.371,0,0,0-.841-4.718,12.291,12.291,0,0,1-.714-2.627Zm5.559,10.584a.835.835,0,0,0-.689.561,16.558,16.558,0,0,0-.867,5.177,11.594,11.594,0,0,0,.867,4.336.816.816,0,1,0,1.53-.536,9.7,9.7,0,0,1-.765-3.8,14.974,14.974,0,0,1,.765-4.642.858.858,0,0,0-.841-1.1Z" fill="#c8c8c8" stroke="#c8c8c8" stroke-width="0.5"/>
  </g>
</svg>
