<svg xmlns="http://www.w3.org/2000/svg" width="51.668" height="56.437" viewBox="0 0 51.668 56.437">
  <g id="icon14" transform="translate(-147.84 -58.799)">
    <path id="Path_22295" data-name="Path 22295" d="M414.837,392H401.67a.712.712,0,1,0,0,1.424h13.166a.712.712,0,0,0,0-1.424Z" transform="translate(-220.95 -290.856)" fill="#fdbd10"/>
    <path id="Path_22296" data-name="Path 22296" d="M427.662,308.43a3.954,3.954,0,0,0,3.843,2.989,4.152,4.152,0,0,0,.925-.142,4.052,4.052,0,0,0,2.42-1.779,3.672,3.672,0,0,0,.427-2.989,4.052,4.052,0,0,0-1.779-2.42,3.672,3.672,0,0,0-2.989-.427,3.952,3.952,0,0,0-2.846,4.768Zm6.263-1.566a2.529,2.529,0,1,1-4.91,1.21,2.6,2.6,0,0,1,.284-1.922,2.533,2.533,0,0,1,1.566-1.139,2.584,2.584,0,0,1,3.06,1.851Z" transform="translate(-244.166 -213.62)" fill="#fdbd10"/>
    <path id="Path_22297" data-name="Path 22297" d="M397.9,297.419a1.714,1.714,0,0,0,1.067.284,1.216,1.216,0,0,0,.5-.071,2.011,2.011,0,1,0-.925-3.914,1.782,1.782,0,0,0-1.21.925,1.837,1.837,0,0,0-.213,1.495,1.665,1.665,0,0,0,.782,1.281Zm.925-2.349h.142a.62.62,0,0,1,.569.427.471.471,0,0,1-.071.427.708.708,0,0,1-.356.284.471.471,0,0,1-.427-.071.707.707,0,0,1-.284-.356A.63.63,0,0,1,398.822,295.071Z" transform="translate(-217.533 -205.028)" fill="#fdbd10"/>
    <path id="Path_22298" data-name="Path 22298" d="M424.938,271.378a1.714,1.714,0,0,0,1.067.284,1.216,1.216,0,0,0,.5-.071,1.782,1.782,0,0,0,1.21-.925,2.221,2.221,0,0,0,.214-1.495,1.782,1.782,0,0,0-.925-1.21,1.837,1.837,0,0,0-1.495-.213,1.782,1.782,0,0,0-1.21.925,2.222,2.222,0,0,0-.214,1.495,1.523,1.523,0,0,0,.854,1.21Zm.5-1.993a.708.708,0,0,1,.356-.284h.142a.428.428,0,0,1,.284.071.708.708,0,0,1,.284.356.471.471,0,0,1-.071.427.707.707,0,0,1-.356.284.472.472,0,0,1-.427-.071.708.708,0,0,1-.284-.356A.892.892,0,0,1,425.436,269.386Z" transform="translate(-241.086 -182.332)" fill="#fdbd10"/>
    <path id="Path_22299" data-name="Path 22299" d="M463.018,271.378a1.714,1.714,0,0,0,1.067.284,1.215,1.215,0,0,0,.5-.071,1.782,1.782,0,0,0,1.21-.925,2.221,2.221,0,0,0,.214-1.495,1.782,1.782,0,0,0-.925-1.21,1.837,1.837,0,0,0-1.495-.213,1.782,1.782,0,0,0-1.21.925,2.222,2.222,0,0,0-.213,1.495A1.522,1.522,0,0,0,463.018,271.378Zm.5-1.993a.708.708,0,0,1,.356-.284h.142a.428.428,0,0,1,.284.071.708.708,0,0,1,.284.356.471.471,0,0,1-.071.427.707.707,0,0,1-.356.284.472.472,0,0,1-.427-.071.713.713,0,0,1-.284-.356A.9.9,0,0,1,463.515,269.386Z" transform="translate(-274.327 -182.332)" fill="#fdbd10"/>
    <path id="Path_22300" data-name="Path 22300" d="M491.03,292.95a1.782,1.782,0,0,0-1.21.925,2.222,2.222,0,0,0-.213,1.495,1.782,1.782,0,0,0,.925,1.21,1.714,1.714,0,0,0,1.067.284,1.215,1.215,0,0,0,.5-.071,1.782,1.782,0,0,0,1.21-.925,2.222,2.222,0,0,0,.213-1.495,1.782,1.782,0,0,0-.925-1.21,2.043,2.043,0,0,0-1.566-.213Zm.783,1.423a.708.708,0,0,1,.284.356.471.471,0,0,1-.071.427.708.708,0,0,1-.356.284.471.471,0,0,1-.427-.071.708.708,0,0,1-.285-.356.471.471,0,0,1,.071-.427.707.707,0,0,1,.356-.284h.142C491.6,294.3,491.671,294.374,491.813,294.374Z" transform="translate(-298.283 -204.332)" fill="#fdbd10"/>
    <path id="Path_22301" data-name="Path 22301" d="M386.3,167.538a21.777,21.777,0,0,0-5.48-1.352,47.185,47.185,0,0,0-12.668,0,21.929,21.929,0,0,0-5.409,1.352.684.684,0,0,0-.427.64v38.929a.757.757,0,0,0,.64.712c.071,0,6.9.783,11.956.783a106.894,106.894,0,0,0,11.174-.783.757.757,0,0,0,.64-.712V168.178a.683.683,0,0,0-.427-.64Zm-1,39a92.784,92.784,0,0,1-10.391.712c-4.057,0-9.395-.5-11.174-.712V168.677a21.569,21.569,0,0,1,4.555-1.067,44.581,44.581,0,0,1,12.312,0,23.268,23.268,0,0,1,4.7,1.067Z" transform="translate(-187.223 -93.366)" fill="#fdbd10"/>
    <path id="Path_22302" data-name="Path 22302" d="M166.842,69.617a8.441,8.441,0,0,1-3.345-5.765,1.455,1.455,0,0,0,1.139-1.423V60.294a1.5,1.5,0,0,0-1.495-1.495h-7.686a1.5,1.5,0,0,0-1.495,1.495v2.135a1.516,1.516,0,0,0,1.067,1.423,8.161,8.161,0,0,1-3.345,5.622,9.379,9.379,0,0,0-3.843,7.4V112.6a2.563,2.563,0,0,0,2.7,2.42h17.223a2.563,2.563,0,0,0,2.7-2.42V76.876a9.638,9.638,0,0,0-3.63-7.259Zm-11.387-9.252h0l7.686-.071a.07.07,0,0,1,.071.071V62.5a.07.07,0,0,1-.071.071h-7.615a.07.07,0,0,1-.071-.071Zm-2.918,10.248a9.489,9.489,0,0,0,3.914-6.69H162a9.766,9.766,0,0,0,3.914,6.832,7.871,7.871,0,0,1,3.132,6.05H149.264a7.868,7.868,0,0,1,3.274-6.192Zm-3.274,7.615h19.785v26.831H149.264Zm18.5,35.442H150.545a1.149,1.149,0,0,1-1.281-1v-6.192h19.785v6.192A1.151,1.151,0,0,1,167.767,113.67Z" transform="translate(0 0)" fill="#fdbd10"/>
    <path id="Path_22303" data-name="Path 22303" d="M191.31,258.253a2.932,2.932,0,0,0-1.495-.712,2.381,2.381,0,0,0-.783-1.423,2.6,2.6,0,0,0-3.985,3.274l-4.2,4.555a2.634,2.634,0,0,0-3.132.569,2.6,2.6,0,0,0,.142,3.7,2.932,2.932,0,0,0,1.495.712,3.15,3.15,0,0,0,.783,1.423,2.809,2.809,0,0,0,1.779.712h.142a2.657,2.657,0,0,0,1.85-.854,2.581,2.581,0,0,0,.284-3.132l4.2-4.555a2.616,2.616,0,0,0,3.132-.569,2.668,2.668,0,0,0-.213-3.7Zm-.854,2.7a1.179,1.179,0,0,1-.854.356,1.242,1.242,0,0,1-.854-.284.769.769,0,0,0-.5-.213.646.646,0,0,0-.5.213l-5.053,5.48a.688.688,0,0,0,.071,1,1.224,1.224,0,0,1,.071,1.708,1.179,1.179,0,0,1-.854.356,1.242,1.242,0,0,1-.854-.284,1.106,1.106,0,0,1-.356-1,.808.808,0,0,0-.213-.569.646.646,0,0,0-.5-.213h-.142a1.442,1.442,0,0,1-1.067-.284,1.209,1.209,0,1,1,1.637-1.779.692.692,0,0,0,1-.071l5.053-5.48a.692.692,0,0,0-.071-1,1.209,1.209,0,1,1,1.637-1.779,1.106,1.106,0,0,1,.356,1,.808.808,0,0,0,.213.569.683.683,0,0,0,.64.142,1.442,1.442,0,0,1,1.067.284,1.41,1.41,0,0,1,.071,1.849Z" transform="translate(-25.464 -171.627)" fill="#fdbd10"/>
  </g>
</svg>
