<svg xmlns="http://www.w3.org/2000/svg" width="64.309" height="53.178" viewBox="0 0 64.309 53.178">
  <g id="icon11" transform="translate(-122.498 -91.88)">
    <path id="Path_22266" data-name="Path 22266" d="M345.918,101.774H316.237A1.237,1.237,0,0,1,315,100.537V95.591a3.71,3.71,0,0,1,3.71-3.71h24.734a3.71,3.71,0,0,1,3.71,3.71v4.947a1.237,1.237,0,0,1-1.237,1.237ZM317.473,99.3h27.207v-3.71a1.237,1.237,0,0,0-1.237-1.237H318.71a1.237,1.237,0,0,0-1.237,1.237Z" transform="translate(-165.294 0)" fill="#fdbd10"/>
    <path id="Path_22267" data-name="Path 22267" d="M310.99,157.806H281.309a1.221,1.221,0,0,1-1.026-1.892l4.947-7.42,2.053,1.36-3.71,5.5h26.749l4.589-6.827,2.053,1.36-4.947,7.42a1.236,1.236,0,0,1-1.026.495Z" transform="translate(-135.313 -48.611)" fill="#fdbd10"/>
    <path id="Path_22268" data-name="Path 22268" d="M498.657,193.888h-7.42A1.237,1.237,0,0,1,490,192.651V156.787h2.473v34.628h6.184a1.237,1.237,0,0,0,1.237-1.237V157.542a1.238,1.238,0,0,0-.21-.692l-4.526-6.8,2.053-1.3,4.539,6.79a3.71,3.71,0,0,1,.618,2.065v32.575a3.71,3.71,0,0,1-3.71,3.71Z" transform="translate(-315.56 -48.831)" fill="#fdbd10"/>
    <path id="Path_22269" data-name="Path 22269" d="M310.918,453.093H281.237A1.237,1.237,0,0,1,280,451.857h1.237V450.62h29.681Z" transform="translate(-135.241 -308.036)" fill="#fdbd10"/>
    <path id="Path_22270" data-name="Path 22270" d="M280,205.62h2.473v18.563H280Z" transform="translate(-135.241 -97.664)" fill="#fdbd10"/>
    <path id="Path_22271" data-name="Path 22271" d="M311.012,280.474a3.71,3.71,0,0,1-3.71-3.71v-3.71a2.473,2.473,0,0,1-2.473-2.473,1.237,1.237,0,0,0-2.473,0v5.565a4.328,4.328,0,1,1-8.657,0,3.091,3.091,0,0,0-3.092-3.092h-1.855v-2.473h1.855a5.578,5.578,0,0,1,5.565,5.565,1.855,1.855,0,1,0,3.71,0v-5.565a3.71,3.71,0,1,1,7.42,0,2.473,2.473,0,0,1,2.473,2.473v3.71a1.237,1.237,0,0,0,2.473,0v-.618a5.578,5.578,0,0,1,5.565-5.565h.618v2.473h-.618a3.091,3.091,0,0,0-3.092,3.092v.618a3.71,3.71,0,0,1-3.71,3.71Z" transform="translate(-142.756 -150.258)" fill="#fdbd10"/>
    <path id="Path_22272" data-name="Path 22272" d="M130.945,347.907a8.471,8.471,0,0,1-8.447-8.447c0-4.464,3.623-11.341,8.447-11.341S139.4,335,139.4,339.461a8.471,8.471,0,0,1-8.459,8.446Zm0-17.314c-2.955,0-5.973,5.157-5.973,8.867a5.986,5.986,0,0,0,11.959,0c0-3.71-3.018-8.867-5.986-8.867Z" transform="translate(0 -202.85)" fill="#fdbd10"/>
    <path id="Path_22273" data-name="Path 22273" d="M235.945,347.907a8.471,8.471,0,0,1-8.447-8.447c0-4.464,3.623-11.341,8.447-11.341S244.4,335,244.4,339.461a8.471,8.471,0,0,1-8.459,8.446Zm0-17.314c-2.956,0-5.973,5.157-5.973,8.867a5.986,5.986,0,0,0,11.959,0c0-3.71-3.018-8.867-5.986-8.867Z" transform="translate(-90.16 -202.85)" fill="#fdbd10"/>
    <path id="Path_22274" data-name="Path 22274" d="M288.169,362.627a5.99,5.99,0,0,0-.989-1.237l1.62-1.855a7.845,7.845,0,0,1,1.472,1.805Z" transform="translate(-141.406 -229.825)" fill="#fdbd10"/>
    <path id="Path_22275" data-name="Path 22275" d="M183.77,363.6a6.316,6.316,0,0,0-.891-1.151l1.719-1.781h0a8.815,8.815,0,0,1,1.237,1.633Z" transform="translate(-51.847 -230.797)" fill="#fdbd10"/>
  </g>
</svg>
