<svg xmlns="http://www.w3.org/2000/svg" width="57.411" height="56.76" viewBox="0 0 57.411 56.76">
  <g id="icon12" transform="translate(-18696.863 -9958)">
    <path id="Path_22276" data-name="Path 22276" d="M106.008,374.026l-1.657-.828-.3.61a6.81,6.81,0,0,0,0,6.091l.3.61,1.657-.828-.3-.61a4.958,4.958,0,0,1,0-4.434Z" transform="translate(18597.24 9622.628)" fill="#fdbd10"/>
    <path id="Path_22277" data-name="Path 22277" d="M182.147,499.374h-.159a2.219,2.219,0,0,1-1.581-.655l-1.31,1.31a4.061,4.061,0,0,0,2.89,1.2h.159a4.061,4.061,0,0,0,2.89-1.2l-1.31-1.31a2.219,2.219,0,0,1-1.581.655Z" transform="translate(18529.15 9509.83)" fill="#fdbd10"/>
    <path id="Path_22278" data-name="Path 22278" d="M317.438,361.68l-1.31,1.31.271.271a1.31,1.31,0,0,1,0,1.852l-.271.271,1.31,1.31.271-.271a3.161,3.161,0,0,0,0-4.471Z" transform="translate(18406.006 9632.979)" fill="#fdbd10"/>
    <path id="Path_22279" data-name="Path 22279" d="M286.05,461.362v1.852a3.708,3.708,0,0,0,3.7-3.7H287.9A1.854,1.854,0,0,1,286.05,461.362Z" transform="translate(18433.035 9545.064)" fill="#fdbd10"/>
    <path id="Path_22280" data-name="Path 22280" d="M282.159,270.369a2.06,2.06,0,0,1,1.145,1.852h1.852a3.9,3.9,0,0,0-2.168-3.508l-.2-.1-.828,1.657Z" transform="translate(18436.709 9716.61)" fill="#fdbd10"/>
    <path id="Path_22281" data-name="Path 22281" d="M122.871,22.411l-.527-1.053V18.8a4.636,4.636,0,0,0-4.229-4.613l-.064-.064a6.164,6.164,0,0,0-10.523,4.359,7.389,7.389,0,0,0,3.7,6.431v3.5l-4.63,2.315-4.9-2.45-2.543-4.238-.87-6.09,4.85-15.522L94.661,0l-.347,4.161-5.434.905,1.972,12.821-.687,6.177a10.463,10.463,0,0,0-1.393-.494,5.605,5.605,0,0,0-4.407-3.281l-4.217-.527-9.022-8.019-3.733,7.465,2.083,1.042L68.5,27.131h8.257L83.689,30.6l2.542,5.084v4.874L83.25,42.794l-2.644-.661-.545-5.451a4.436,4.436,0,0,0-7.55-2.7l-.553.553h-.265a4.914,4.914,0,0,0-4.907,4.908,13.714,13.714,0,0,0,6.482,11.7l1.037.648a6.705,6.705,0,0,0,6.463,4.973h2.794a6.665,6.665,0,0,0,3.708-1.123l1.1-.734a8.345,8.345,0,0,0,8.046-8.329V46.02a7.229,7.229,0,0,0,1.215-1.862,9.465,9.465,0,0,0,8.968.668,9.121,9.121,0,0,0,12.64-6.084l.224-.9.022-.017a12.556,12.556,0,0,0,3.386-15.418ZM109.38,18.48a4.312,4.312,0,0,1,7.361-3.049l.589.589h.384a2.781,2.781,0,0,1,2.778,2.778v2.089l-8.24,2.472a5.548,5.548,0,0,1-2.872-4.879ZM99.94,28.94l-3.28,4.592c-.081-.1-.164-.2-.25-.294a10.388,10.388,0,0,0-2.079-5.879l3.585-1.792ZM94.156,6.07l-.514,6.17,1.846.154L96.32,2.4l4.486,1.282-3.978,12.73-2.263-1.508L92.481,16.3,90.989,6.6ZM92.659,18.4l1.905-1.27,1.92,1.28.773,5.412L93.04,25.935a10.394,10.394,0,0,0-1.118-.889ZM71.7,14.738l6.409,5.7-2.067,1.033-6.166-3.083Zm-.479,6.39,4.026,2.013.535,2.14H70.63ZM77.123,23,79.912,21.6l4.224.528a3.741,3.741,0,0,1,2.905,2.115l-2.98,4.47-6.3-3.148Zm8.324,6.979,3.038-4.556a8.547,8.547,0,0,1,6.049,7.458l-6.872,1.527Zm-11.2,19.6a11.872,11.872,0,0,1-5.612-10.125,3.058,3.058,0,0,1,3.055-3.055h1.033l1.1-1.1a2.584,2.584,0,0,1,4.4,1.57l.581,5.811-4.016,7.228Zm9.313,5.34H80.767A4.847,4.847,0,0,1,76.1,51.344l4.111-7.4,2.581.645,4.119,9.062-.672.448a4.819,4.819,0,0,1-2.681.812Zm5.105-1.879L84.6,44.1l2.628-1.971L94.565,46.2v.381a6.49,6.49,0,0,1-5.9,6.454Zm7.75-11.852a5.355,5.355,0,0,1-1.128,3.3l-7.207-4V36.21l7.086-1.575a5.356,5.356,0,0,1,1.248,3.451Zm1.767,1.109a7.354,7.354,0,0,0,.085-1.109V40.9l.472.315a4.363,4.363,0,0,0,4.371.272l1.126-.563-.828-1.657-1.126.563a2.512,2.512,0,0,1-2.516-.157l-1.5-1v-.59a7.238,7.238,0,0,0-.569-2.822l3.641-5.1,4.336,2.169V43.208a7.6,7.6,0,0,1-7.493-.917ZM110.39,43.8a7.311,7.311,0,0,1-2.861-.587V32.335l4.365-2.183,5.739,7.379-.191.763A7.259,7.259,0,0,1,110.39,43.8Zm8.4-7.8-5.7-7.329V25.044l7.854-2.356.276.552a10.757,10.757,0,0,1,1.13,4.786,10.644,10.644,0,0,1-3.56,7.97Z" transform="translate(18630.078 9957.996)" fill="#fdbd10"/>
    <path id="Path_22282" data-name="Path 22282" d="M487.82,376.534h-.776v1.852h.776a4.982,4.982,0,0,0,4.733-3.411l-1.757-.586A3.132,3.132,0,0,1,487.82,376.534Z" transform="translate(18252.418 9621.556)" fill="#fdbd10"/>
    <path id="Path_22283" data-name="Path 22283" d="M571.056,268.357a7.891,7.891,0,0,1-.828,3.509l1.657.828a9.745,9.745,0,0,0,1.024-4.337v-.707h-1.852v.707Z" transform="translate(18177.662 9717.478)" fill="#fdbd10"/>
    <path id="Path_22284" data-name="Path 22284" d="M502.826,172.333a4.061,4.061,0,0,0,2.89-1.2l-1.31-1.31a2.219,2.219,0,0,1-1.581.655h-1.085a2.219,2.219,0,0,1-1.581-.655l-1.31,1.31a4.061,4.061,0,0,0,2.89,1.2Z" transform="translate(18241.803 9805.387)" fill="#fdbd10"/>
  </g>
</svg>
