<svg xmlns="http://www.w3.org/2000/svg" width="63.4" height="58.886" viewBox="0 0 63.4 58.886">
  <g id="icon8" transform="translate(-84.77 -33.681)">
    <path id="Path_1870" data-name="Path 1870" d="M101.95,264.895c-8.327,0-17.18,2.16-17.18,6.156v18.935c0,4,8.854,6.156,17.18,6.156s17.18-2.16,17.18-6.156V271.05c0-4-8.854-6.156-17.18-6.156Zm15.68,21.592c0,2.2-6.7,4.655-15.69,4.655s-15.679-2.464-15.679-4.655v-12.8c2.87,2.3,9.422,3.519,15.69,3.519s12.809-1.217,15.69-3.519v12.8Zm-15.68-20.092c8.976,0,15.69,2.455,15.69,4.655s-6.7,4.655-15.69,4.655-15.69-2.454-15.69-4.655S92.964,266.395,101.95,266.395Zm0,28.256c-8.976,0-15.69-2.455-15.69-4.655v-.882c2.87,2.3,9.422,3.519,15.69,3.519s12.809-1.217,15.69-3.519v.872c-.011,2.2-6.715,4.665-15.691,4.665Z" transform="translate(0 -203.576)" fill="#c8c8c8"/>
    <path id="Path_1871" data-name="Path 1871" d="M266.673,311.626h5.183a.75.75,0,0,0,0-1.5h-5.183a.75.75,0,1,0,0,1.5Z" transform="translate(-159.499 -243.401)" fill="#c8c8c8"/>
    <path id="Path_1872" data-name="Path 1872" d="M134.589,383.07a.769.769,0,0,0-.791-.081.744.744,0,0,0-.416.67v7.323a.745.745,0,0,0,.416.67.729.729,0,0,0,.791-.081l2.931-2.231a12.536,12.536,0,0,0,17.292-.416l1.075-1.075a.741.741,0,0,0,0-1.055l-1.075-1.075a12.555,12.555,0,0,0-17.293-.416Zm3.55,3.712a11.055,11.055,0,0,1,15.609,0l.548.548-.548.548a11.043,11.043,0,0,1-15.649-.03.746.746,0,0,0-.984-.071l-2.231,1.7v-4.3l2.231,1.7a.8.8,0,0,0,1.024-.1Z" transform="translate(-42.802 -306.731)" fill="#c8c8c8"/>
    <path id="Path_1873" data-name="Path 1873" d="M273.144,420.641a.872.872,0,1,0-.872-.872A.872.872,0,0,0,273.144,420.641Z" transform="translate(-165.089 -339.17)" fill="#c8c8c8"/>
    <path id="Path_1874" data-name="Path 1874" d="M434.452,294.951a6.207,6.207,0,1,0-6.207,6.207A6.213,6.213,0,0,0,434.452,294.951Zm-10.9,0a4.706,4.706,0,1,1,4.706,4.706A4.709,4.709,0,0,1,423.549,294.951Z" transform="translate(-296.954 -224.575)" fill="#c8c8c8"/>
    <path id="Path_1875" data-name="Path 1875" d="M366.252,44.046a1.7,1.7,0,0,0,.132-.314c.882-3.124-8.611-6.684-13.752-8.134A49.7,49.7,0,0,0,342.2,33.712c-3.378-.172-5.183.375-5.548,1.664s.9,2.7,3.864,4.311c.1.051.2.1.3.162-5.132,1.055-8.124,2.951-8.124,5.223V60.985a.75.75,0,1,0,1.5,0V47.678c2.84,2.252,9.26,3.438,15.385,3.438s12.556-1.2,15.385-3.448V65.66H358.8a10.62,10.62,0,0,0-18.671.415.751.751,0,1,0,1.349.659,9.125,9.125,0,0,1,16.207,0,.744.744,0,0,0,.67.416h6.613v6.41h-6.613a.745.745,0,0,0-.67.416,9.125,9.125,0,0,1-16.207,0,.751.751,0,1,0-1.349.659,10.62,10.62,0,0,0,18.671.415h6.166V86.3c0,2.15-6.582,4.554-15.385,4.554a39.564,39.564,0,0,1-10.2-1.227.748.748,0,1,0-.406,1.44,41.238,41.238,0,0,0,10.6,1.278c8.185,0,16.886-2.12,16.886-6.055V45.062a2.275,2.275,0,0,0-.2-1.015ZM338.1,35.781c.041-.132.71-.6,3.022-.6q.457,0,1,.03a48.526,48.526,0,0,1,10.1,1.836c8.854,2.495,12.931,5.527,12.718,6.278,0,.01-.02.03-.03.041s-.03.03-.051.051c-.264.213-1.268.608-3.946.487a48.526,48.526,0,0,1-10.1-1.836,48.607,48.607,0,0,1-9.585-3.692c-2.758-1.511-3.184-2.444-3.133-2.6Zm11.491,13.844c-8.8,0-15.385-2.4-15.385-4.554,0-1.4,3.083-3.256,8.966-4.107a57.8,57.8,0,0,0,7.252,2.546,50.459,50.459,0,0,0,10.436,1.9q.593.03,1.126.03a9.091,9.091,0,0,0,3-.4c0,.01.01.02.01.03-.021,2.15-6.6,4.554-15.407,4.554Z" transform="translate(-218.288 0)" fill="#c8c8c8"/>
  </g>
</svg>
