<svg xmlns="http://www.w3.org/2000/svg" width="75.901" height="68.713" viewBox="0 0 75.901 68.713">
  <g id="icon2" transform="translate(-69.92 -27.455)">
    <path id="Path_1758" data-name="Path 1758" d="M144.262,59.441a4.9,4.9,0,0,0-3.89-.415,2.063,2.063,0,0,0-1.186,1.293,5.287,5.287,0,0,0-.119,1.411c0,2.075-.213,4.293-1.6,5h0a22.757,22.757,0,0,0-2.834-4.494v-.083s-3.676-5.325-3.878-10.27h0a9.976,9.976,0,0,0-3.38-7.27,9.04,9.04,0,0,0,1.909.2h.474c4.115-.213,8-3.25,11.539-9.013a1.163,1.163,0,0,0-.38-1.577c-5.763-3.558-10.6-4.483-14.373-2.811h0a10.151,10.151,0,0,0-4.85,4.827,15.628,15.628,0,0,1,2.075-7.293,1.186,1.186,0,0,0-1.945-1.186c-3.486,5.455-2.467,12.891-2.17,14.575a9.664,9.664,0,0,0-8.692,9.487c-.142,3.771-2.3,7.732-3.332,9.416h0a18.139,18.139,0,0,0-6.238-5.36,1.186,1.186,0,0,0-1.577.427,20.157,20.157,0,0,0-2.55,6.605,6.5,6.5,0,0,0-3.19.866,6.59,6.59,0,0,0-2.016,1.862,6.557,6.557,0,1,0-11.266,6.712,6.3,6.3,0,0,0-2.691.854,6.534,6.534,0,0,0-2.171,9.226,6.535,6.535,0,0,0-1.114,12.843,6.038,6.038,0,0,0,1.648.213,6.546,6.546,0,0,0,5.443-2.858,6.545,6.545,0,0,0,3.925,2.941,6.725,6.725,0,0,0,1.672.213,6.533,6.533,0,0,0,3.3-.9,6.687,6.687,0,0,0,2.075-1.957,6.547,6.547,0,0,0,3.712,2.6,6.732,6.732,0,0,0,1.66.213,6.451,6.451,0,0,0,5.681-3.356,10.353,10.353,0,0,0,3.2.889,12.413,12.413,0,0,1,2.265.806,22.077,22.077,0,0,0,8.811,2.087c5.7,0,13.246-2.8,22.33-13.923,3.806-4.637,3.747-8.669,3.7-11.859h0a17.859,17.859,0,0,1,.131-3.06,20.657,20.657,0,0,1,.854-3.012c.6-1.755,1.3-3.819-.961-4.874ZM121.968,42.329v-.095a2.705,2.705,0,0,0-.095-.628c.285.261.617.557,1,.854-.3-.059-.593-.1-.9-.131Zm5.491-8.823c2.834-1.257,6.605-.545,11.254,2.087-2.929,4.423-5.929,6.76-9.06,6.926-3.285.19-5.835-2.182-6.736-3.143.38-1.281,1.565-4.554,4.542-5.87ZM108.923,63.557a.671.671,0,0,0,.154-.249c.676-1,3.984-6.167,4.186-11.325h0a7.578,7.578,0,1,1,15.155,0c.213,5.17,3.558,10.341,4.186,11.325a1.283,1.283,0,0,0,.154.249,19.654,19.654,0,0,1,2.633,4.127,31.389,31.389,0,0,0-5.218,4.744c-4.186,4.317-9.938,10.234-18.974,13.27,0,0-.617.249-1.482.534a16.344,16.344,0,0,1-1.613-1.66,6.546,6.546,0,0,0-2.989-11.029h-.309a19.289,19.289,0,0,1,3.926-1.577,4.546,4.546,0,0,0-.415,2.122,3.96,3.96,0,0,0,2.929,3.463,5.06,5.06,0,0,0,1.72.32,3.556,3.556,0,0,0,3.047-1.649,4.316,4.316,0,0,0-.7-5.348,4.774,4.774,0,0,0-.866-.676,3.95,3.95,0,0,1,3.2.806,1.186,1.186,0,1,0,1.411-1.814,6.439,6.439,0,0,0-7.115-.521,9.169,9.169,0,0,0-1.043.664,12.414,12.414,0,0,0-2.763.427,8.005,8.005,0,0,0,.925-4.518,7.533,7.533,0,0,0-.308-1.518Zm-8.076,19.638A4.174,4.174,0,0,1,99.8,82.009a4.248,4.248,0,1,1,2.6,1.968l-.451-.166a6.267,6.267,0,0,0-1.1-.616ZM81.981,85.4h.237l-.13.19Zm16.163-9.3-.059-.095H98.2Zm-4.6-.842a4.223,4.223,0,1,1-3.225.439,4.318,4.318,0,0,1,2.146-.605,4.242,4.242,0,0,1,1.079.142Zm-1.779-2.372h-.107l.071-.083ZM87.1,75.676v-.154h.19a.19.19,0,0,0-.19.106ZM86.8,82.637l.071.13h-.19s.083-.119.119-.178Zm17.326,3.783h0a6.356,6.356,0,0,0,2.028-.545c.3.356.581.723.9,1.056a8.831,8.831,0,0,1-1.067.142,5.23,5.23,0,0,0-1.471.32,7.472,7.472,0,0,0-.391-1.02Zm6.5-12.511h0a3.215,3.215,0,0,1,1.079-2.265,3.2,3.2,0,0,1,1.992.842,2.039,2.039,0,0,1,.391,2.479c-.391.593-1.1.747-2.04.4s-1.375-.866-1.423-1.506Zm-9.368-15.322c3.475,2.182,5.336,4.495,5.538,6.89a7.117,7.117,0,0,1-2.241,5.277,7.085,7.085,0,0,1-.688-.213,6.546,6.546,0,0,0-4.316-7.115,16.466,16.466,0,0,1,1.707-4.886Zm-7.969,9.878h0a4.257,4.257,0,1,1,.439,3.231,4.22,4.22,0,0,1-.439-3.231Zm-11-.51a4.259,4.259,0,0,1,4.115-3.179,4.15,4.15,0,0,1,1.067.142,4.127,4.127,0,1,1-5.182,3.036ZM77.3,77.847h0A4.186,4.186,0,0,1,79.265,75.2a4.272,4.272,0,1,1,1.079,7.827A4.246,4.246,0,0,1,77.3,77.8Zm3.309,12.167a4.254,4.254,0,1,1-6.261-4.732,4.149,4.149,0,0,1,3.214-.451,4.257,4.257,0,0,1,3.048,5.183Zm10.993.3a4.33,4.33,0,1,1,.095-1.506,6.022,6.022,0,0,0,0,.806,5.019,5.019,0,0,1-.083.7Zm10.744,0a4.234,4.234,0,0,1-8.3-.629,6.385,6.385,0,0,0,0-.83,4.395,4.395,0,0,1,.119-.688,4.245,4.245,0,0,1,4.1-3.178,4.751,4.751,0,0,1,1.079.13l.451.166a6.273,6.273,0,0,0,1.1.617,4.169,4.169,0,0,1,1.044,1.186,4.259,4.259,0,0,1,.415,3.178Zm40.7-26.789a22.06,22.06,0,0,0-.925,3.356,17.662,17.662,0,0,0-.166,3.487c0,3.024.083,6.439-3.19,10.436-14.029,17.159-23.433,13.258-28.509,11.159a12.78,12.78,0,0,0-2.8-.949,8.361,8.361,0,0,1-2.5-.664,1.539,1.539,0,0,0-.071-.32.32.32,0,0,1,0-.261,1.6,1.6,0,0,1,1.186-.439,23.209,23.209,0,0,0,5.882-1.553c9.487-3.2,15.524-9.345,19.888-13.827,2.087-2.158,3.925-4.032,5.36-4.673h.237l.237-.095c3.558-.937,3.676-5.277,3.712-7.364v-.676a3.732,3.732,0,0,1,1.933.451c.178.083.178.107.178.107h0a5.931,5.931,0,0,1-.451,1.827Z" transform="translate(0 0)" fill="#c8c8c8"/>
  </g>
</svg>
