<svg xmlns="http://www.w3.org/2000/svg" width="59.452" height="46.974" viewBox="0 0 59.452 46.974">
  <g id="icon5" transform="translate(-104.997 -85.345)">
    <path id="Path_1769" data-name="Path 1769" d="M154.1,257.227h-38.75A10.245,10.245,0,0,1,105,247.247c0-6.083,3.971-11.6,10.924-15.33l.573-.308h0a37.168,37.168,0,0,1,11.3-3.567,43.424,43.424,0,0,1,6.932-.541h.754a43.153,43.153,0,0,1,9.088,1.062h.138a40.661,40.661,0,0,1,4.565,1.37,32.313,32.313,0,0,1,6.073,2.983c5.924,3.779,9.109,8.812,9.109,14.226v.1a10.245,10.245,0,0,1-10.351,9.99Zm-36.192-23.951-.446.234c-6.571,3.344-10.34,8.313-10.34,13.631a8.122,8.122,0,0,0,8.228,7.962H154.1a8.11,8.11,0,0,0,8.228-7.878l1.062-.085h-1.062c0-4.661-2.888-9.056-8.122-12.378a30.355,30.355,0,0,0-5.68-2.771,38.5,38.5,0,0,0-4.247-1.306h-.1a41.391,41.391,0,0,0-8.779-1.062h-.68a40.656,40.656,0,0,0-6.6.52,35.088,35.088,0,0,0-10.213,3.132Z" transform="translate(0 -124.908)" fill="#c8c8c8"/>
    <path id="Path_1770" data-name="Path 1770" d="M154.1,257.227h-38.75A10.245,10.245,0,0,1,105,247.247c0-6.083,3.971-11.6,10.924-15.33l.573-.308h0a37.168,37.168,0,0,1,11.3-3.567,43.424,43.424,0,0,1,6.932-.541h.754a43.153,43.153,0,0,1,9.088,1.062h.138a40.661,40.661,0,0,1,4.565,1.37,32.313,32.313,0,0,1,6.073,2.983c5.924,3.779,9.109,8.812,9.109,14.226v.1a10.245,10.245,0,0,1-10.351,9.99Zm-36.192-23.951-.446.234c-6.571,3.344-10.34,8.313-10.34,13.631a8.122,8.122,0,0,0,8.228,7.962H154.1a8.11,8.11,0,0,0,8.228-7.878l1.062-.085h-1.062c0-4.661-2.888-9.056-8.122-12.378a30.355,30.355,0,0,0-5.68-2.771,38.5,38.5,0,0,0-4.247-1.306h-.1a41.391,41.391,0,0,0-8.779-1.062h-.68a40.656,40.656,0,0,0-6.6.52,35.088,35.088,0,0,0-10.213,3.132Z" transform="translate(0 -124.908)" fill="#c8c8c8"/>
    <path id="Path_1771" data-name="Path 1771" d="M293.007,243.494a3.185,3.185,0,0,1-3.185-3.641,18.217,18.217,0,0,1,7.357-12.071.979.979,0,0,1,.637-.2,43.086,43.086,0,0,1,9.247,1.062,1.061,1.061,0,0,1-.17,2.092,11.677,11.677,0,0,0-10.733,9.916,3.185,3.185,0,0,1-3.153,2.845Zm5.149-13.8a16.1,16.1,0,0,0-6.2,10.436,1.069,1.069,0,1,0,2.123.234,13.8,13.8,0,0,1,3.3-7.07,14.1,14.1,0,0,1,4.459-3.365c-1.232-.106-2.463-.234-3.684-.234Z" transform="translate(-162.371 -124.977)" fill="#c8c8c8"/>
    <path id="Path_1772" data-name="Path 1772" d="M179.29,246.208h-.255A3.068,3.068,0,0,1,176,242.7a17.863,17.863,0,0,1,2.378-6.784,1.14,1.14,0,0,1,.456-.467,37.169,37.169,0,0,1,11.3-3.567,1.062,1.062,0,0,1,.446,2.07,11.241,11.241,0,0,0-3.514,1.71,11.782,11.782,0,0,0-4.745,7.835,3.089,3.089,0,0,1-3.026,2.707Zm.807-9a15.8,15.8,0,0,0-1.974,5.818.934.934,0,0,0,.913,1.062h.234a.966.966,0,0,0,.945-.881,13.8,13.8,0,0,1,3.748-7.612,32.71,32.71,0,0,0-3.865,1.614Z" transform="translate(-62.36 -128.752)" fill="#c8c8c8"/>
    <path id="Path_1773" data-name="Path 1773" d="M398.271,262.237a3.185,3.185,0,0,1-3.185-3.716,14.936,14.936,0,0,1,8.164-10.733,1.062,1.062,0,0,1,.839,0,32.313,32.313,0,0,1,6.073,2.983,1.062,1.062,0,0,1-.531,1.911,8.492,8.492,0,0,0-8.249,7,3.185,3.185,0,0,1-3.11,2.558Zm5.542-12.337h0a12.8,12.8,0,0,0-6.6,8.982v.181h0a1.078,1.078,0,0,0,2.123.245,10.616,10.616,0,0,1,7.187-8.217c-.881-.435-1.783-.828-2.707-1.189Z" transform="translate(-254.853 -142.658)" fill="#c8c8c8"/>
    <path id="Path_1774" data-name="Path 1774" d="M182.281,406.353h-34.8a13.62,13.62,0,0,1-7.6-2.3,1.062,1.062,0,1,1,1.168-1.762,11.571,11.571,0,0,0,6.433,1.943h34.8a11.57,11.57,0,0,0,6.433-1.943,1.062,1.062,0,0,1,1.168,1.762,13.62,13.62,0,0,1-7.6,2.3Z" transform="translate(-30.157 -278.281)" fill="#c8c8c8"/>
    <path id="Path_1775" data-name="Path 1775" d="M239.272,131.478a1.062,1.062,0,0,1-.754-.308,4.246,4.246,0,0,1,0-6.009,2.116,2.116,0,0,0,0-3,1.062,1.062,0,1,1,1.507-1.5,4.246,4.246,0,0,1,0,6.009,2.116,2.116,0,0,0,0,3,1.056,1.056,0,0,1-.754,1.8Z" transform="translate(-116.227 -30.753)" fill="#c8c8c8"/>
    <path id="Path_1776" data-name="Path 1776" d="M335.522,96.478a1.062,1.062,0,0,1-.754-.308,4.246,4.246,0,0,1,0-6.009,2.116,2.116,0,0,0,0-3,1.062,1.062,0,1,1,1.507-1.5,4.246,4.246,0,0,1,0,6.009,2.116,2.116,0,0,0,0,3,1.056,1.056,0,0,1-.754,1.8Z" transform="translate(-200.799 0)" fill="#c8c8c8"/>
    <path id="Path_1777" data-name="Path 1777" d="M431.772,122.728a1.062,1.062,0,0,1-.754-.308,4.246,4.246,0,0,1,0-6.009,2.116,2.116,0,0,0,0-3,1.062,1.062,0,1,1,1.507-1.5,4.246,4.246,0,0,1,0,6.009,2.116,2.116,0,0,0,0,3,1.056,1.056,0,0,1-.754,1.8Z" transform="translate(-285.371 -23.065)" fill="#c8c8c8"/>
  </g>
</svg>
