<svg xmlns="http://www.w3.org/2000/svg" width="46.801" height="59.652" viewBox="0 0 46.801 59.652">
  <g id="icon15" transform="translate(-138.178 -8.697)">
    <path id="Path_22304" data-name="Path 22304" d="M179.119,34.062h-5.711V31.877h.38a1.934,1.934,0,1,0,0-3.868h-5.331l3.127-8.573,1.837-5.047a.735.735,0,0,0,0-.354l-.967-4.815a.659.659,0,0,0-1.057-.374L167.529,11.9a.572.572,0,0,0-.142.284l-1.837,5.047-1.876,5.157V10.649a1.934,1.934,0,0,0-1.934-1.934h-7.471a1.934,1.934,0,0,0-1.934,1.934V28.008h-.883l-1.683-5.924h0a2.4,2.4,0,0,0-1.2-1.457H148.5a1.933,1.933,0,0,0-.857-2.707l-.142-.051-1.083-5.092h0a2.863,2.863,0,0,0-3.771-2.089l-2.591.916a2.849,2.849,0,0,0-1.541,4.022l2.443,4.6a1.912,1.912,0,0,0,.851,2.7,1.472,1.472,0,0,0,.155.051l-.039.064h0a2.407,2.407,0,0,0,0,1.889l1.386,3.081h-2.675a1.934,1.934,0,1,0,0,3.868h.374L141,60.208a8.154,8.154,0,0,0,8.142,8.142h16.115a8.149,8.149,0,0,0,8.142-8.142v-.818c0-.65.543-.873,1.193-.877H179.1a5.885,5.885,0,0,0,5.879-5.879V39.967a5.879,5.879,0,0,0-5.859-5.9Zm-16.147-6.053,3.545-9.734,3.635,1.289-3.062,8.444ZM168.51,12.8,171.4,10.5l.741,3.617-1.534,4.267L166.975,17.1Zm-6.15-2.146V12.17h-2.927a.645.645,0,0,0,0,1.289h2.927v1.773h-1.418a.645.645,0,1,0,0,1.289h1.418v1.773h-2.927a.644.644,0,0,0,0,1.289h2.927v1.773h-1.418a.645.645,0,1,0,0,1.289h1.418v1.773h-2.927a.645.645,0,0,0,0,1.289h2.927v.219l-.774,2.082h-5.4V9.992H161.7a.645.645,0,0,1,.657.657Zm-8.748,0a.645.645,0,0,1,.645-.644h.644V28.054h-1.289ZM142.048,20.9a.386.386,0,0,1,.058-.084l4.886-1.779h0a.312.312,0,0,1,.11,0,.64.64,0,0,1-.052,1.186l-4.2,1.528h0a.623.623,0,0,1-.8-.857Zm-2.475-7.175a1.548,1.548,0,0,1,.922-.909l2.578-.948a1.53,1.53,0,0,1,.535-.09,1.566,1.566,0,0,1,.754.193,1.54,1.54,0,0,1,.774,1.044l1.025,4.809-4.19,1.515-2.3-4.319a1.572,1.572,0,0,1-.1-1.3Zm3.552,10.682a1.088,1.088,0,0,1,0-.864,1.107,1.107,0,0,1,.644-.593l3.391-1.231h0a1.076,1.076,0,0,1,.857.052,1.087,1.087,0,0,1,.542.644l1.586,5.576h-5.4Zm-3.133,5.537a.645.645,0,0,1,.645-.644h33.153a.645.645,0,0,1,0,1.289H140.636A.645.645,0,0,1,139.991,29.942ZM183.7,52.633h0a4.589,4.589,0,0,1-4.589,4.589H174.6a2.476,2.476,0,0,0-1.744.725,1.849,1.849,0,0,0-.738,1.441v.819h0a6.858,6.858,0,0,1-6.865,6.852H149.139a6.858,6.858,0,0,1-6.853-6.852l.013-28.331h29.82v2.83a.644.644,0,0,0,.644.644h6.356a4.584,4.584,0,0,1,4.583,4.616ZM179.114,36.64H174.6a2.475,2.475,0,0,0-2.469,2.469V55.29h0a.645.645,0,0,0,.644.645h6.35a3.3,3.3,0,0,0,3.3-3.3V39.967a3.3,3.3,0,0,0-3.313-3.326Zm2.011,15.994a2.012,2.012,0,0,1-2.011,2.011h-5.7V39.11a1.186,1.186,0,0,1,1.18-1.18H179.1a2.011,2.011,0,0,1,2.024,2.037Zm-10.314-18.8L170.8,60.208a5.57,5.57,0,0,1-5.563,5.563H157.97a.645.645,0,0,1,0-1.289h7.239a4.274,4.274,0,0,0,4.274-4.274l.013-25.727H146.831a.644.644,0,1,1,0-1.289H170.14a.645.645,0,0,1,.644.644Z" fill="#fdbd10"/>
  </g>
</svg>
