<svg xmlns="http://www.w3.org/2000/svg" width="58.791" height="58.645" viewBox="0 0 58.791 58.645">
  <g id="icon13" transform="translate(-86.455 -56.472)">
    <path id="Path_22285" data-name="Path 22285" d="M441.412,76.961a7.186,7.186,0,1,0-7.186,7.186A7.194,7.194,0,0,0,441.412,76.961Zm-12.908,0a5.721,5.721,0,1,1,5.721,5.721A5.727,5.727,0,0,1,428.5,76.961Z" transform="translate(-301.205 -11.476)" fill="#fdbd10" stroke="#fdbd10" stroke-width="0.2"/>
    <path id="Path_22286" data-name="Path 22286" d="M192.982,83.093a5.23,5.23,0,1,0-5.23-5.23,5.235,5.235,0,0,0,5.23,5.23Zm0-8.994a3.765,3.765,0,1,1-3.765,3.765,3.77,3.77,0,0,1,3.765-3.765Z" transform="translate(-93.212 -13.961)" fill="#fdbd10" stroke="#fdbd10" stroke-width="0.2"/>
    <path id="Path_22287" data-name="Path 22287" d="M210.2,97.471a.733.733,0,0,0,.733-.733.926.926,0,0,1,.924-.924.733.733,0,1,0,0-1.465,2.391,2.391,0,0,0-2.389,2.389.732.732,0,0,0,.732.733Z" transform="translate(-112.091 -32.836)" fill="#fdbd10" stroke="#fdbd10" stroke-width="0.2"/>
    <path id="Path_22288" data-name="Path 22288" d="M499.952,256.437a5.23,5.23,0,1,0-5.23-5.231A5.236,5.236,0,0,0,499.952,256.437Zm0-9a3.766,3.766,0,1,1-3.765,3.765A3.77,3.77,0,0,1,499.952,247.441Z" transform="translate(-360.035 -164.633)" fill="#fdbd10" stroke="#fdbd10" stroke-width="0.2"/>
    <path id="Path_22289" data-name="Path 22289" d="M517.174,270.811a.733.733,0,0,0,.733-.733.926.926,0,0,1,.924-.924.733.733,0,0,0,0-1.465,2.391,2.391,0,0,0-2.389,2.389.732.732,0,0,0,.732.733Z" transform="translate(-378.915 -183.506)" fill="#fdbd10" stroke="#fdbd10" stroke-width="0.2"/>
    <path id="Path_22290" data-name="Path 22290" d="M455.394,95.661a.732.732,0,0,0-.733-.733,3.9,3.9,0,0,0-3.9,3.9.733.733,0,0,0,1.465,0,2.435,2.435,0,0,1,2.433-2.432.731.731,0,0,0,.733-.732Z" transform="translate(-321.826 -33.34)" fill="#fdbd10" stroke="#fdbd10" stroke-width="0.2"/>
    <path id="Path_22291" data-name="Path 22291" d="M161.387,248.45a4.912,4.912,0,0,0-4.907,4.906.733.733,0,0,0,1.465,0,3.445,3.445,0,0,1,3.442-3.441.733.733,0,1,0,0-1.465Z" transform="translate(-66.03 -166.784)" fill="#fdbd10" stroke="#fdbd10" stroke-width="0.2"/>
    <path id="Path_22292" data-name="Path 22292" d="M145.463,115.016H166.67a5,5,0,0,0,4.995-4.995V79.507a5,5,0,0,0-4.995-5h-2.478V70.925a4.185,4.185,0,0,0-3.434-4.109V59.658a3.132,3.132,0,0,0-3.169-3.086h-3.045a3.132,3.132,0,0,0-3.169,3.086v7.158a4.184,4.184,0,0,0-3.434,4.109v3.586h-2.479a5,5,0,0,0-4.995,5v.429a8.545,8.545,0,1,0,0,13.494v16.592a5,5,0,0,0,4.994,4.994Zm9.082-57.126h3.045a1.812,1.812,0,0,1,1.851,1.767v7.087h-6.747V59.657a1.811,1.811,0,0,1,1.85-1.767Zm-5.285,13.034a2.864,2.864,0,0,1,2.861-2.861h7.891a2.864,2.864,0,0,1,2.861,2.861V74.51H149.259Zm-3.8,4.905H166.67a3.681,3.681,0,0,1,3.677,3.677v30.514a3.681,3.681,0,0,1-3.677,3.677H145.463a3.681,3.681,0,0,1-3.677-3.677V92.167a8.516,8.516,0,0,0,0-10.971V79.506a3.681,3.681,0,0,1,3.677-3.677ZM135.244,93.763a7.08,7.08,0,1,1,7.08-7.08A7.088,7.088,0,0,1,135.244,93.763Z" transform="translate(-40.144)" fill="#fdbd10" stroke="#fdbd10" stroke-width="0.2"/>
    <path id="Path_22293" data-name="Path 22293" d="M280.212,268.352c5.893,0,10.688-6.375,10.688-14.211s-4.8-14.211-10.688-14.211-10.689,6.375-10.689,14.211S274.318,268.352,280.212,268.352Zm0-27.1c5.167,0,9.37,5.783,9.37,12.892s-4.2,12.892-9.37,12.892-9.37-5.783-9.37-12.892S275.045,241.25,280.212,241.25Z" transform="translate(-164.289 -159.378)" fill="#fdbd10" stroke="#fdbd10" stroke-width="0.2"/>
    <path id="Path_22294" data-name="Path 22294" d="M346.87,88.181a.659.659,0,0,0,.659-.659V85.691a.659.659,0,0,0-1.318,0v1.831A.659.659,0,0,0,346.87,88.181Z" transform="translate(-230.947 -24.738)" fill="#fdbd10" stroke="#fdbd10" stroke-width="0.2"/>
  </g>
</svg>
