<svg xmlns="http://www.w3.org/2000/svg" width="65.058" height="59.904" viewBox="0 0 65.058 59.904">
  <g id="icon4" transform="translate(-730.995 -1646.914)">
    <g id="noun-bag-5241453" transform="translate(550.427 1613.308)">
      <path id="Path_1766" data-name="Path 1766" d="M214.347,46.283a37.553,37.553,0,0,0-3.017-5.767V34.473a.868.868,0,0,0-.868-.868h-24.4a.868.868,0,0,0-.868.868v2.508a.868.868,0,0,0,1.735,0v-1.64h7.321l-.042,5.17a37.805,37.805,0,0,0-3.017,5.772,16.81,16.81,0,0,0-1.228,6.388.868.868,0,0,0,.868.868h5.827a.888.888,0,0,0,.868-.892,15.05,15.05,0,0,1,1.1-5.709,36.632,36.632,0,0,1,2.749-5.3H208.9a36.673,36.673,0,0,0-2.326,4.642,16.775,16.775,0,0,0-1.227,6.363v30.13H182.3V52.649a15.036,15.036,0,0,1,1.1-5.711,36.221,36.221,0,0,1,2.753-5.3h4.026a.868.868,0,1,0,0-1.735h-4.5a.868.868,0,0,0-.721.385,37.42,37.42,0,0,0-3.163,5.992,16.773,16.773,0,0,0-1.227,6.363v31a.868.868,0,0,0,.868.868h33.269a.868.868,0,0,0,.868-.868V52.649a16.773,16.773,0,0,0-1.227-6.366ZM201.771,35.34h7.823v4.565h-7.823Zm-4.75,10.942a16.673,16.673,0,0,0-1.208,5.52h-4.09a14.964,14.964,0,0,1,1.078-4.865,36.643,36.643,0,0,1,3-5.684.868.868,0,0,0,.146-.475l.043-5.438h4.049v5.173a37.921,37.921,0,0,0-3.015,5.769Zm16.816,36.491h-6.752V52.649a15.06,15.06,0,0,1,1.1-5.711,35.425,35.425,0,0,1,2.279-4.521,35.37,35.37,0,0,1,2.277,4.521,15.044,15.044,0,0,1,1.1,5.711Z" fill="#c8c8c8"/>
      <path id="Path_1767" data-name="Path 1767" d="M237.391,292.367a5.543,5.543,0,0,0,3.109.913,7.448,7.448,0,0,0,2.624-.507,11.787,11.787,0,0,0,7.178-10.794,5.822,5.822,0,0,0-8.325-5.534,11.789,11.789,0,0,0-7.178,10.793,6.186,6.186,0,0,0,2.592,5.13Zm.826-10.644h0a9.419,9.419,0,0,1,4.373-3.659,5.712,5.712,0,0,1,2-.392,3.842,3.842,0,0,1,2.155.62,4.5,4.5,0,0,1,1.819,3.748h0a10.061,10.061,0,0,1-6.056,9.107,4.1,4.1,0,0,1-5.979-3.974,9.41,9.41,0,0,1,1.683-5.447Z" transform="translate(-48.629 -217.3)" fill="#c8c8c8"/>
      <path id="Path_1768" data-name="Path 1768" d="M280.269,327.375h.063a.873.873,0,0,0,.805-.922,2.246,2.246,0,0,1,1.65-2.178,4.322,4.322,0,0,0,2.719-4.406.868.868,0,1,0-1.729.149,2.626,2.626,0,0,1-1.594,2.631h0a4.009,4.009,0,0,0-2.776,3.933.862.862,0,0,0,.863.792Z" transform="translate(-88.627 -255.983)" fill="#c8c8c8"/>
    </g>
    <g id="Group_1108" data-name="Group 1108" transform="translate(760.967 1655.798)">
      <path id="Path_1764" data-name="Path 1764" d="M4530.57,1889.844l.247-32.81,3.4-8.573h4.616l2.1,2.714-1.11,10.053,7.339,13.506-2.96,16.22h-14.247Z" transform="translate(-4529.155 -1840.806)" fill="#f9f9f9"/>
      <g id="noun-tea-5236950">
        <path id="Path_1762" data-name="Path 1762" d="M234.084,281.989a.87.87,0,0,0,1.2-.281l1.148-1.855h0a5.67,5.67,0,0,0,2.7.662,7.745,7.745,0,0,0,4.257-1.4c.275-.174,6.708-4.406,4.788-18.626a.87.87,0,0,0-1.1-.72c-.16.046-15.918,4.713-14.284,16.422h0a.87.87,0,1,0,1.722-.241c-1.2-8.631,8.842-13.007,12.066-14.176,1.322,12.175-4.068,15.842-4.132,15.886-2.463,1.61-4.232,1.149-5.1.711l1.107-1.787,4.528-1.781h0a.87.87,0,0,0-.638-1.619l-2.36.928,3.737-6.029a.87.87,0,0,0-1.479-.916l-3.487,5.624-.337-1.956a.87.87,0,1,0-1.714.3l.671,3.888-3.577,5.773a.87.87,0,0,0,.282,1.194Z" transform="translate(-227.276 -236.326)" fill="#c8c8c8"/>
        <path id="Path_1763" data-name="Path 1763" d="M181.439,84.618h33.348a.87.87,0,0,0,.87-.869V52.685a16.812,16.812,0,0,0-1.23-6.378,37.639,37.639,0,0,0-3.023-5.78v-6.06a.87.87,0,0,0-.87-.869H186.079a.87.87,0,0,0-.87.869v2.513a.87.87,0,0,0,1.739,0V35.337h7.338l-.042,5.181a37.893,37.893,0,0,0-3.023,5.786,16.848,16.848,0,0,0-1.231,6.4.87.87,0,0,0,.87.869H196.7a.89.89,0,0,0,.87-.894,15.083,15.083,0,0,1,1.1-5.722,36.714,36.714,0,0,1,2.756-5.311h7.543a36.757,36.757,0,0,0-2.331,4.653,16.814,16.814,0,0,0-1.229,6.378v30.2h-23.1V52.685a15.07,15.07,0,0,1,1.1-5.724,36.308,36.308,0,0,1,2.76-5.308H190.2a.87.87,0,1,0,0-1.739h-4.51a.87.87,0,0,0-.723.385A37.5,37.5,0,0,0,181.8,46.3a16.811,16.811,0,0,0-1.23,6.377V83.749a.87.87,0,0,0,.867.869Zm20.384-49.281h7.841v4.576h-7.841ZM197.062,46.3a16.71,16.71,0,0,0-1.21,5.533h-4.1a15,15,0,0,1,1.08-4.877,36.73,36.73,0,0,1,3-5.7.87.87,0,0,0,.147-.476l.043-5.45h4.058v5.185a38.005,38.005,0,0,0-3.022,5.782Zm10.088,6.381h0a15.094,15.094,0,0,1,1.1-5.724,35.5,35.5,0,0,1,2.284-4.531,35.448,35.448,0,0,1,2.283,4.531,15.079,15.079,0,0,1,1.1,5.724V82.88h-6.77Z" transform="translate(-180.571 -33.598)" fill="#c8c8c8"/>
      </g>
    </g>
  </g>
</svg>
