<svg xmlns="http://www.w3.org/2000/svg" width="60.176" height="60.774" viewBox="0 0 60.176 60.774">
  <g id="icon1" transform="translate(0)">
    <path id="Path_1743" data-name="Path 1743" d="M107.588,88.848l2.96-4.635a10.725,10.725,0,0,0,1.689-5.783V67.4a28.25,28.25,0,0,1,8.47-20.47,25.109,25.109,0,0,1,18.86-6.841l11.3-.159c3.532-.05,5.246-1.639,9.973-4.75a1.086,1.086,0,0,1,1.346.121l4.6,4.392a2.609,2.609,0,0,1,.4,3.276l-3.337,5.45a5.541,5.541,0,0,0-.816,2.9V65.668a25.248,25.248,0,0,1-25.219,25.219H124.3a8.466,8.466,0,0,0-4.665,1.4l-5.026,3.309a1.085,1.085,0,0,1-1.346-.121l-5.509-5.255a1.085,1.085,0,0,1-.166-1.369Zm6.547,4.458,4.3-2.834a10.625,10.625,0,0,1,5.858-1.755H137.82a23.075,23.075,0,0,0,23.048-23.048V51.311A7.715,7.715,0,0,1,162,47.282l3.341-5.457.011-.017a.435.435,0,0,0-.066-.547l-3.979-3.8c-4,2.636-6.236,4.574-10.415,4.633l-11.4.159A22.816,22.816,0,0,0,122.2,48.5a26.07,26.07,0,0,0-7.8,18.9V78.43a12.893,12.893,0,0,1-2.03,6.952L109.9,89.264l4.237,4.043Z" transform="translate(-107.416 -34.997)" fill="#c8c8c8"/>
    <path id="Path_1744" data-name="Path 1744" d="M209.834,120.15h5.938a1.085,1.085,0,1,1,0,2.171h-5.938a19.285,19.285,0,0,0-19.263,19.263V157.63h16.047a19.285,19.285,0,0,0,19.263-19.263V121.235a1.085,1.085,0,1,1,2.171,0v17.132A21.458,21.458,0,0,1,206.617,159.8H189.485a1.085,1.085,0,0,1-1.085-1.085V141.584A21.458,21.458,0,0,1,209.834,120.15Z" transform="translate(-177.919 -109.589)" fill="#c8c8c8"/>
    <path id="Path_1745" data-name="Path 1745" d="M309.262,246.535a5.52,5.52,0,1,1,5.52-5.52A5.526,5.526,0,0,1,309.262,246.535Zm0-8.87a3.35,3.35,0,1,0,3.35,3.35A3.354,3.354,0,0,0,309.262,237.665Z" transform="translate(-278.957 -210.627)" fill="#c8c8c8"/>
    <path id="Path_1746" data-name="Path 1746" d="M260.608,183.721c-.354,6.861-7.295,9.2-12.807,5.886-3.354,2.212-6.17,1.862-8.016.383-2.568-2.057-2.752-6.118-.43-9.1l0-.013-1.093-1.335c-1.289-1.713-2.924-7.389,4.361-9.081,1.9-5.443,5.317-6.739,9.842-4.244,3.583-3.175,9.8-3.19,11.223,1.769a5.681,5.681,0,0,1-.99,5.3,6.144,6.144,0,0,1-2.093,10.435Zm-.151-9.353a1.086,1.086,0,0,1-.1-1.873,3.368,3.368,0,0,0,1.249-3.909c-1.017-3.539-6.086-2.727-8.127-.31a1.085,1.085,0,0,1-1.393.227c-4.3-2.611-6.065-1.322-7.6,3.225a1.085,1.085,0,0,1-.783.71c-5.615,1.3-4.735,4.4-3.716,5.782l1.472,1.8a1.085,1.085,0,0,1,.13,1.177,5.238,5.238,0,0,1-.473.967c-1.645,2.054-1.634,4.806.025,6.134,2.127,1.7,4.409.195,6.064-.9a1.085,1.085,0,0,1,1.242.033c4.135,3.051,10.259,1.425,10-4.507a1.085,1.085,0,0,1,.9-1.117,3.97,3.97,0,0,0,1.116-7.44Z" transform="translate(-220.703 -148.014)" fill="#c8c8c8"/>
    <path id="Path_1747" data-name="Path 1747" d="M459.206,295.908l.606-.546a1.085,1.085,0,1,1,1.452,1.613l-.606.546a1.085,1.085,0,0,1-1.452-1.613Z" transform="translate(-445.036 -262.825)" fill="#c8c8c8"/>
    <path id="Path_1748" data-name="Path 1748" d="M455.469,369.224l.682,2.165a1.085,1.085,0,1,1-2.07.652l-.682-2.165a1.085,1.085,0,1,1,2.07-.652Z" transform="translate(-438.931 -327.105)" fill="#c8c8c8"/>
    <path id="Path_1749" data-name="Path 1749" d="M355.948,386.082a1.085,1.085,0,0,1,1.491.363l.561.922a1.085,1.085,0,0,1-1.854,1.128l-.561-.922A1.085,1.085,0,0,1,355.948,386.082Z" transform="translate(-328.743 -342.398)" fill="#c8c8c8"/>
    <path id="Path_1750" data-name="Path 1750" d="M215.585,219.337a1.085,1.085,0,0,1-1.085-1.085v-1.443a1.085,1.085,0,1,1,2.171,0v1.443A1.085,1.085,0,0,1,215.585,219.337Z" transform="translate(-169.776 -193.308)" fill="#c8c8c8"/>
    <path id="Path_1751" data-name="Path 1751" d="M217.337,168.954l-1.163.762a1.085,1.085,0,1,1-1.189-1.815l1.163-.762a1.085,1.085,0,0,1,1.189,1.815Z" transform="translate(-170.932 -150.594)" fill="#c8c8c8"/>
    <path id="Path_1752" data-name="Path 1752" d="M324.884,149.7a1.085,1.085,0,0,1-1.313-1.729l.5-.377a1.085,1.085,0,1,1,1.313,1.729Z" transform="translate(-292.39 -133.436)" fill="#c8c8c8"/>
    <path id="Path_1753" data-name="Path 1753" d="M232.949,322.388a1.085,1.085,0,1,1,1.317,1.726l-1.523,1.163a1.085,1.085,0,0,1-1.317-1.726Z" transform="translate(-189.844 -286.548)" fill="#c8c8c8"/>
    <path id="Path_1754" data-name="Path 1754" d="M420.28,189.039v-.474a1.085,1.085,0,1,1,2.17,0v.474a1.085,1.085,0,1,1-2.17,0Z" transform="translate(-401.079 -168.567)" fill="#c8c8c8"/>
    <path id="Path_1755" data-name="Path 1755" d="M403.3,393.36a1.085,1.085,0,1,1,0,2.171h-.829a1.085,1.085,0,0,1,0-2.171Z" transform="translate(-380.675 -348.913)" fill="#c8c8c8"/>
    <path id="Path_1756" data-name="Path 1756" d="M248.4,121.037a1.221,1.221,0,1,0,1.221-1.221,1.221,1.221,0,0,0-1.221,1.221" transform="translate(-208.154 -109.296)" fill="#c8c8c8"/>
    <path id="Path_1757" data-name="Path 1757" d="M217.772,121.037a1.221,1.221,0,1,0,1.221-1.221,1.221,1.221,0,0,0-1.221,1.221" transform="translate(-173.725 -109.296)" fill="#c8c8c8"/>
  </g>
</svg>
