<svg xmlns="http://www.w3.org/2000/svg" width="58.254" height="58.254" viewBox="0 0 58.254 58.254">
  <g id="icon7" transform="translate(-70.002 0.004)">
    <path id="Path_1860" data-name="Path 1860" d="M127.256,28.494a3.314,3.314,0,0,1-2.913-4.578l.412-1.008-1.025-.366a5.68,5.68,0,0,1-3.637-6.709l.318-1.327-1.363.043-.157.009a5.207,5.207,0,0,1-5.2-5.2l.078-1.792-1.456.521a3.616,3.616,0,0,1-4.3-5.332l.724-1.159-1.308-.389a29.127,29.127,0,1,0,20.814,28.342l.014-1ZM99.127,56.17a27,27,0,0,1-20.959-9.976c.1.009.2.015.3.015a3.545,3.545,0,1,0-3.358-4.672,26.851,26.851,0,0,1-3.017-11.914A2.322,2.322,0,1,0,72.1,28.3,27.086,27.086,0,0,1,93.919,2.587a2.445,2.445,0,1,0,4.119-.48c.362-.014.724-.028,1.089-.028a26.934,26.934,0,0,1,6.538.8,5.6,5.6,0,0,0-.3,1.794,5.728,5.728,0,0,0,5.721,5.723,5.3,5.3,0,0,0,.589-.034,7.3,7.3,0,0,0,6.2,6.2c-.016.2-.025.4-.025.591a7.822,7.822,0,0,0,4.267,6.95,5.469,5.469,0,0,0-.107,1.068,5.4,5.4,0,0,0,4.121,5.246,27.158,27.158,0,0,1-27,25.746Z" transform="translate(0 0)" fill="#df2e2d"/>
    <path id="Path_1861" data-name="Path 1861" d="M209.824,103.368a2.2,2.2,0,1,1-2.2-2.2,2.2,2.2,0,0,1,2.2,2.2" transform="translate(-121.334 -90.647)" fill="#df2e2d"/>
    <path id="Path_1862" data-name="Path 1862" d="M344.818,123.267a3.3,3.3,0,1,1-3.3-3.3,3.3,3.3,0,0,1,3.3,3.3" transform="translate(-240.314 -107.491)" fill="#df2e2d"/>
    <path id="Path_1863" data-name="Path 1863" d="M211.171,203.284a3.422,3.422,0,1,1-3.422-3.422,3.422,3.422,0,0,1,3.422,3.422" transform="translate(-120.351 -179.075)" fill="#df2e2d"/>
    <path id="Path_1864" data-name="Path 1864" d="M323.27,280.483a4.278,4.278,0,1,1-4.278-4.278,4.278,4.278,0,0,1,4.278,4.278" transform="translate(-219.255 -247.476)" fill="#df2e2d"/>
    <path id="Path_1865" data-name="Path 1865" d="M416.189,435.058a2.567,2.567,0,1,1-2.567-2.566,2.567,2.567,0,0,1,2.567,2.566" transform="translate(-305.575 -387.505)" fill="#df2e2d"/>
    <path id="Path_1866" data-name="Path 1866" d="M501.254,335.462a2.2,2.2,0,1,1-2.2-2.2,2.2,2.2,0,0,1,2.2,2.2" transform="translate(-382.448 -298.598)" fill="#df2e2d"/>
    <path id="Path_1867" data-name="Path 1867" d="M271.232,423.674a2.933,2.933,0,1,1-2.933-2.933,2.933,2.933,0,0,1,2.933,2.933" transform="translate(-175.041 -376.977)" fill="#df2e2d"/>
    <path id="Path_1868" data-name="Path 1868" d="M474.2,204.412a2.2,2.2,0,1,1-2.2-2.2,2.2,2.2,0,0,1,2.2,2.2" transform="translate(-358.208 -181.18)" fill="#df2e2d"/>
  </g>
</svg>
