<svg xmlns="http://www.w3.org/2000/svg" width="58.886" height="58.886" viewBox="0 0 58.886 58.886">
  <g id="icon9" transform="translate(-78.748 -8.75)">
    <path id="Path_1877" data-name="Path 1877" d="M137.282,380.265a.95.95,0,0,0-.788-.218l-4.018.807a9.5,9.5,0,0,0-8.14-4.606H92.045a9.5,9.5,0,0,0-8.14,4.625l-4.018-.826a.958.958,0,0,0-1.14.95v9.5a.962.962,0,0,0,.95.95h.19l4.018-.807a9.5,9.5,0,0,0,8.14,4.607h32.293a9.5,9.5,0,0,0,8.14-4.626l4.018.826h.19a.95.95,0,0,0,.95-.95V381A.948.948,0,0,0,137.282,380.265Zm-41.439-2.118h24.694v9.5H95.844Zm-15.2,11.188v-7.18l2.431.484a9.337,9.337,0,0,0,0,6.212Zm43.69,4.008H92.045a7.6,7.6,0,0,1,0-15.2h1.9v10.448a.95.95,0,0,0,.95.95h26.594a.95.95,0,0,0,.95-.95V378.147h1.9a7.6,7.6,0,0,1,0,15.2Zm11.4-4.008-2.431-.484a9.337,9.337,0,0,0,0-6.212l2.431-.484Z" transform="translate(0 -327.607)" fill="#c8c8c8"/>
    <path id="Path_1878" data-name="Path 1878" d="M115.448,187.145a10.448,10.448,0,1,0-7.388-3.06A10.448,10.448,0,0,0,115.448,187.145Zm0-19a8.548,8.548,0,1,1-6.044,2.5A8.547,8.547,0,0,1,115.448,168.15Z" transform="translate(-23.403 -140.404)" fill="#c8c8c8"/>
    <path id="Path_1879" data-name="Path 1879" d="M192.5,201.25h1.9v1.9h-1.9Z" transform="translate(-101.405 -171.605)" fill="#c8c8c8"/>
    <path id="Path_1880" data-name="Path 1880" d="M148.75,227.5h1.9v1.9h-1.9Z" transform="translate(-62.404 -195.005)" fill="#c8c8c8"/>
    <path id="Path_1881" data-name="Path 1881" d="M192.5,253.75h1.9v1.9h-1.9Z" transform="translate(-101.405 -218.406)" fill="#c8c8c8"/>
    <path id="Path_1882" data-name="Path 1882" d="M236.25,227.5h1.9v1.9h-1.9Z" transform="translate(-140.406 -195.005)" fill="#c8c8c8"/>
    <path id="Path_1883" data-name="Path 1883" d="M192.5,306.25h1.9v1.9h-1.9Z" transform="translate(-101.405 -265.207)" fill="#c8c8c8"/>
    <path id="Path_1884" data-name="Path 1884" d="M148.75,280h1.9v1.9h-1.9Z" transform="translate(-62.404 -241.807)" fill="#c8c8c8"/>
    <path id="Path_1885" data-name="Path 1885" d="M236.25,280h1.9v1.9h-1.9Z" transform="translate(-140.406 -241.807)" fill="#c8c8c8"/>
    <path id="Path_1886" data-name="Path 1886" d="M402.5,176.7a10.448,10.448,0,1,0,3.06-7.388A10.448,10.448,0,0,0,402.5,176.7Zm10.448-8.548a8.548,8.548,0,1,1-6.044,2.5,8.547,8.547,0,0,1,6.044-2.5Z" transform="translate(-288.61 -140.404)" fill="#c8c8c8"/>
    <path id="Path_1887" data-name="Path 1887" d="M490,201.25h1.9v1.9H490Z" transform="translate(-366.613 -171.605)" fill="#c8c8c8"/>
    <path id="Path_1888" data-name="Path 1888" d="M446.25,227.5h1.9v1.9h-1.9Z" transform="translate(-327.611 -195.005)" fill="#c8c8c8"/>
    <path id="Path_1889" data-name="Path 1889" d="M490,253.75h1.9v1.9H490Z" transform="translate(-366.613 -218.406)" fill="#c8c8c8"/>
    <path id="Path_1890" data-name="Path 1890" d="M533.75,227.5h1.9v1.9h-1.9Z" transform="translate(-405.614 -195.005)" fill="#c8c8c8"/>
    <path id="Path_1891" data-name="Path 1891" d="M490,306.25h1.9v1.9H490Z" transform="translate(-366.613 -265.207)" fill="#c8c8c8"/>
    <path id="Path_1892" data-name="Path 1892" d="M446.25,280h1.9v1.9h-1.9Z" transform="translate(-327.611 -241.807)" fill="#c8c8c8"/>
    <path id="Path_1893" data-name="Path 1893" d="M533.75,280h1.9v1.9h-1.9Z" transform="translate(-405.614 -241.807)" fill="#c8c8c8"/>
    <path id="Path_1894" data-name="Path 1894" d="M264.2,29.645a10.448,10.448,0,1,0-7.388-3.06A10.448,10.448,0,0,0,264.2,29.645Zm0-19a8.548,8.548,0,1,1-6.044,2.5A8.547,8.547,0,0,1,264.2,10.65Z" transform="translate(-156.007)" fill="#c8c8c8"/>
    <path id="Path_1895" data-name="Path 1895" d="M341.25,43.75h1.9v1.9h-1.9Z" transform="translate(-234.009 -31.201)" fill="#c8c8c8"/>
    <path id="Path_1896" data-name="Path 1896" d="M297.5,70h1.9v1.9h-1.9Z" transform="translate(-195.008 -54.602)" fill="#c8c8c8"/>
    <path id="Path_1897" data-name="Path 1897" d="M341.25,96.25h1.9v1.9h-1.9Z" transform="translate(-234.009 -78.002)" fill="#c8c8c8"/>
    <path id="Path_1898" data-name="Path 1898" d="M385,70h1.9v1.9H385Z" transform="translate(-273.01 -54.602)" fill="#c8c8c8"/>
    <path id="Path_1899" data-name="Path 1899" d="M341.25,148.75h1.9v1.9h-1.9Z" transform="translate(-234.009 -124.803)" fill="#c8c8c8"/>
    <path id="Path_1900" data-name="Path 1900" d="M297.5,122.5h1.9v1.9h-1.9Z" transform="translate(-195.008 -101.403)" fill="#c8c8c8"/>
    <path id="Path_1901" data-name="Path 1901" d="M385,122.5h1.9v1.9H385Z" transform="translate(-273.01 -101.403)" fill="#c8c8c8"/>
  </g>
</svg>
