<svg xmlns="http://www.w3.org/2000/svg" width="78.653" height="67.829" viewBox="0 0 78.653 67.829">
  <g id="icon6" transform="translate(-1067.48 -2016)">
    <g id="noun-ice-cream-cone-552082" transform="translate(1067.48 2016)">
      <path id="Path_1778" data-name="Path 1778" d="M209.33,74.146A11.24,11.24,0,0,0,215.646,84.2L226.7,118.5a1.33,1.33,0,0,0,1.269.887h.1a1.331,1.331,0,0,0,1.269-.887l11.188-34.6h0a11.223,11.223,0,0,0-1.073-20.991,1.31,1.31,0,0,0,.071-.426,11.241,11.241,0,0,0-22.472,0,6.9,6.9,0,0,0,.045.958,11.285,11.285,0,0,0-7.763,10.709Zm18.737,39.835-1.868-5.771,2.9,2.41Zm1.774-5.456-5.208-5.208-2.662-8.251,9.191,9.244Zm2.289-7.1L220.206,89.583l-.071-.063L218.742,85.2h0a11.311,11.311,0,0,0,1.828.16A5.746,5.746,0,0,0,221.6,85.3h0a1.225,1.225,0,0,0,.142.213l11.711,11.711Zm2.289-7.1L224.66,84.57h0a11.342,11.342,0,0,0,3.407-2.068l7.683,7.683Zm2.289-7.1L234,84.526h0a10.272,10.272,0,0,0,3.549.133Zm-8.42-33.3a8.589,8.589,0,0,1,8.57,8.5,11.123,11.123,0,0,0-6.7,1.624,1.331,1.331,0,1,0,1.393,2.262,8.632,8.632,0,1,1-4.073,7.382h.8a1.331,1.331,0,0,0,0-2.662,8.579,8.579,0,1,1,0-17.15ZM217.642,66.09a11.277,11.277,0,0,0,7.186,7.1A11.048,11.048,0,0,0,226.815,80a8.633,8.633,0,0,1-6.21,2.714,8.518,8.518,0,0,1-3.247-.639l-.142-.062a8.57,8.57,0,0,1,.47-15.969Z" transform="translate(-209.33 -51.555)" fill="#c8c8c8"/>
    </g>
    <g id="noun-sweets-3213530" transform="translate(1098.765 2038.356)">
      <path id="Path_1820" data-name="Path 1820" d="M492.581,184.847a.945.945,0,0,0-.01-1.336,5,5,0,0,0-4.955-1.332.945.945,0,0,0,.464,1.832,3.113,3.113,0,0,1,3.165.846.944.944,0,0,0,1.336-.01Z" transform="translate(-458.525 -175.223)" fill="#c8c8c8"/>
      <path id="Path_1821" data-name="Path 1821" d="M411.9,143.316c-.529-1.073-2-1.073-2.487-1.073a33.423,33.423,0,0,0-6.537,1.126l-.777.184c-.063-.122-.129-.244-.2-.363a8.436,8.436,0,0,0-11.879-2.872c-.174-.163-.36-.341-.562-.531-2.9-2.747-5.246-4.848-6.873-4.848a1.6,1.6,0,0,0-1.243.543,2.919,2.919,0,0,0-.431,2.4,20.1,20.1,0,0,1-.042,6.06,20.294,20.294,0,0,1-2.792,5.379c-.286.4-1.157,1.625-.61,2.686.521,1.011,1.839,1.011,2.272,1.011h0a30.751,30.751,0,0,0,6.767-1.377l.675-.187c.034.061.065.123.1.184a8.381,8.381,0,0,0,5.128,3.929,8.412,8.412,0,0,0,6.584-.954l.47.479c2.835,2.9,5.132,5.112,6.767,5.112a1.591,1.591,0,0,0,1.21-.52,2.954,2.954,0,0,0,.5-2.362,20.332,20.332,0,0,1,.263-6.052,20.466,20.466,0,0,1,3-5.267c.3-.4,1.23-1.6.7-2.689ZM386,149.824a29.879,29.879,0,0,1-6.259,1.308h0a2.679,2.679,0,0,1-.512-.04,3.286,3.286,0,0,1,.391-.673,22.122,22.122,0,0,0,3.07-5.955,1.038,1.038,0,0,0,.031-.123,21.9,21.9,0,0,0,.065-6.7,3.232,3.232,0,0,1-.031-.775,7.232,7.232,0,0,1,2.139,1.363c1.11.892,2.306,2.026,3.267,2.937l.342.324a8.521,8.521,0,0,0-2.045,3.684c-.006.022-.013.044-.019.066,0,0,0,.007,0,.011l0,.006-.005.022a8.385,8.385,0,0,0,.033,4.423l-.461.127Zm6.9,3.921a6.5,6.5,0,0,1-3.979-3.049c-.076-.133-.147-.268-.214-.4a.942.942,0,0,0-.064-.31,6.959,6.959,0,0,1-.376-4.267,6.551,6.551,0,0,1,12.657,3.39,6.879,6.879,0,0,1-2.45,3.5.947.947,0,0,0-.216.244,6.523,6.523,0,0,1-3.658,1.124,6.632,6.632,0,0,1-1.7-.226Zm13.333,5.518v-.945h0Zm3.473-14.407a22.3,22.3,0,0,0-3.3,5.829.947.947,0,0,0-.037.129,22.153,22.153,0,0,0-.31,6.691,3.275,3.275,0,0,1,0,.777A7.158,7.158,0,0,1,404,156.861c-1.085-.939-2.251-2.13-3.188-3.087l-.319-.326a8.413,8.413,0,0,0,2.241-3.82l0-.012a.107.107,0,0,1,0-.012l0-.008c0-.007,0-.013,0-.02a8.432,8.432,0,0,0,.075-4.253l.489-.116a32.382,32.382,0,0,1,6.1-1.075,3.1,3.1,0,0,1,.708.064,3.348,3.348,0,0,1-.417.659Z" transform="translate(-364.694 -134.94)" fill="#c8c8c8"/>
      <path id="Path_1822" data-name="Path 1822" d="M387.484,319.425a5,5,0,0,0-5.086.618.945.945,0,1,0,1.111,1.529,3.081,3.081,0,0,1,3.248-.4.945.945,0,0,0,.728-1.745Z" transform="translate(-368.732 -292.498)" fill="#c8c8c8"/>
      <path id="Path_1823" data-name="Path 1823" d="M320.708,294.488a20.677,20.677,0,0,1,.81-6.014,2.935,2.935,0,0,0-.159-2.528,1.658,1.658,0,0,0-1.392-.639c-1.619,0-4.2,1.747-7.169,3.859l-.642.456a8.408,8.408,0,0,0-5.508-2.057,8.617,8.617,0,0,0-1.033.063,8.431,8.431,0,0,0-5.858,3.514l-.754-.294c-2.245-.88-5.319-2.084-7.122-2.084a1.968,1.968,0,0,0-1.869.871c-.576.99.139,2.248.373,2.661a20.4,20.4,0,0,1,2.239,5.641,19.983,19.983,0,0,1-.58,6.031,2.97,2.97,0,0,0,.236,2.5,1.67,1.67,0,0,0,1.348.612c1.616,0,4.172-1.867,7.1-4.121l.555-.426a8.387,8.387,0,0,0,5.342,1.922,8.549,8.549,0,0,0,1.045-.065,8.382,8.382,0,0,0,5.63-3.184c.042-.053.081-.109.121-.164l.679.295c2.943,1.282,5.512,2.343,7.162,2.343a1.893,1.893,0,0,0,1.763-.827,2.774,2.774,0,0,0-.286-2.653,20.322,20.322,0,0,1-2.032-5.71Zm-26.934,10.688a3.191,3.191,0,0,1,.109-.769,21.805,21.805,0,0,0,.623-6.674,1.009,1.009,0,0,0-.019-.129,22.213,22.213,0,0,0-2.456-6.241,3.251,3.251,0,0,1-.318-.7c.046,0,.1-.007.17-.007,1.445,0,4.447,1.175,6.433,1.953l.467.183a8.487,8.487,0,0,0-.521,4.234c0,.007,0,.015,0,.022a.044.044,0,0,1,0,.008.023.023,0,0,1,0,.006c0,.008,0,.016,0,.024a8.422,8.422,0,0,0,1.691,4.081l-.384.295c-1.508,1.162-4.579,3.526-5.8,3.717Zm13.667-2.663a6.612,6.612,0,0,1-.815.051,6.512,6.512,0,0,1-4.364-1.682.946.946,0,0,0-.177-.268,6.944,6.944,0,0,1-1.947-3.809,6.554,6.554,0,0,1,13.01-1.6,7,7,0,0,1-.964,4.177.943.943,0,0,0-.105.292c-.085.125-.173.25-.267.371a6.505,6.505,0,0,1-4.371,2.472Zm13.823-.724c-1.39,0-4.41-1.315-6.407-2.185l-.474-.206a8.366,8.366,0,0,0,.646-4.379l0-.022s0-.005,0-.008,0-.006,0-.01,0-.025-.006-.037a8.509,8.509,0,0,0-1.521-3.955l.4-.282c1.542-1.1,4.69-3.339,5.941-3.5a3.235,3.235,0,0,1-.138.763,22.5,22.5,0,0,0-.876,6.644.956.956,0,0,0,.014.138,22.149,22.149,0,0,0,2.229,6.319,3.257,3.257,0,0,1,.29.716l-.091,0Z" transform="translate(-289.793 -263.658)" fill="#c8c8c8"/>
    </g>
  </g>
</svg>
