<svg xmlns="http://www.w3.org/2000/svg" width="53.774" height="44.233" viewBox="0 0 53.774 44.233">
  <g id="icon10" transform="translate(-78.753 -104.999)">
    <path id="Path_1909" data-name="Path 1909" d="M132.527,133.157a3.908,3.908,0,0,0-1.152-2.782l-1.091-1.091,1.091-1.091a3.934,3.934,0,0,0-5.563-5.563l-2.317,2.317h-3.11v-2.2L117,120.494a38.963,38.963,0,0,1-8.325-7.481A22.274,22.274,0,0,0,91.567,105H85.692c-3.956,0-6.939,7.084-6.939,16.479,0,6.628,1.488,12.093,3.752,14.744H78.753v6.939h3.024l4.337,6.071h39.054l4.337-6.071h3.022v-6.939h-1.5a3.911,3.911,0,0,0,1.5-3.066Zm-8.314-6.475,2.826-2.826a2.2,2.2,0,0,1,3.11,3.11l-2.317,2.318,2.317,2.317a2.2,2.2,0,0,1-3.11,3.11l-2.826-2.826h-3.828v-5.2ZM95.242,107.065a20.571,20.571,0,0,1,12.1,7.058,40.754,40.754,0,0,0,8.7,7.814l2.61,1.739v7.342h-.867c-.1,0-.2.01-.305.015a5.186,5.186,0,0,0-9.8,0c-.1-.005-.2-.015-.305-.015h-.937A5.966,5.966,0,0,0,106.2,130a12.378,12.378,0,0,0,1.938-1.047l2.317-1.545-.962-1.443-2.317,1.545a10.672,10.672,0,0,1-1.749.936,6.063,6.063,0,0,0-11.012,2.684,3.432,3.432,0,0,0-2.173,5.1H88.877c2.265-2.652,3.753-8.116,3.753-14.744s-1.488-12.093-3.752-14.744h2.689a20.567,20.567,0,0,1,3.674.331Zm19.071,29.158h-.78a4.344,4.344,0,0,1,4.249-3.469h.78A4.343,4.343,0,0,1,114.313,136.223ZM93.5,134.488a1.735,1.735,0,1,1,1.735,1.735A1.736,1.736,0,0,1,93.5,134.488Zm4.962,1.249a3.427,3.427,0,0,0-2.287-4.573,4.308,4.308,0,0,1,7.491-2.147,10.607,10.607,0,0,1-2.36.266v1.735a12.315,12.315,0,0,0,3.245-.441,4.277,4.277,0,0,1,.224,1.309,4.323,4.323,0,0,1-6.313,3.851Zm7.181-.74a6.116,6.116,0,0,0,.964,1.225h-1.926A6.186,6.186,0,0,0,105.64,135Zm.955-2.244h.78a4.343,4.343,0,0,1,4.249,3.469h-.78A4.343,4.343,0,0,1,106.595,132.753Zm2.808-1.379a3.458,3.458,0,0,1,6.352,0,6.1,6.1,0,0,0-3.176,2.6A6.1,6.1,0,0,0,109.4,131.374Zm-28.915-9.9c0-8.69,2.743-14.744,5.2-14.744s5.2,6.055,5.2,14.744-2.743,14.744-5.2,14.744S80.487,130.168,80.487,121.478Zm50.3,19.948h-5.2v1.735h1.784l-3.1,4.337H87l-3.1-4.337h39.946v-1.735H80.487v-3.469h50.3Zm-12.239-5.2a6.081,6.081,0,0,0,1.575-2.6h3.366l2.317,2.317a4.023,4.023,0,0,0,.346.285Z" fill="#c8c8c8"/>
    <path id="Path_1910" data-name="Path 1910" d="M117.219,157.5c-2.738,0-3.469,7.087-3.469,11.275s.731,11.275,3.469,11.275,3.469-7.088,3.469-11.275S119.958,157.5,117.219,157.5Zm0,20.789c-.654-.489-1.735-3.906-1.735-9.514s1.081-9.025,1.735-9.514c.654.487,1.735,3.9,1.735,9.514S117.873,177.8,117.219,178.289Z" transform="translate(-31.528 -47.297)" fill="#c8c8c8"/>
  </g>
</svg>
