<svg xmlns="http://www.w3.org/2000/svg" xmlns:xlink="http://www.w3.org/1999/xlink" width="17" height="18" viewBox="0 0 17 18">
  <defs>
    <clipPath id="clip-path">
      <rect id="Rectangle_131" data-name="Rectangle 131" width="11" height="12" transform="translate(0.406 -0.359)" fill="#fff"/>
    </clipPath>
  </defs>
  <g id="instagram" transform="translate(-0.488 0.276)">
    <path id="Path_21937" data-name="Path 21937" d="M8.5,0A8.761,8.761,0,0,1,17,9a8.761,8.761,0,0,1-8.5,9A8.761,8.761,0,0,1,0,9,8.761,8.761,0,0,1,8.5,0Z" transform="translate(0.488 -0.276)" fill="#fdbd10"/>
    <g id="Group_46" data-name="Group 46" transform="translate(3.082 3.082)">
      <g id="Group_45" data-name="Group 45" transform="translate(0 0)" clip-path="url(#clip-path)">
        <path id="Path_1058" data-name="Path 1058" d="M5.56,1c1.485,0,1.661.006,2.247.032a3.077,3.077,0,0,1,1.033.191,1.723,1.723,0,0,1,.639.416,1.723,1.723,0,0,1,.416.639,3.077,3.077,0,0,1,.191,1.033c.027.586.032.762.032,2.247s-.006,1.661-.032,2.247A3.077,3.077,0,0,1,9.9,8.841,1.842,1.842,0,0,1,8.84,9.9a3.077,3.077,0,0,1-1.033.191c-.586.027-.762.032-2.247.032s-1.661-.006-2.247-.032A3.077,3.077,0,0,1,2.28,9.9a1.723,1.723,0,0,1-.639-.416,1.723,1.723,0,0,1-.416-.639,3.078,3.078,0,0,1-.192-1.033C1.007,7.222,1,7.046,1,5.561s.006-1.661.032-2.247a3.078,3.078,0,0,1,.192-1.033,1.723,1.723,0,0,1,.416-.639,1.723,1.723,0,0,1,.639-.416,3.077,3.077,0,0,1,1.033-.191C3.9,1.008,4.075,1,5.56,1m0-1C4.05,0,3.86.006,3.267.033a4.082,4.082,0,0,0-1.35.258A2.726,2.726,0,0,0,.932.933a2.726,2.726,0,0,0-.641.985,4.082,4.082,0,0,0-.258,1.35C.005,3.861,0,4.051,0,5.561s.006,1.7.033,2.293A4.082,4.082,0,0,0,.291,9.2a2.726,2.726,0,0,0,.641.985,2.726,2.726,0,0,0,.985.641,4.082,4.082,0,0,0,1.35.258c.593.027.783.033,2.293.033s1.7-.006,2.293-.033A4.082,4.082,0,0,0,9.2,10.83,2.844,2.844,0,0,0,10.829,9.2a4.082,4.082,0,0,0,.258-1.35c.027-.593.033-.783.033-2.293s-.006-1.7-.033-2.293a4.082,4.082,0,0,0-.258-1.35,2.726,2.726,0,0,0-.641-.985A2.726,2.726,0,0,0,9.2.292,4.082,4.082,0,0,0,7.853.033C7.26.006,7.07,0,5.56,0" transform="translate(0.219 0.218)" fill="#fff"/>
        <path id="Path_1059" data-name="Path 1059" d="M125.411,122.556a2.856,2.856,0,1,0,2.856,2.856,2.856,2.856,0,0,0-2.856-2.856m0,4.709a1.854,1.854,0,1,1,1.854-1.854,1.854,1.854,0,0,1-1.854,1.854" transform="translate(-119.631 -119.632)" fill="#fff"/>
        <path id="Path_1060" data-name="Path 1060" d="M357.5,87.882a.667.667,0,1,1-.667-.667.667.667,0,0,1,.667.667" transform="translate(-348.085 -85.071)" fill="#fff"/>
      </g>
    </g>
  </g>
</svg>
