<svg xmlns="http://www.w3.org/2000/svg" width="1946" height="431" viewBox="0 0 1946 431">
  <path id="Subtraction_1" data-name="Subtraction 1" d="M1946,457.683H0v-431H.273V88.872C4.935,91.488,31.527,101.8,67.914,113.02c31.839,9.822,79.561,22.92,126.1,29.547,17.672,2.516,32.731,4.31,46.037,5.484,12.941,1.142,24.236,1.7,34.532,1.7a227.474,227.474,0,0,0,38.526-3.1c11.576-1.941,22.773-4.687,36.207-8.076,28.591-7.21,59.135-13.882,88.783-13.882a172.686,172.686,0,0,1,23.981,1.606A133.028,133.028,0,0,1,499.7,137.215c4.374,1.984,8.82,4.238,13.592,6.891,8.86,4.925,17.5,10.5,25.86,15.891,10.549,6.8,21.458,13.841,32.784,19.541a142.891,142.891,0,0,0,17.533,7.5,110.112,110.112,0,0,0,18.949,4.8,111.041,111.041,0,0,0,17.394,1.369,123.9,123.9,0,0,0,25.016-2.627,175.217,175.217,0,0,0,24.3-6.943c16.029-5.754,32.107-13.606,47.657-21.2,10.6-5.176,21.555-10.526,32.542-15.248a241.617,241.617,0,0,1,33.632-11.921c5.5-1.453,11.213-2.673,16.986-3.627a208.2,208.2,0,0,1,33.722-2.67,261.135,261.135,0,0,1,35.3,2.512,342.18,342.18,0,0,1,35.107,6.8c20.728,5.1,42.819,12.321,67.536,22.063,11.062,4.362,22.282,9,33.133,13.489l.009,0c23.491,9.714,47.782,19.76,72.349,27.782,13.23,4.32,25.459,7.718,37.385,10.386,6.465,1.447,12.916,2.688,19.174,3.69,6.567,1.051,13.149,1.875,19.563,2.449,8.124.726,16.472,1.094,24.813,1.094a306.835,306.835,0,0,0,33.054-1.83c10.63-1.157,21.606-2.892,32.625-5.156,10.434-2.144,21.227-4.829,32.078-7.98,10.194-2.96,20.763-6.427,31.415-10.3l.055.324c9.807-4.535,19.613-9.237,29.1-13.784l.015-.007.012-.006c21.292-10.209,43.307-20.766,65.638-29.531,12.009-4.713,23.206-8.573,34.234-11.8a312.56,312.56,0,0,1,36.219-8.381c.19-.042,19.337-4.244,50.408-8.379,18.281-2.432,37.072-4.371,55.849-5.76,23.474-1.737,47-2.618,69.913-2.618,21.737,0,43.271.8,64,2.364,23.21,1.756,45.95,4.522,67.59,8.222,11.643,1.991,23.2,4.291,34.337,6.838,11.657,2.665,23.188,5.672,34.271,8.939,11.564,3.408,22.964,7.194,33.883,11.251,11.363,4.222,22.524,8.857,33.174,13.776a103.206,103.206,0,0,1,11.971,6.882l.006,0a113.93,113.93,0,0,0,10.59,6.215A65.443,65.443,0,0,0,1946,163.166V457.683Zm0-295.231h0c-.025-4.45-.293-8.994-.552-13.389v-.015c-.27-4.59-.525-8.926-.525-13.123V26.683H1946Z" transform="translate(0 -26.683)" fill="#f9f9f9"/>
</svg>
