<svg xmlns="http://www.w3.org/2000/svg" xmlns:xlink="http://www.w3.org/1999/xlink" width="26.888" height="21.968" viewBox="0 0 26.888 21.968">
  <defs>
    <clipPath id="clip-path">
      <rect id="Rectangle_1984" data-name="Rectangle 1984" width="26.888" height="21.968" fill="none" stroke="#fdbd10" stroke-width="1"/>
    </clipPath>
  </defs>
  <g id="tone" clip-path="url(#clip-path)">
    <path id="Path_22261" data-name="Path 22261" d="M52.61,69.294a4.646,4.646,0,0,0-2.435,1.192A4.656,4.656,0,0,0,48.8,72.824a2.927,2.927,0,0,1,.265-1.418,3.73,3.73,0,0,1,2.11-1.955,2.933,2.933,0,0,1,1.433-.157" transform="translate(-42.688 -60.597)" fill="#f8aa00" stroke="#fdbd10" stroke-width="1"/>
    <path id="Path_22262" data-name="Path 22262" d="M26.773,10.957l-.007-.014a1.052,1.052,0,0,0-.358-.414,2.745,2.745,0,0,0-1.987-.163,20.054,20.054,0,0,1-5.9.641,3.452,3.452,0,0,1,.729-2.479,28.47,28.47,0,0,1,2.335-3.2c.37-.44.773-1.054.458-1.534a.913.913,0,0,0-1.018-.288,2.9,2.9,0,0,0-.955.6,22.186,22.186,0,0,1-3.281,2.2.886.886,0,0,1-.576.157.713.713,0,0,1-.371-.241A2.106,2.106,0,0,1,15.5,4.146a3.76,3.76,0,0,1,1.347-1.705,5.226,5.226,0,0,0,.895-.739A1.141,1.141,0,0,0,18.017.625C17.8.02,16.98-.1,16.363.073a5.515,5.515,0,0,0-2.15,1.385A38.306,38.306,0,0,1,10.48,4.88c-1.559,1.1-3.455,1.8-4.666,3.277-1.288,1.571-1.552,3.709-2.1,5.665a18.367,18.367,0,0,1-3.378,6.56,1.312,1.312,0,0,0-.33.59.865.865,0,0,0,.573.86c.885.368,1.569-.1,2.364-.411a7.668,7.668,0,0,1,1.594-.382l5.711-.942a3.431,3.431,0,0,0,2.5-1.2l1.3-.043a10.207,10.207,0,0,0-5.589.732l4.1-.738a1.962,1.962,0,0,1-1.3.749,23.7,23.7,0,0,1-2.75.438c-1.415.167-2.894.34-4.336.487-1.085.111-2.068,1.092-3.159.962-.3-.036-.7-.189-.613-.517a.434.434,0,0,1,.07-.144q2.148-2.97,4.494-5.79A24.86,24.86,0,0,1,11.253,9.21c1.964-1.149,4.18-1.8,6.181-2.887A18.5,18.5,0,0,0,20.519,4.2c.372-.313,1.012-.6,1.256-.184.171.3-.067.651-.287.912A23.645,23.645,0,0,0,18.723,9a2.555,2.555,0,0,0-.4,2c-1.915-.3-3.781.778-5.239,2.056s-2.725,2.814-4.416,3.761a6.162,6.162,0,0,0-1.13.7,1.367,1.367,0,0,0-.513,1.17.787.787,0,0,0,.958.662.929.929,0,0,1-.541-1.4,1.969,1.969,0,0,1,.725-.5c2.057-1.038,3.634-2.8,5.393-4.291a7.1,7.1,0,0,1,2.808-1.626,11.022,11.022,0,0,1,2.847-.1A16.789,16.789,0,0,0,23.369,11a5.647,5.647,0,0,1,2.573-.255.806.806,0,0,1,.4.2c.28.29.1.773-.129,1.105a5.6,5.6,0,0,1-1.922,1.733,12.441,12.441,0,0,0-2.35,1.258,13.35,13.35,0,0,0-1.457,1.878,5.246,5.246,0,0,1-7.323.85c-.108.081,0,.249.11.329a5.471,5.471,0,0,0,7.585-1.07,8.87,8.87,0,0,1,1.435-1.8,7.055,7.055,0,0,1,1.443-.726,8.026,8.026,0,0,0,2.418-1.687,2.511,2.511,0,0,0,.591-.743,1.267,1.267,0,0,0,.03-1.111M15.406,6.9c-.348.137-.706.269-1.053.4-.625.232-1.272.471-1.9.749l-.181.083-.053.024c-.043.019-.087.039-.13.061l-.179.088-.089.044-.091.049-.123.066-.228.123-.347.2a15.412,15.412,0,0,0-1.321.9L9.4,9.933l-.336.276-.051.043-.225.195-.053.046-.1.086-.147.133c-.385.348-.77.719-1.145,1.1-.75.766-1.472,1.573-2.141,2.332-.346.394-.695.8-1.035,1.195-.37.434-.7.83-1.016,1.211-.212.258-.41.5-.6.735q.048-.13.107-.265c.11-.254.241-.5.355-.706.078-.142.16-.285.239-.424l.155-.274c.118-.21.255-.461.377-.721.066-.143.118-.263.162-.38l.035-.094c.008-.022.016-.044.023-.065l.011-.033c.019-.053.036-.107.052-.159l.012-.038A13.389,13.389,0,0,0,4.405,12.7l.029-.156c.022-.12.047-.248.076-.39l.042-.193.016-.07c.009-.041.019-.083.029-.124.063-.261.133-.517.21-.762s.17-.506.266-.741.209-.488.326-.714a6.653,6.653,0,0,1,.862-1.3A5.4,5.4,0,0,1,6.8,7.7a5.292,5.292,0,0,1,.617-.466c.269-.175.56-.335.841-.491.178-.1.362-.2.541-.306.475-.276.936-.568,1.37-.868a21.426,21.426,0,0,0,2.52-2.037l.189-.182.1-.1.185-.185.1-.1.182-.189.1-.1c.093-.1.183-.2.275-.3l.009-.01a12.828,12.828,0,0,1,1.107-1.107l.029-.024c.041-.034.08-.067.121-.1l.029-.022.047-.037.079-.058a3.742,3.742,0,0,1,.321-.21,3.269,3.269,0,0,1,.695-.3A2.874,2.874,0,0,1,16.63.425,2.552,2.552,0,0,1,17,.4a2.111,2.111,0,0,1,.368.033,1.922,1.922,0,0,1,.3.083.651.651,0,0,1,.072.324,1.06,1.06,0,0,1-.1.407,1.392,1.392,0,0,1-.242.363,2.853,2.853,0,0,1-.344.309c-.083.065-.171.13-.256.192a5.524,5.524,0,0,0-.521.416,3.379,3.379,0,0,0-.337.379,4.782,4.782,0,0,0-.286.411,4,4,0,0,0-.425.908c-.025.078-.047.161-.066.246a2.468,2.468,0,0,0-.043.252,2.1,2.1,0,0,0,0,.515,1.789,1.789,0,0,0,.138.5,1.973,1.973,0,0,0,.122.229L15.407,6l.03.045.02.027.038.051.039.049c.015.019.03.036.044.051l.042.047.067.068.069.064.033.029.015.013c.032.028.065.053.1.078l0,0c.049.038.1.074.154.11-.206.089-.421.178-.653.269" transform="translate(0 0)" fill="#f8aa00" stroke="#fdbd10" stroke-width="1"/>
    <path id="Path_22263" data-name="Path 22263" d="M85.054,41.488c-.036.07-.072.14-.109.209s-.074.137-.115.2-.081.131-.126.193a1.83,1.83,0,0,1-.143.177,1.525,1.525,0,0,1-.165.153,1.051,1.051,0,0,1-.189.115,1.027,1.027,0,0,1-.212.074.889.889,0,0,1-.224.024.7.7,0,0,1-.431-.146l.041.044.01.011.012.01.023.02.024.019.026.016a.446.446,0,0,0,.053.031.725.725,0,0,0,.236.074.888.888,0,0,0,.249,0,.575.575,0,0,0,.062-.01c.02,0,.041-.007.061-.014l.061-.017.059-.021a1.082,1.082,0,0,0,.224-.118,1.468,1.468,0,0,0,.191-.161,2.05,2.05,0,0,0,.3-.392c.084-.14.155-.284.223-.427s.134-.287.2-.432c.129-.29.254-.582.365-.881-.171.269-.327.546-.478.825-.076.139-.15.28-.222.421" transform="translate(-72.912 -35.207)" fill="#f8aa00" stroke="#fdbd10" stroke-width="1"/>
    <path id="Path_22264" data-name="Path 22264" d="M30.7,126.948c.875.654,1.261-1.119,1.7-1.351.247-.131.53-.182.776-.316a2.55,2.55,0,0,0,.993-1.489c-.226.633,0,1.231-.709,1.652-.253.15-.549.216-.8.366-.593.353-.577,1.188-1.355,1.268a1.034,1.034,0,0,1-.38-.028.665.665,0,0,1-.221-.1" transform="translate(-26.855 -108.303)" fill="#f8aa00" stroke="#fdbd10" stroke-width="1"/>
    <path id="Path_22265" data-name="Path 22265" d="M136.157,104.387c.378-.158.762-.291,1.149-.416.559-.179,1.325-.229,1.728-.691a3.617,3.617,0,0,1,.513-.569.736.736,0,0,1,.621-.165,1.8,1.8,0,0,0-.735.6c-.57.78-1.169.833-2.072,1.026-.4.085-.8.163-1.2.215" transform="translate(-119.12 -89.698)" fill="#f8aa00" stroke="#fdbd10" stroke-width="1"/>
  </g>
</svg>
