<svg xmlns="http://www.w3.org/2000/svg" width="1919.731" height="259" viewBox="0 0 1919.731 259">
  <path id="Path_21936" data-name="Path 21936" d="M1115.276,30.486C1066.837,8.931,1015.514-4.379,963.35,1.321,899.272,8.329,842.222,43.059,784.163,71.056c-52.813,25.455-112.8,46.03-169.371,34.633a152.8,152.8,0,0,1-16.759-4.376C536.313,81.382,483.569,20.677,419.9,33.062c-46.667,9.087-77.247,55.1-121.43,72.662-42.5,16.893-90.507,5.076-134.212-8.4S97.128,77.512,11.033,92.5s-181.961,58.477-191.153,64.784V259H1738.546V100.517c0-16.322,2.668-35.5-.44-51.389-7.689,4.641-14.384,11.356-22.266,15.806-191.78,108.315-437.5,41.784-437.5,41.784C1218.147,94.324,1168.822,60.343,1115.33,30.1" transform="translate(180.119 0)" fill="#df2e2d"/>
</svg>
