<svg id="youtube" xmlns="http://www.w3.org/2000/svg" xmlns:xlink="http://www.w3.org/1999/xlink" width="17.724" height="17.724" viewBox="0 0 17.724 17.724">
  <defs>
    <clipPath id="clip-path">
      <rect id="Rectangle_133" data-name="Rectangle 133" width="10" height="7" transform="translate(0.353 0.33)" fill="#fff"/>
    </clipPath>
  </defs>
  <path id="Path_21159" data-name="Path 21159" d="M8.862,0A8.862,8.862,0,1,1,0,8.862,8.862,8.862,0,0,1,8.862,0Z" transform="translate(0 0)" fill="#fdbd10"/>
  <g id="Group_50" data-name="Group 50" transform="translate(3.853 5.394)">
    <g id="Group_49" data-name="Group 49" transform="translate(0 0)" clip-path="url(#clip-path)">
      <path id="Path_1065" data-name="Path 1065" d="M10.447,1.174A1.341,1.341,0,0,0,9.5.224,31.68,31.68,0,0,0,5.335,0,31.68,31.68,0,0,0,1.166.224a1.341,1.341,0,0,0-.943.949A14.067,14.067,0,0,0,0,3.759,14.067,14.067,0,0,0,.223,6.344a1.341,1.341,0,0,0,.943.95,31.688,31.688,0,0,0,4.169.224A31.688,31.688,0,0,0,9.5,7.293a1.341,1.341,0,0,0,.943-.95,14.063,14.063,0,0,0,.223-2.585,14.063,14.063,0,0,0-.223-2.585" transform="translate(0.084 -0.259)" fill="#fff"/>
      <path id="Path_1066" data-name="Path 1066" d="M70,39V35.831l2.789,1.587Z" transform="translate(-65.672 -33.918)" fill="#fdbd10"/>
    </g>
  </g>
</svg>
